<svg width="21" height="18" viewBox="0 0 21 18" fill="none" xmlns="http://www.w3.org/2000/svg">
<path d="M19.9432 8.223L12.6822 1.00013C12.475 0.793956 12.1987 0.680786 11.9042 0.680786C11.6093 0.680786 11.3332 0.794119 11.1259 1.00013L10.4667 1.65606C10.2596 1.86191 10.1455 2.13687 10.1455 2.43004C10.1455 2.72305 10.2596 3.00727 10.4667 3.21312L14.7026 7.43602H1.24492C0.638159 7.43602 0.15873 7.90853 0.15873 8.51227V9.43958C0.15873 10.0433 0.638159 10.5635 1.24492 10.5635H14.7507L10.4669 14.8099C10.2598 15.0161 10.1457 15.2836 10.1457 15.5768C10.1457 15.8696 10.2598 16.141 10.4669 16.347L11.1261 17.0008C11.3334 17.207 11.6095 17.3193 11.9043 17.3193C12.1989 17.3193 12.4751 17.2055 12.6824 16.9994L19.9433 9.77665C20.1511 9.56982 20.2653 9.29373 20.2645 9.00023C20.2652 8.70576 20.1511 8.4295 19.9432 8.223Z" fill="#FFED00"/>
</svg>
