<svg width="26" height="30" viewBox="0 0 26 30" fill="none" xmlns="http://www.w3.org/2000/svg">
<path d="M4.5 4.5H8.25001C8.25001 2.01473 10.2647 0 12.75 0C15.2352 0 17.25 2.01473 17.25 4.5H21C23.4852 4.5 25.5 6.51471 25.5 9V25.5C25.5 27.9853 23.4852 30 21 30H4.5C2.01471 30 0 27.9853 0 25.5V9C0 6.51471 2.01471 4.5 4.5 4.5ZM4.49999 6.00002C2.84315 6.00002 1.5 7.34316 1.5 9.00002V25.5C1.5 27.1569 2.84315 28.5 4.49999 28.5H21C22.6569 28.5 24 27.1569 24 25.5V9.00002C24 7.34316 22.6569 6.00002 21 6.00002H19.5V10.5H5.99999V6.00002H4.49999ZM7.5 8.99999H18V5.99999H7.5V8.99999ZM12.75 1.49999C11.0931 1.49999 9.75001 2.84315 9.75001 4.5H15.75C15.75 2.84315 14.4069 1.49999 12.75 1.49999ZM21.2243 14.4007L10.5 25.125L5.70036 20.3254L6.76103 19.2648L10.5 23.0037L20.1636 13.3401L21.2243 14.4007Z" fill="white"/>
</svg>
