<svg width="28" height="28" viewBox="0 0 28 28" fill="none" xmlns="http://www.w3.org/2000/svg">
<path d="M14 0C21.732 0 28 6.26802 28 14C28 21.732 21.732 28 14 28C6.26802 28 0 21.732 0 14C0 6.26802 6.26801 0 14 0ZM14 1.4737C7.08191 1.4737 1.47368 7.08191 1.47368 14C1.47368 20.9181 7.08191 26.5263 14 26.5263C20.9181 26.5263 26.5263 20.9181 26.5263 14C26.5263 7.08191 20.9181 1.4737 14 1.4737ZM13.2632 5.89474H14.7368V13.8859L21.6574 17.8817L20.9206 19.1579L13.2632 14.7368V5.89474Z" fill="white"/>
</svg>
