<svg width="28" height="22" viewBox="0 0 28 22" fill="none" xmlns="http://www.w3.org/2000/svg">
<path d="M4.40001 0H23.4667C25.8968 0 27.8667 1.96995 27.8667 4.4V17.6C27.8667 20.0301 25.8967 22 23.4667 22H4.40001C1.96994 22 0 20.0301 0 17.6V4.4C0 1.96995 1.96996 0 4.40001 0ZM4.40001 1.46668C2.77997 1.46668 1.46667 2.77998 1.46667 4.40001V5.86668H26.4V4.40001C26.4 2.77998 25.0868 1.46668 23.4667 1.46668H4.40001ZM1.46665 17.6C1.46665 19.2201 2.77997 20.5333 4.39999 20.5333H23.4667C25.0866 20.5333 26.4 19.2201 26.4 17.6V10.2667H1.46667L1.46665 17.6ZM4.40001 16.1333H10.2667V17.6H4.40001V16.1333ZM13.2 16.1333H17.6V17.6H13.2V16.1333ZM1.46667 7.33333V8.8H26.4V7.33333H1.46667Z" fill="white"/>
</svg>
