<svg width="21" height="30" viewBox="0 0 21 30" fill="none" xmlns="http://www.w3.org/2000/svg">
<path d="M14.2105 26.8421C14.2105 28.5862 12.7967 30 11.0526 30H9.47368C7.72962 30 6.31579 28.5862 6.31579 26.8421H7.89473C7.89473 27.7142 8.60163 28.4211 9.47368 28.4211H11.0526C11.9247 28.4211 12.6316 27.7142 12.6316 26.8421H14.2105ZM15.7895 22.1053C15.7895 23.8494 14.3757 25.2632 12.6316 25.2632H7.89473C6.15068 25.2632 4.73684 23.8494 4.73684 22.1053V18.9129C1.88817 17.0891 0 13.8966 0 10.2632C0 4.59497 4.59497 0 10.2632 0C15.9313 0 20.5263 4.59497 20.5263 10.2632C20.5263 13.8966 18.638 17.0891 15.7895 18.9129V22.1053ZM6.31579 22.1053C6.31579 22.9773 7.0227 23.6842 7.89473 23.6842H12.6316C13.5036 23.6842 14.2105 22.9773 14.2105 22.1053V18.0005C17.0223 16.563 18.9474 13.6378 18.9474 10.2632C18.9474 5.46701 15.0594 1.57895 10.2632 1.57895C5.46699 1.57895 1.57895 5.46701 1.57895 10.2632C1.57895 13.6378 3.50394 16.563 6.31579 18.0005V22.1053Z" fill="white"/>
</svg>
