<svg width="30" height="28" viewBox="0 0 30 28" fill="none" xmlns="http://www.w3.org/2000/svg">
<path d="M11.4286 0H18.5714V7.14285H15.7143V12.8571H22.8571C25.2241 12.8571 27.1429 14.7758 27.1429 17.1428V20H30V27.1428H22.8571V20H25.7143V17.1428C25.7143 15.5648 24.4351 14.2857 22.8571 14.2857H15.7143V20H18.5714V27.1428H11.4286V20H14.2857V14.2857H7.14286C5.5649 14.2857 4.28571 15.5648 4.28571 17.1428V20H7.14286V27.1428H0V20H2.85714V17.1428C2.85714 14.7758 4.77593 12.8571 7.14286 12.8571H14.2857V7.14285H11.4286V0ZM17.1429 5.71429V1.42858H12.8571V5.71429H17.1429ZM5.71429 25.7143V21.4285H1.42857V25.7143H5.71429ZM17.1429 25.7143V21.4285H12.8571V25.7143H17.1429ZM28.5714 25.7143V21.4285H24.2857V25.7143H28.5714Z" fill="white"/>
</svg>
