<?xml version="1.0" encoding="utf-8"?>
<!-- Generator: Adobe Illustrator 19.2.1, SVG Export Plug-In . SVG Version: 6.00 Build 0)  -->
<svg version="1.1" id="Layer_1" xmlns="http://www.w3.org/2000/svg" xmlns:xlink="http://www.w3.org/1999/xlink" x="0px" y="0px"
	 viewBox="0 0 841.9 416" style="enable-background:new 0 0 841.9 416;" xml:space="preserve">
<style type="text/css">
	.st0{fill:none;}
	.st1{fill:#1D1D1B;}
	.st2{fill:url(#_x31_0_dpi_20_x25_);}
</style>
<pattern  y="506.6" width="14.2" height="14.2" patternUnits="userSpaceOnUse" id="_x31_0_dpi_20_x25_" viewBox="1.6 -22.9 14.2 14.2" style="overflow:visible;">
	<g>
		<rect x="1.6" y="-22.9" class="st0" width="14.2" height="14.2"/>
		<g>
			<circle class="st1" cx="15.6" cy="-8.9" r="1.4"/>
		</g>
		<g>
			<circle class="st1" cx="1.4" cy="-8.9" r="1.4"/>
			<circle class="st1" cx="15.8" cy="-8.9" r="1.4"/>
		</g>
		<g>
			<circle class="st1" cx="1.7" cy="-8.9" r="1.4"/>
		</g>
		<g>
			<circle class="st1" cx="15.6" cy="-8.6" r="1.4"/>
			<circle class="st1" cx="15.6" cy="-23" r="1.4"/>
		</g>
		<g>
			<circle class="st1" cx="23" cy="-1.4" r="1.4"/>
			<circle class="st1" cx="8.6" cy="-1.4" r="1.4"/>
			<circle class="st1" cx="23" cy="-15.8" r="1.4"/>
			<circle class="st1" cx="8.6" cy="-15.8" r="1.4"/>
			<circle class="st1" cx="1.4" cy="-8.6" r="1.4"/>
			<circle class="st1" cx="15.8" cy="-8.6" r="1.4"/>
			<circle class="st1" cx="1.4" cy="-23" r="1.4"/>
			<circle class="st1" cx="15.8" cy="-23" r="1.4"/>
		</g>
		<g>
			<circle class="st1" cx="8.9" cy="-15.8" r="1.4"/>
			<circle class="st1" cx="1.7" cy="-8.6" r="1.4"/>
			<circle class="st1" cx="1.7" cy="-23" r="1.4"/>
		</g>
		<g>
			<circle class="st1" cx="15.6" cy="-22.8" r="1.4"/>
		</g>
		<g>
			<circle class="st1" cx="8.6" cy="-15.6" r="1.4"/>
			<circle class="st1" cx="1.4" cy="-22.8" r="1.4"/>
			<circle class="st1" cx="15.8" cy="-22.8" r="1.4"/>
		</g>
		<g>
			<circle class="st1" cx="8.9" cy="-15.6" r="1.4"/>
			<circle class="st1" cx="1.7" cy="-22.8" r="1.4"/>
		</g>
	</g>
</pattern>
<g>
	<polygon class="st2" points="680.3,26.7 681.8,19 681.9,18.8 681.9,19.4 687.5,26 688.8,24.8 690.3,17.1 692.2,13.5 690.1,10.7 
		685,11.1 682.9,14.3 681.6,12.6 676.5,13 673.5,17.6 673.5,21.2 679.1,27.9 	"/>
	<polygon class="st2" points="385,41.1 386.3,40.6 384.9,42.4 386.7,43.3 387.9,41.9 386.5,40.5 386.8,40.4 386.1,38.1 384.4,39.2 	
		"/>
	<polygon class="st2" points="379.4,35.3 380.7,34.3 378.7,32.5 377.7,33.3 378.3,34.4 	"/>
	<polygon class="st2" points="375.2,38.4 376.9,40.4 380.7,41.8 381.2,38.8 377.4,35.4 376.2,36.2 375.3,34.4 372.9,35.6 
		373.2,37.1 	"/>
	<polygon class="st2" points="351.1,31.9 353.7,31.7 355.3,33 356.4,31.8 354.3,30 352.5,30.5 348.7,28 349.3,30.5 	"/>
	<polygon class="st2" points="655.4,83.6 654.7,81.3 652.5,81.7 651.9,83.6 653.5,84.7 	"/>
	<polygon class="st2" points="495.4,131.6 498.4,134 499.8,131.8 500.2,130 498.6,128.9 496.6,128.6 	"/>
	<polygon class="st2" points="493.1,135.8 491,135.7 489.8,137.5 489.5,138.7 490.5,139.9 493.8,137.8 	"/>
	<polygon class="st2" points="564.7,109.8 567,111.2 568.9,110.7 568.7,108.2 563.7,107.5 	"/>
	<polygon class="st2" points="577,99.2 577.8,103.2 579.9,103.2 580.4,99.6 578.3,97.8 	"/>
	<polygon class="st2" points="591.6,103.6 589.9,99.8 586.7,99.4 584.3,98.8 582.6,101.5 581.6,102.6 581.6,107.2 586.7,106.1 	"/>
	<polygon class="st2" points="594.6,80.3 597.5,75 595.6,70.9 593.5,73.2 589.5,72.9 588.4,74.8 586.2,74.8 585.9,77 583.2,76.9 
		584.8,80.2 	"/>
	<polygon class="st2" points="581.5,61.2 579.4,60.4 578.7,62.8 580.7,63.3 	"/>
	<polygon class="st2" points="562.1,93.9 562.9,96.9 567.2,98.1 571.1,97.7 570.8,93.6 573.7,93.9 575.9,90.3 578.5,90.8 
		580.3,88.8 578.5,87.1 574.7,86 571.6,82.4 574.1,81.7 576.4,85.2 580.7,86.1 580.8,81.2 579.4,78.7 574.3,78.4 571.7,80.3 
		567.6,79.6 567.3,82.4 569.7,84.9 568.4,86.4 564.5,83.2 559.9,83.7 559.6,87.4 560,91.3 	"/>
	<polygon class="st2" points="558.1,97 559.7,96.3 557.7,92.7 554.8,90.9 555.4,93.9 	"/>
	<polygon class="st2" points="680.3,92.5 680.3,92.6 680.3,97.7 680.3,97.8 680.3,97.9 671.8,107.7 673.9,113.2 678,114.9 
		683.4,114.9 683.5,114.9 683.6,115.1 685.7,119.5 689.2,120 689.3,120 689.4,120.1 691.6,124.1 696.4,121.8 696.4,121.8 
		696.5,121.8 700.9,123.2 704.3,120.2 704.4,120.2 704.4,120.2 709.6,119.8 713.5,115.8 712.8,111.9 712.7,111.7 712.9,111.7 
		716.8,110.4 717.9,106.7 717.9,106.6 718.1,106.5 721.4,106.2 722.4,103.1 722.5,102.9 722.6,102.9 728.7,101.5 730.3,98.7 
		730.3,98.6 730.5,98.5 739.5,98 739.7,98 739.8,98.2 741.9,103.9 748.2,102 748.3,102 748.3,102 755.2,102.2 760.8,86.2 
		760.9,85.9 761.1,86 764.5,87.8 768.8,86.5 767.5,72.4 763.6,70.1 772.9,63.7 771.6,59.4 754.3,58 752.3,60.7 747.6,61.1 747,64.8 
		743.3,64.5 743.3,59.4 747.6,58 749.3,54.5 748.3,45.2 746.6,44.6 744.6,45.9 744.4,42.5 740.4,44 737.6,40.9 738.7,35.8 
		742.1,38.8 744,37.2 746.9,40.4 748.6,36.5 748.2,31.8 751.3,29.2 756.8,29.7 766,22.8 763.7,20.1 768.3,20.8 768.2,16.4 
		763.2,17.3 761.8,14.1 755.1,12.8 757.7,9.6 754.3,7.1 757.5,4.9 753.6,-0.2 742.5,6.3 741.8,11.7 738.8,15.6 746.3,18.6 
		742.2,20.4 730.2,17.1 716.2,26.4 695.3,37.8 689.7,46.9 690.3,49.6 686.5,50.7 681.1,55.5 684.9,60.2 688.3,59.2 693.4,62 
		692.9,67.1 688.2,67.7 685,69.5 678.4,65.3 678.4,73.8 671.6,78.9 669,84 680.2,92.4 	"/>
	<polygon class="st2" points="815.8,156.5 811.5,158.2 813.6,160.2 817.5,157 	"/>
	<polygon class="st2" points="794.8,245.4 796.8,246.7 797.7,244.3 796.7,242.5 794.5,243.9 	"/>
	<polygon class="st2" points="801.6,240.1 800.7,241 800.4,242.4 802.6,243.2 803.7,242 	"/>
	<polygon class="st2" points="799.4,244.1 798.9,250.2 801.2,253.2 803.4,252.2 802.9,246.2 801.2,244.6 	"/>
	<polygon class="st2" points="806.6,259.2 802.8,257.5 802.4,259.7 803.5,262 806.2,260.7 	"/>
	<polygon class="st2" points="806.3,275.2 805.3,277.2 806.9,279.4 808.8,277.6 807.6,275.3 	"/>
	<polygon class="st2" points="807.6,288.1 809,287.6 809.4,284.8 807.5,284.3 806.5,286.3 	"/>
	<polygon class="st2" points="807.8,290.8 806.3,292.5 807.5,295.8 811.1,294.8 809.9,291.5 	"/>
	<polygon class="st2" points="805.4,304.5 803.6,306.4 803.7,310.2 803.7,314.2 803.8,316 805.7,316 807.3,311.5 807,307.1 	"/>
	<polygon class="st2" points="802.4,322 801.8,319.5 799.9,319.4 800.1,321.4 798.8,322.6 796.5,325 796.6,330.8 797.3,335.5 
		798.2,335.9 798.5,333.2 799.1,329.7 799.2,326.8 801.1,324.2 	"/>
	<polygon class="st2" points="792.6,340.3 791.6,341.1 792.5,344.1 792.2,347.9 793.1,350.4 794,350 794.4,343.3 795.5,341.9 
		795.8,340.1 794.5,339.3 	"/>
	<polygon class="st2" points="801.3,340.9 800.2,341.9 800.2,343.6 800.8,345.1 802.7,344.4 802.3,342.4 	"/>
	<polygon class="st2" points="763.4,144.7 761.9,149.2 767.7,155.7 768.5,146.4 765.3,145 	"/>
	<polygon class="st2" points="805.5,160.8 801.6,161.7 803.1,164.1 808.9,165 811.2,163.8 809.8,161.3 	"/>
	<polygon class="st2" points="724.2,149 726.9,148.9 728.2,144.9 733.8,152.6 737.8,152 738,149.1 737.1,143.2 736.1,139.1 
		732.4,137 732.3,136.9 732.2,136.8 731.5,133 729.1,130.8 725.2,131.1 725,131.2 724.9,131 722.6,124.9 719.2,124.2 719.1,124.2 
		719.1,124.1 713.7,116.3 709.9,120.2 709.8,120.3 709.8,120.3 704.6,120.7 701.2,123.7 701.1,123.8 700.9,123.8 696.5,122.3 
		691.7,124.7 691.4,124.7 691.3,124.5 689,120.5 686,120 687.9,124.1 688,124.3 687.9,124.4 685.6,127.8 685.5,127.9 685.5,127.9 
		682.4,129.2 675.9,135.2 678.6,138.5 678.8,138.6 678.6,138.8 676,141.2 678.1,144.3 678.1,144.4 678.2,144.4 678.3,148.1 
		681.7,151.2 681.8,151.2 681.8,151.4 681.2,157.4 681.2,157.4 681.2,157.5 678.1,161 678,161 677.9,161 672.7,161.6 667.1,166.9 
		669.4,171.2 669.5,171.4 669.3,171.5 663.2,175.9 662.3,180.2 671.2,198.6 675.3,195.9 675.4,195.8 675.5,195.8 684.7,198.9 
		684.9,199 684.9,199.1 685.9,204.2 685.9,204.3 685.9,204.4 683.7,208.4 685.3,211.7 689,209 689.1,209 689.2,209 693.9,209 
		694,209 694.1,209.1 696.4,213.2 699.9,210.9 702.3,208.9 705.5,208.1 704.5,201.5 710.2,199.6 714.7,195.7 718.7,195.6 
		715.7,199.9 718.6,202.4 722.8,197.7 723.8,190.2 727.6,188.8 730.6,184.9 727.5,182.5 724.7,185.9 721.8,183.2 721.1,169.7 
		718.6,161.8 719.4,155.9 	"/>
	<polygon class="st2" points="727.6,347.1 727.5,347.1 727.5,346.9 726.8,343.7 722.4,340.5 717.4,344.3 720.3,347.5 725.1,347.9 
		725.3,347.9 725.3,348.1 724.2,355.5 724.2,355.7 724,355.7 720.6,355.8 721.1,360.5 721.1,360.7 721,360.8 716.2,364 716.2,364 
		716.1,364 708.2,364.5 706.2,367.1 707.7,370.2 707.9,370.5 707.6,370.6 703.5,371.4 703,386.7 705.8,391.4 695.1,392.3 691.6,400 
		701.5,410.2 701.7,414 707.2,408.7 716.6,408.9 723.4,403.4 727.5,395.3 729.4,373.1 732.2,361.5 730.3,347.9 	"/>
	<polygon class="st2" points="709.8,291.4 707.9,289 709.6,285.6 705.4,284 696.7,282.4 689.9,285.9 687.5,296.2 684.6,292.6 
		681.4,296.7 678.6,288.8 672.9,292.3 668.1,291.5 668.3,287 674.6,271.3 676.2,255.6 678,248.1 676.4,241.8 678.5,236.2 
		677.6,230.2 690.8,217.2 695,218 695.3,216.5 694.2,214.6 696,213.4 693.7,209.5 689.2,209.5 685.4,212.3 685.2,212.4 685,212.2 
		683.2,208.5 683.1,208.4 683.2,208.3 685.4,204.2 684.4,199.3 675.4,196.3 671.3,199.1 670.3,202.7 670.3,202.9 670.1,202.9 
		664.7,203.7 663.1,206.5 663,206.5 662.9,206.6 658.2,207.6 658.1,207.6 658.1,207.6 651.1,205.2 649.2,207.6 652.8,217.3 
		652.9,217.4 652.8,217.5 650.2,226.8 654.2,229.5 654.3,229.6 654.3,229.7 656.5,237.7 656.6,237.9 656.4,238 653.5,239.3 
		653.7,243.1 653.7,243.1 653.7,243.2 652.2,247.1 652.2,247.2 652,247.2 646.1,247.6 645.7,252.1 645.7,252.3 645.5,252.3 
		635.4,256.2 635.4,267.9 635.4,268 635.3,268.1 633.1,270.8 638.2,274.3 638.3,274.4 638.3,274.6 635.5,280 640.6,283.3 
		640.7,283.4 640.7,283.4 642,286.5 642,286.7 641.9,286.8 639.1,289.7 641.1,295.4 649.3,291.1 649.5,291 649.6,291.2 652.3,294.1 
		652.4,294.2 652.3,294.3 648.3,303.1 648.8,307.3 648.8,307.4 648.6,307.5 645.6,309.2 645.8,312.7 652.6,312.7 652.7,312.7 
		652.8,312.8 655.8,317.4 659.2,317.2 664.7,312.1 665.6,308.4 665.6,308.2 665.8,308.2 670,308.2 671.2,305.6 671.3,305.4 
		671.5,305.5 674.4,305.9 674.6,305.9 674.6,306.1 677.3,314.4 677.4,314.6 677.3,314.7 675.5,316.5 675.4,316.5 675.3,316.5 
		668.7,317.6 670.3,321.1 670.4,321.3 670.3,321.4 667.6,324.3 667,328 667,328.1 666.9,328.1 663,332.7 664.7,334.8 664.8,334.9 
		664.7,335.1 662,338.6 662,342.9 669.1,346.4 669.2,346.5 669.2,346.5 674.9,354.4 678.4,351 678.5,350.9 678.6,350.9 686.2,351.1 
		686.3,351.1 686.4,351.1 689.8,353.9 699.9,350.4 700.3,350.3 700.2,350.7 699.2,355 702.7,360.7 701.3,364.9 703.5,371 
		707.1,370.1 705.7,367.2 705.6,367.1 705.7,367 707.8,364.2 707.9,364.1 708,364.1 716,363.5 720.6,360.4 720.1,355.6 720.1,355.4 
		720.3,355.4 723.8,355.2 724.8,348.3 720.2,347.9 720.1,347.9 720,347.9 716.8,344.4 716.6,344.2 716.9,344 722.2,340 722.4,339.9 
		722.5,340 727.2,343.4 727.3,343.4 727.3,343.5 727.9,346.7 730.3,347.4 731.5,332 729.8,327.2 722.2,311.8 719.8,308.8 
		717.5,297.9 716,294.3 715.8,293.9 715.5,293.7 	"/>
	<polygon class="st2" points="698.7,354.9 699.7,351 689.8,354.4 689.7,354.4 689.5,354.3 686.1,351.6 678.7,351.4 675,354.9 
		670.3,362.1 674.2,368.3 678.4,371.9 687.3,367.6 688.4,364 695.1,356.5 	"/>
	<polygon class="st2" points="668.8,346.8 661.7,343.3 661.5,343.2 661.5,343 661.5,338.6 661.5,338.5 661.6,338.4 664.2,335 
		662.5,332.9 662.4,332.7 662.5,332.5 666.5,327.9 667.2,324.1 667.2,324 667.2,324 669.8,321.2 668.1,317.5 668,317.2 668.3,317.2 
		675.2,316.1 676.8,314.4 674.2,306.4 671.6,306 670.3,308.5 670.3,308.7 670.1,308.7 666,308.7 665.2,312.3 665.2,312.4 
		665.1,312.4 659.5,317.6 659.4,317.6 659.3,317.6 655.7,317.9 655.6,317.9 655.5,317.8 652.4,313.2 645.6,313.2 645.4,313.2 
		645.4,312.9 645.1,309.1 645.1,308.9 645.3,308.9 648.3,307.2 647.8,303 647.8,303 647.9,302.9 651.8,294.3 649.4,291.6 
		632.8,300.2 633.2,302.8 633.3,302.9 633.1,303 629.5,304.4 629.4,304.4 629.4,304.4 626.3,303.7 615.6,308.6 615.4,308.7 
		615.3,308.6 612.7,306.4 605,309.3 604.8,309.4 604.7,309.3 600.8,306.2 594.6,306 592,308.6 591.9,308.7 591.7,308.6 588.9,306 
		587.1,307.7 586.9,307.8 586.7,307.7 583.3,304.9 578.9,306.6 574.7,309.4 580,312.9 580.2,313.1 580.1,313.3 578.5,315.5 581,318 
		585.4,315.5 585.6,315.4 585.8,315.6 587.9,319.4 591.3,318.5 591.6,318.5 591.6,318.8 592.1,325.5 595.6,327.5 595.8,327.6 
		595.7,327.8 593.7,330.6 599.3,338.9 608.1,334.3 614.9,336.7 623.2,335.4 635.2,347.3 650,362.7 655.9,360.3 659.6,362 
		662.2,360.7 667.1,362.3 669.8,361.9 674.5,354.8 	"/>
	<polygon class="st2" points="755.3,329.9 750.8,327.9 745.7,324.3 742.5,315.9 740.6,310.6 744.6,308.4 751.9,308 735.4,296.9 
		723.8,286.4 718.4,276.4 711.1,271.3 707.7,267 705.4,268 704.9,270.5 709.2,273.5 711.5,277 710.2,278.7 708.1,278.2 707.5,281.2 
		711.7,284.3 715.8,293.9 723.5,298 726,304.6 729.8,309.4 734.4,316.7 737.6,322.1 741.4,324.9 742.6,328.3 743.6,331.3 
		748.3,333.6 749,338.3 753.8,344.4 754.2,339 753.6,335 757.3,334.7 758.8,334.1 762.3,335.9 759.4,329.9 	"/>
	<polygon class="st2" points="95.8,245.2 95.8,245.2 98.2,246.8 100.5,245.3 100.5,245.2 100.6,245.2 104,245.4 107.5,243.2 
		107.9,240.5 107.9,240.3 108.2,240.3 112.1,240.9 114.2,240.2 114.4,240.1 114.5,240.3 116.1,243.4 119.6,244.7 120.4,244 
		120.6,240.1 118.3,238.4 118.2,238.3 118.2,238.2 118.1,235.7 116.6,234.3 114.4,232.7 114.3,232.6 114.3,232.5 114.6,228.7 
		110.2,225.3 110.1,225.2 110.1,225.1 109.7,222.5 108.1,221.7 107.9,221.7 107.9,221.5 107.9,219.9 107.3,218.7 104.8,218.5 
		104.3,219.6 104.3,219.7 104.2,219.7 103.1,219.9 103,219.9 102.9,219.8 102.2,219 101.2,219 99.5,220.4 99.5,223.2 99.5,223.3 
		99.5,223.4 98.5,224.7 99.4,225.3 99.5,225.4 99.5,225.5 99.5,226.8 99.6,227.1 99.3,227.1 97.5,227 96.8,228.2 97.3,230.7 
		97.3,230.8 97.2,230.9 91.6,236.6 92.7,238.7 92.5,243.5 	"/>
	<polygon class="st2" points="87.3,223 87.5,228.7 91.4,236.1 96.8,230.7 96.3,228.3 96.3,228.2 96.3,228.1 97.1,226.6 97.2,226.5 
		97.4,226.5 99,226.6 99,225.6 98.1,224.9 97.9,224.8 98,224.6 99.1,223.1 99.1,220.4 95.5,216.7 91.9,216 91.9,216 91.8,216 
		89.3,214.3 89.2,214.2 89.2,214.1 88.5,212 87.3,211.8 86,212.5 85.8,212.6 85.7,212.5 83.1,210.2 81.2,212.5 80.3,214 80.7,215.9 
		82.6,216.9 82.4,219.9 	"/>
	<polygon class="st2" points="86.5,197.5 84.3,198.5 83.3,200.5 81.7,200.9 81.6,203.5 83.8,204.8 83.3,209.7 85.9,212 87.1,211.3 
		87.2,211.3 87.3,211.3 88.8,211.5 88.9,211.6 89,211.7 89.6,213.9 92,215.5 95.6,216.3 95.7,216.3 95.8,216.3 99.3,220 
		100.9,218.5 101,218.5 101.1,218.5 102.3,218.5 102.5,218.5 102.5,218.6 103.2,219.4 103.9,219.3 104.3,218.3 102.7,216.2 
		102.7,216.1 102.7,216 102.5,213.9 100.8,213.4 100.7,213.3 100.7,213.2 100.2,212.1 100.2,212.1 100.2,212 100.2,210.3 
		99.4,209.2 99.3,209.1 99.3,209.1 99.3,205.3 93.6,197.8 	"/>
	<polygon class="st2" points="82.6,185.1 84.7,186.8 85.5,190.5 87.9,190.2 90.6,190.8 90.6,192.6 87.2,197.1 93.6,197.3 
		101.7,191.4 101.1,190.4 101,190.3 101,190.2 101,188.9 101,188.8 101.1,188.8 102.1,187.8 102.1,187.8 102.1,187.8 103.5,187 
		103.3,185.9 101.7,185.8 100.8,186.5 100.7,186.6 100.5,186.5 99.1,185.7 99,185.6 99,185.6 98.1,183.9 98.1,183.8 98.1,183.8 
		98,182.2 98,182.1 98,182.1 98.9,180.6 95,180.4 95,180.4 94.9,180.3 94.6,180.1 91,179.8 88.4,177.3 88.6,175 86.2,174.4 
		84.7,178 79.5,182.4 79.9,185.3 	"/>
	<polygon class="st2" points="99.2,180.1 100.9,179.4 100.9,179.4 101,179.4 104.3,179.5 106,177.8 106.1,177.8 106.2,177.8 
		108.6,177.9 108.8,177.9 108.8,178.1 109.8,181.5 110.7,181 110.8,181 110.9,181 112.7,181.2 112.8,181.3 112.8,181.4 113.7,182.6 
		118.4,182.1 121.1,180.4 124.2,175.9 124.4,174.9 122.2,172.3 122.2,172.2 122.2,172.1 121.9,169.8 116.6,168.9 116.6,168.9 
		116.5,168.8 114,167 113.9,166.9 113.9,166.9 110.6,160.6 110.6,160.6 110.6,160.6 109.5,158.1 108.5,157.5 106.5,158 106.4,158.1 
		106.4,158.1 105.9,158 105.3,159 101,161.5 98.8,165 96.5,169.9 96.2,173.8 96.9,176.1 95.2,178.2 95.1,179.8 95.1,179.9 	"/>
	<polygon class="st2" points="99.7,205 99.8,205.1 99.8,205.2 99.8,209 100.6,210 100.6,210.1 100.6,210.2 100.6,212 101.1,212.9 
		102.8,213.5 105.4,213.6 106.3,212.2 106.3,212.1 106.3,212.1 111.3,208.1 111.8,204 109.7,202 109.6,202 109.6,201.9 108.5,199.5 
		108.5,199.5 108.5,199.4 108.6,195.3 102,191.8 94.1,197.6 	"/>
	<polygon class="st2" points="117.5,220.9 117.5,220.8 117.6,220.8 121.3,219.1 123.4,217.1 123.5,214.7 123,213.1 121,211.6 
		121,211.5 121,211.5 120.3,209.8 118.5,209.6 115.6,210.9 115.5,211 115.5,211 113.4,210.7 113.3,210.7 113.3,210.7 111.5,208.5 
		106.7,212.4 105.8,214 105.7,214.1 105.6,214.1 103,214 103.2,215.9 104.7,218.1 107.4,218.2 107.6,218.2 107.6,218.3 108.4,219.7 
		108.4,219.8 108.4,219.8 108.4,221.4 110.1,222.1 110.2,222.2 110.2,222.3 110.6,224.9 114.9,228.3 117,227.3 117.5,226 
		117.2,223.9 116.6,222.7 116.5,222.5 116.6,222.4 	"/>
	<polygon class="st2" points="124.1,239.2 130.5,235.8 131.3,234.7 131.4,229.4 131.4,229.4 131.4,229.4 132,225.7 132,225.7 
		132.1,225.6 134.9,222.3 132.6,219.8 131.3,220.6 131.3,220.7 131.2,220.7 130.1,221 130,221 129.9,221 128.1,220 128,219.9 
		128,219.9 126.4,217 123.9,216.8 123.9,217.2 123.9,217.3 123.8,217.4 121.6,219.4 121.5,219.5 121.5,219.5 117.9,221.2 
		117.1,222.6 117.6,223.7 117.6,223.8 117.7,223.8 118,226 118,226.1 118,226.1 117.4,227.6 117.3,227.7 117.2,227.7 115.1,228.7 
		114.8,232.4 116.9,233.9 116.9,233.9 117,234 118.5,235.4 118.5,235.5 118.6,235.6 118.7,238.1 120.9,239.7 	"/>
	<polygon class="st2" points="111.8,208.1 113.6,210.3 115.5,210.5 118.3,209.1 118.4,209.1 118.5,209.1 120.3,209.3 120.5,208.2 
		120.5,208.2 120.5,208.1 121.8,206.3 121.8,206.3 121.8,206.3 124.4,203.5 124.4,201.7 124.4,201.6 124.5,201.6 126.1,200 
		125.7,196.8 123.9,195.7 123.8,195.6 123.8,195.6 122.9,193.9 119,194 118,195.2 117.9,195.4 117.7,195.2 114.2,193.1 113.3,192.8 
		109.1,195.3 109,199.4 110,201.7 112.2,203.7 112.3,203.8 112.3,203.9 	"/>
	<polygon class="st2" points="123.9,216.4 126.6,216.5 126.7,216.5 126.8,216.6 128.4,219.6 130,220.5 131.1,220.2 132.5,219.3 
		132.7,219.2 132.9,219.3 135.3,222.1 137,222.7 138.5,222.6 143.5,218.1 143.5,218.1 143.6,218.1 146.2,216.2 145.6,214.6 
		144.6,211.8 139.4,203.1 136.3,203 135.2,204 135.1,204.1 134.9,204 133.7,203.2 133.7,203.2 132.5,202.3 131.9,202.8 131.8,202.9 
		131.8,202.9 129.6,203.4 129.5,203.4 129.4,203.4 128.2,202.9 127.4,203.6 127.3,203.7 127.2,203.7 124.8,203.8 122.2,206.6 
		120.9,208.3 120.7,209.5 121.4,211.2 123.3,212.8 123.4,212.8 123.4,212.9 123.9,214.6 124,214.6 124,214.7 	"/>
	<polygon class="st2" points="102.4,188.2 101.5,189.1 101.5,190.2 102.2,191.3 108.9,194.8 113.1,192.4 113.2,192.3 113.3,192.3 
		114.4,192.7 114.4,192.7 114.5,192.7 117.8,194.7 118.7,193.7 118.7,193.6 118.8,193.6 123,193.4 123.7,192.4 124.9,190.7 
		124.9,186.7 123,185.7 123,185.6 123,185.6 121.5,183.3 121.5,183.3 121.5,183.2 121.1,180.9 118.6,182.6 118.5,182.6 118.5,182.6 
		113.6,183.1 113.5,183.1 113.4,183 112.5,181.7 110.9,181.5 109.8,182.1 109.5,182.3 109.4,182 108.4,178.4 106.3,178.2 
		104.5,179.9 104.4,180 104.3,180 101,179.9 99.4,180.6 98.5,182.2 98.6,183.7 99.4,185.3 100.6,186 101.5,185.3 101.5,185.3 
		101.6,185.3 103.5,185.4 103.7,185.4 103.8,185.6 104,187.1 104,187.2 103.9,187.3 	"/>
	<polygon class="st2" points="122,183.1 123.3,185.3 125.3,186.3 125.4,186.4 125.4,186.6 125.4,190.8 125.4,190.9 125.3,190.9 
		124.1,192.7 124.1,192.7 123.4,193.6 124.2,195.3 126.1,196.5 126.2,196.5 126.2,196.7 126.6,200.1 126.6,200.2 126.5,200.3 
		124.9,201.8 124.9,203.3 127.1,203.2 128,202.4 128.1,202.3 128.3,202.3 129.6,202.9 131.6,202.4 132.3,201.8 132.5,201.7 
		132.6,201.8 134,202.8 135.1,203.5 136.1,202.6 136.2,202.5 136.2,202.5 139.5,202.7 140.7,200.8 141.5,198.5 140.7,197.8 
		140.7,197.7 140.7,197.7 139.3,195.9 139.2,195.8 139.2,195.8 138.1,192.2 138,192.2 138.1,192.1 138.9,189.6 138.9,189.5 
		138.9,189.5 141.6,186.4 141.6,186.4 141.6,186.4 143.3,184.9 143.6,183 141.5,180.5 136.5,180.6 136.4,180.6 136.4,180.5 
		130.8,177 130.7,176.9 130.7,176.8 130.9,174.7 130.2,174.3 129.6,174.9 129.6,174.9 129.5,175 124.8,175.6 124.7,176 124.7,176.1 
		124.7,176.2 121.6,180.6 	"/>
	<polygon class="st2" points="141.1,201 141.1,201 141.1,201.1 139.9,202.9 144.9,211.3 148.4,209.3 148.4,209.2 148.5,209.2 
		152.9,209.1 157.8,206.1 156.7,203.3 152,197.2 149.6,196.2 149.6,196.1 149.6,196.1 147.7,194.1 147.6,194 147.7,193.8 
		149.1,192.1 149.6,189.8 148.5,188.7 146.1,190.7 145.9,190.9 145.8,190.7 143.5,188.3 143.5,188.2 143.5,188.1 143.3,185.5 
		142,186.7 139.3,189.8 138.5,192.2 139.7,195.6 141.1,197.4 141.9,198.2 142.1,198.3 142,198.5 	"/>
	<polygon class="st2" points="149.5,192.2 149.5,192.3 149.5,192.3 148.2,194 149.9,195.7 152.2,196.8 152.3,196.8 152.3,196.9 
		157.2,203 157.2,203.1 157.2,203.1 158.2,206 159.8,205.7 160.9,204 161,203.9 161.1,203.9 164,203.7 164.1,203.7 164.2,203.8 
		165.3,204.8 167.2,203.8 167.7,197.4 164.8,195.9 164.7,195.8 164.7,195.7 164.6,193 163.2,191.9 161.1,192.6 161,192.6 
		160.9,192.5 153.9,188.8 149.7,189.3 150.1,189.6 150.2,189.7 150.1,189.8 	"/>
	<polygon class="st2" points="189,205.2 189.1,205.2 196.8,205.3 197,200.5 197,200.4 197,200.3 198.5,198.7 196.8,197 192.7,198 
		192.6,198 192.6,198 186.4,194.3 186.3,194.3 186.3,194.3 182.5,187.4 176.9,184 168.3,183.5 165.4,185.6 165.3,185.6 165.3,185.6 
		161.9,185.8 160.9,187.3 160.9,187.4 160.9,187.4 156.9,189.8 161.1,192.1 163.2,191.3 163.3,191.3 163.5,191.4 165,192.7 
		165,192.8 165,192.9 165.2,195.5 168.1,197.1 168.2,197.2 168.2,197.3 167.7,203.7 176.3,203.8 177.4,203.1 177.4,203 177.5,203 
		180.4,203.1 180.5,203.1 180.6,203.2 181.4,205.5 183.7,206.5 183.7,206.5 183.7,206.5 185.7,208.5 188.9,205.3 	"/>
	<polygon class="st2" points="116.6,150.9 115.8,154.6 115.8,154.6 115.7,154.6 114.1,157.2 114,157.3 113.9,157.3 110,158.1 
		111,160.4 114.3,166.6 116.8,168.4 122.1,169.3 122.3,169.4 122.3,169.5 122.6,172 124.8,174.6 124.9,174.7 124.8,174.8 
		124.8,175.1 129.3,174.5 130,173.9 130.1,173.7 130.3,173.8 131.2,174.3 131.4,174.4 131.3,174.5 131.2,176.6 136.6,180.1 
		141.6,180 141.8,180 141.8,180.1 144,182.6 147.7,181 147.2,179.2 147.1,179.2 147.1,179.1 148.3,172.9 148.3,172.6 148.5,172.7 
		151.7,172.9 155.8,169 155.2,164.3 151.3,164.3 151.3,164.6 150.9,164.2 146.6,160.4 144,160.5 143.9,160.5 143.8,160.5 
		140.7,157.9 140.6,157.9 140.6,157.8 140,155.5 137.7,153.8 136.9,154.5 136.5,156.6 136.4,156.8 136.2,156.8 130.5,156.3 
		130.4,156.3 130.3,156.3 128.4,154.6 122.8,153.1 122.7,153.1 122.7,153.1 119.8,150.9 119.7,150.9 119.7,150.9 118.2,149.4 	"/>
	<polygon class="st2" points="144.1,183.1 143.7,185 143.9,188 146,190.2 148.4,188.2 148.5,188.1 148.7,188.2 149.3,188.8 
		153.9,188.3 154,188.3 154.1,188.3 156.4,189.6 160.6,187 161.6,185.4 161.6,185.3 161.8,185.3 165.2,185.2 167.9,183.3 
		164.7,180.2 164.6,180.1 164.7,180 165.9,175.6 163.5,172.7 161.5,172.8 161.4,172.8 161.4,172.8 156.1,169.4 152,173.3 
		151.9,173.4 151.8,173.4 148.7,173.2 147.6,179.1 148.2,181 148.2,181.2 148.1,181.3 	"/>
	<polygon class="st2" points="213.3,312.6 213.3,312.5 213.2,312.5 212.4,310 212.4,309.9 212.5,309.8 214.5,308.2 215,306.7 
		214,304.6 208.8,303 206.4,303.7 205.2,306.6 205.1,306.8 204.9,306.7 201.8,306.4 201.7,306.4 201.6,306.4 198.8,303.5 
		193.5,302.3 193.4,302.3 193.4,302.2 192.2,300 192.2,299.8 192.3,299.7 194.3,297.5 193,296.2 193,296.1 193,296 193,294.6 
		193.1,294.4 193.2,294.4 195.1,293.8 195.3,290.6 192.6,290.7 191.3,291.6 191,291.8 190.9,291.4 190.5,287.6 190.4,287.4 
		190.6,287.4 191.8,286.9 192,284.6 190.7,283.3 190.7,283.2 190.7,283.1 190.8,277.8 189.4,275.7 189.3,275.6 189.3,275.6 
		189.3,268.5 187.9,265.3 187.9,265.2 187.9,265.2 188.5,262.3 186.6,260.2 186.6,260.5 186.6,260.5 185.6,263.8 185.6,263.8 
		185.6,263.8 184.8,265.2 184.8,265.3 184.7,265.3 179.2,268.4 177.8,271 177.7,271.1 177.7,271.1 173.8,272.3 173.8,272.3 
		173.8,272.3 171.8,272.6 167.9,276 167.9,276 167.8,276 162.2,276.5 162,276.7 161.9,279.6 163.4,283.4 165.3,283 166.6,281.9 
		169.3,283.2 169.2,285 168.4,286.7 169.3,287.7 171.9,288.6 173,292.3 174,296.9 172.8,299.7 174,302.1 177,300.3 178.3,300.7 
		179.2,302.6 179.9,306 181.8,307.4 184.2,305.9 186.4,306 190.6,307.8 190.4,309.8 191.4,311.4 193.5,311.8 195.1,309.9 197,311.8 
		199.3,313.2 198.8,316.8 199.3,318.9 201.7,321.5 203.6,322.2 205.6,321 207.2,321.5 208.3,323.9 213.2,325.5 215.3,323.9 
		217.3,320.9 213.6,312.8 	"/>
	<polygon class="st2" points="159.7,270 159.6,270 159.6,269.9 159.9,266.4 157.6,263.5 157.6,263.5 157.6,263.4 156.8,260.2 
		156.8,260.2 156.8,260.2 156.6,258.3 154.8,257.7 154.7,257.7 154.7,257.7 149.2,254.7 149.1,254.6 149.1,254.5 149,251.5 
		143.6,250.5 143.5,250.5 143.5,250.5 137.7,247.1 137.6,247.1 137.6,246.9 137.6,245 136.8,243.6 134,243.4 133.9,243.3 
		133.8,243.2 129.8,236.8 124.3,239.6 124.3,239.6 124.2,239.6 121.1,240.2 120.8,244.1 120.8,244.2 120.8,244.3 119.9,245.1 
		120.1,248.2 121.8,250.4 124.2,250.9 124.3,250.9 124.3,250.9 128.7,255.2 128.8,255.3 128.8,255.4 128.8,258.6 128.8,258.7 
		128.8,258.8 126.8,261 126.7,263.1 128.3,263.2 130.1,262.4 130.4,262.2 130.4,262.6 130.6,266.1 131.7,267.7 134.2,268.2 
		134.4,268.3 134.4,268.5 134.6,274.4 137.1,276.8 136.8,279.4 136.1,281.5 137.6,284.1 140.5,282.8 141.9,279.9 143.6,278.1 
		147.6,278.9 149.9,277 151.4,276.9 152.6,277.8 156.6,277.6 159.6,276.8 161.7,276.3 161.8,276.2 161.9,274.4 161.6,272.9 	"/>
	<polygon class="st2" points="162.3,276 167.7,275.6 171.6,272.2 171.6,272.1 171.7,272.1 173.7,271.8 177.4,270.7 178.8,268.1 
		178.8,268.1 178.9,268 184.4,264.9 185.1,263.6 186.1,260.4 186.4,258.9 183.7,254.9 182.5,253.9 181.2,254.8 181.2,254.8 
		181.1,254.8 180,255 179.9,255.1 179.8,254.9 177.5,251.7 176.8,252.2 174,255.2 174,255.2 174,255.2 172.3,256.2 172.2,256.2 
		172.1,256.2 170,255.7 170,255.7 169.9,255.6 166.7,252.8 164.6,251.2 162.6,251.4 159.2,251.9 157.9,253.7 157.9,254.6 
		158.9,255.1 159.1,255.2 159,255.3 158.7,257.5 158.7,257.6 158.5,257.7 157.1,258.3 157.3,260.1 158.1,263.3 160.3,266.1 
		160.4,266.2 160.4,266.3 160.1,269.8 162.1,272.7 162.1,272.7 162.1,272.8 162.3,274.3 162.3,274.4 162.3,274.4 	"/>
	<polygon class="st2" points="154.9,257.3 156.9,257.9 158.2,257.3 158.5,255.4 157.5,254.9 157.4,254.9 157.4,254.7 157.4,253.6 
		157.4,253.6 157.5,253.5 158.9,251.5 159,251.4 159.1,251.4 162.5,251 162.5,250.9 164.6,250.7 164.7,250.7 164.8,250.8 167,252.4 
		167,252.4 167,252.4 170.2,255.2 172.2,255.7 173.7,254.8 176.5,251.9 176.5,251.8 176.5,251.8 177.2,251.3 175.1,248.7 175,248.6 
		175.2,248.4 176.1,247.4 175.9,245.1 171.7,244.9 171.5,244.8 171.5,244.8 169.1,241.3 166,241.2 165.9,241.2 165.8,241 
		164.7,238.3 161.4,234.4 161,234.9 160.4,237.9 160.4,237.9 160.4,237.9 159.6,239.1 159.5,239.2 159.3,239.2 154.3,237.4 
		154.3,242.7 154.3,242.8 154.2,242.8 153.1,244 154.1,245.9 154.1,246 154.1,246.1 153.7,247.4 153.6,247.4 153.6,247.5 
		149.5,251.4 149.5,254.3 	"/>
	<polygon class="st2" points="138.1,246.8 143.7,250.1 149.2,251 153.2,247.2 153.6,246.1 152.6,244.1 152.5,244 152.6,243.9 
		153.8,242.6 153.8,237.3 151.8,237.2 151.7,237.1 151.6,237 150.3,234.1 147.1,233.5 146.1,234.4 145.9,234.6 145.7,234.3 
		143.8,231.1 143.8,231.1 143.8,231 143.5,227.4 140.2,227.4 140,227.4 140,227.3 138.5,223.1 137,223.1 137,223.1 136.9,223.1 
		135.3,222.6 132.5,225.9 131.9,229.4 131.8,234.8 131.8,234.9 131.8,234.9 130.9,236.2 130.9,236.2 130.8,236.3 130.2,236.6 
		134.2,242.9 137,243.2 137.1,243.2 137.2,243.3 138.1,244.9 138.1,244.9 138.1,245 	"/>
	<polygon class="st2" points="143.7,226.9 143.9,226.9 143.9,227.2 144.2,230.9 146,233.8 146.9,233.1 147,233 147.1,233 
		150.5,233.6 150.6,233.6 150.7,233.7 152,236.7 153.8,236.8 153.8,236.7 154.1,236.8 159.3,238.6 159.9,237.7 160.5,234.8 
		160.5,234.7 160.6,234.7 161.2,233.9 162.3,232 162.4,230.8 160.9,229.9 160.8,229.9 160.8,229.8 160.6,228.2 159.7,227.7 
		159.2,228.5 159.2,228.6 159,228.6 155.5,228.8 155.1,229.7 155.1,229.9 154.9,229.9 153.1,229.6 153,229.6 152.9,229.5 151,226 
		151,225.9 151,225.9 150.5,220.7 146.5,216.6 143.9,218.5 138.9,222.9 140.4,226.9 	"/>
	<polygon class="st2" points="165.2,238.1 165.2,238.1 165.6,239.3 168.2,238.5 168.2,238.5 168.2,238.5 171.5,238.1 171.9,235.5 
		171.9,235.4 172,235.4 173.7,234.4 173.8,234.4 173.8,234.4 177.2,233.5 177.6,230.6 176.6,225.6 170.1,223.5 166.4,224.5 
		166,228.4 166,228.5 165.9,228.6 162.9,230.8 162.8,232.1 162.8,232.2 162.8,232.2 161.7,234 165.1,238 	"/>
	<polygon class="st2" points="153,209.6 153,209.6 148.6,209.7 145.1,211.8 146,214.4 146.7,216.2 150.9,220.4 151,220.5 151,220.6 
		151.5,225.8 153.3,229.1 154.8,229.4 155.1,228.4 155.2,228.3 155.4,228.3 158.9,228.1 159.4,227.3 159.5,227.1 159.8,227.2 
		160.9,227.9 161.1,227.9 161.1,228.1 161.3,229.6 162.6,230.3 165.5,228.2 165.9,224.3 165.9,224.2 166.1,224.1 169.9,223 
		170,217.4 170,217.1 170.3,217.1 173.7,217 175.5,215.5 175.7,215.4 175.8,215.5 179.5,217.8 182.4,213.7 182.6,213.5 182.8,213.7 
		186.2,216.2 188.6,215.1 189.7,213.9 187.6,211.2 183.4,206.9 181.1,205.9 181,205.8 180.9,205.7 180.2,203.6 177.6,203.5 
		176.5,204.2 176.5,204.2 176.4,204.2 167.5,204.2 165.4,205.3 165.3,205.4 165.1,205.3 164,204.2 161.3,204.4 160.1,206 
		160.1,206.1 160,206.1 158.1,206.5 153.1,209.5 	"/>
	<polygon class="st2" points="177.7,233.3 179.5,232.6 179.5,232.6 179.5,232.6 185,231.8 185.1,231.8 185.1,231.8 189,233.1 
		189.1,233.1 189.2,233.2 190.4,235.2 192.4,233.3 192.2,229 191.3,226.9 188.7,223.9 181.8,222.7 181.8,222.7 181.7,222.7 
		180.1,221.4 180,221.3 180,221.2 179.4,218.3 175.7,216 173.9,217.4 173.9,217.5 173.8,217.5 170.5,217.6 170.3,223 176.9,225.2 
		177,225.2 177.1,225.3 178,230.6 178,230.6 178,230.7 	"/>
	<polygon class="st2" points="188.4,265.2 189.7,268.2 190.3,268.2 191.2,266.3 192.2,263.9 192.3,263.7 192.5,263.8 194.3,263.8 
		194.3,263.8 194.4,263.9 196.8,265.3 197.4,264.5 196.9,261.9 195.2,260.2 195.2,260.1 195.2,260 195.6,257.3 195.6,257.1 
		195.8,257.1 200.3,257.7 203.9,256.5 204.4,253.5 203.1,253.3 203,253.3 202.9,253.3 202.1,252.3 201.9,252.1 202.1,251.9 
		204,250.5 204.1,249.9 202.5,249.7 202.3,249.7 202.3,249.5 202,248.4 202,248.3 202.1,248.3 203,246.5 202.4,246.1 199.2,247.8 
		199.1,247.9 199,247.9 195.2,247.1 195.1,247.1 195.1,247 193.5,244.4 193.4,244.4 193.4,244.3 192.4,241.2 192.4,241.2 
		192.4,241.1 192.4,234 190.5,235.8 190.3,236 190.1,235.7 188.8,233.5 185,232.3 179.6,233.1 177.7,233.9 177.7,233.9 177.5,233.9 
		173.9,234.8 172.3,235.7 172,238.4 172,238.5 171.8,238.6 168.3,239 165.8,239.7 166.2,240.7 169.2,240.9 169.3,240.9 169.4,241 
		171.8,244.4 176.1,244.7 176.3,244.7 176.3,244.9 176.5,247.4 176.6,247.5 176.5,247.6 175.7,248.6 177.6,251 177.6,251 
		177.8,251.2 180.1,254.5 181,254.3 182.4,253.4 182.5,253.3 182.7,253.4 184,254.6 184,254.6 184.1,254.6 186.9,258.8 187,258.8 
		186.9,259 186.8,259.6 189,262.1 189.1,262.2 189,262.3 	"/>
	<polygon class="st2" points="204.5,250.7 204.5,250.8 204.4,250.9 202.6,252.2 203.2,252.9 204.6,253.1 206.9,253.1 209.2,251 
		209.3,245.8 209.3,245.5 209.5,245.5 211.6,245.7 213.8,243.3 215.1,239.8 215.2,239.7 215.2,239.7 217.3,237.4 219.7,231.2 
		218.5,230.2 218.5,230.2 218.5,230.2 217,228.5 215.1,228.9 215,228.9 214.9,228.8 212.4,226.5 208.4,226.3 208.4,227.7 
		208.4,227.7 208.2,229.6 208.1,229.7 208.1,229.8 205.2,232.1 205.1,232.2 205,232.1 202.7,231.1 201,231 199.2,237.4 199.2,237.6 
		199,237.6 195.2,238.2 193.4,242.7 193.9,244.2 195.4,246.6 199,247.4 202.3,245.6 202.4,245.5 202.6,245.6 203.5,246.3 
		203.7,246.4 203.6,246.6 202.5,248.4 202.7,249.2 204.4,249.4 204.7,249.5 204.6,249.7 	"/>
	<polygon class="st2" points="230.9,271.2 231.2,268.8 230,268.6 229.9,268.6 229.9,268.6 225.4,266.6 225.4,266.6 225.4,266.5 
		223.4,265 223.4,265 223.4,264.9 222.7,262.8 220.8,263.2 220.7,263.3 220.6,263.1 219.7,262 219.7,262 219.7,261.9 219.4,259.9 
		219.4,259.9 219.1,258.7 217.1,258.2 216.9,258.2 216.9,258 216.7,255.3 211.9,255.1 211.6,255.1 211.6,254.9 211.6,251.3 
		209.5,251.4 207.2,253.5 207.1,253.6 207,253.6 204.8,253.6 204.3,256.7 204.3,256.9 204.2,256.9 200.4,258.1 200.3,258.1 
		200.3,258.1 196,257.6 195.7,259.9 197.3,261.6 197.4,261.7 197.4,261.7 197.9,264.6 197.9,264.7 197.8,264.7 197.1,265.8 
		196.9,266 196.7,265.9 194.2,264.3 192.6,264.2 191.6,266.5 191.6,266.5 190.7,268.5 190.6,268.7 190.5,268.7 189.8,268.7 
		189.8,275.5 191.3,277.6 191.3,277.6 191.3,277.7 191.2,283 192.4,284.4 192.5,284.5 192.5,284.6 192.3,287.1 192.3,287.2 
		192.2,287.3 191,287.8 191.3,291 192.4,290.3 192.4,290.3 192.5,290.3 195.6,290.1 195.8,290.1 195.8,290.4 195.6,294 195.6,294.2 
		195.4,294.2 193.5,294.8 193.5,295.9 194.8,297.3 195,297.5 194.8,297.7 192.7,299.9 193.8,301.9 199,303.1 199,303.1 199.1,303.1 
		201.9,306 204.8,306.2 206,303.4 206.1,303.2 206.2,303.2 208.6,302.6 209,300.4 209.3,298.1 209.3,297.9 209.5,297.9 212.6,297.2 
		212.9,294.7 212.9,294.6 213,294.6 215.5,290.1 215.6,290.1 215.6,290.1 220,287.6 220.1,287.6 220.2,287.6 222.4,288.7 
		223.4,288.7 224.2,285.9 224.2,285.8 224.4,285.8 226.5,285.1 227.7,284.2 226.1,282.4 225.1,282.9 223.5,283.7 223.4,283.8 
		223.3,283.7 216.4,281.4 216.3,281.4 216.3,281.4 214.7,280.1 214.6,280.1 214.6,280 212.8,275.9 212.8,275.8 212.8,275.7 
		213.6,273.3 213.6,273.2 213.7,273.2 217,271.2 217.1,271.1 217.1,271.1 219,271.3 219.1,271.3 219.1,271.4 220.6,273.3 
		220.6,273.4 220.6,273.4 220.7,276.6 222,277.7 223.7,276.9 223.8,276.8 223.9,276.9 225.5,277 225.5,277 225.6,277.1 226.6,277.8 
		226.6,277.8 226.7,277.8 229.1,280.2 230.3,279.6 231.1,278 229.6,275.9 229.5,275.9 229.5,275.8 229.3,274.2 229.3,274.2 
		229.3,274.1 	"/>
	<polygon class="st2" points="211,188.3 208.1,188.8 204,191.5 203.9,191.5 203.8,191.5 200.1,191.4 199.6,192.7 202.2,195.1 
		202.4,195.3 202.3,195.5 199,198.8 199,198.8 197.4,200.6 197.3,205.6 197.3,205.8 197,205.8 189.2,205.7 186,208.9 188,210.9 
		188,210.9 188,210.9 190.2,213.7 190.3,213.9 190.2,214 189,215.5 188.9,215.5 188.9,215.5 186.3,216.7 186.2,216.7 186.1,216.7 
		182.7,214.2 179.8,218.2 180.5,221.1 182,222.3 188.8,223.5 188.9,223.5 189,223.5 191.7,226.6 191.7,226.6 191.8,226.7 
		192.7,228.9 192.7,228.9 192.7,229 192.8,233.4 192.8,233.6 192.8,233.6 192.9,241.1 193.2,242 194.8,237.9 194.9,237.7 195,237.7 
		198.8,237.1 200.6,230.6 200.6,230.5 200.8,230.5 202.8,230.6 202.9,230.6 202.9,230.6 205.1,231.6 207.7,229.4 207.9,227.6 
		208,226.1 208,225.8 208.2,225.8 212.5,226 212.6,226 212.6,226 215.1,228.4 217.1,228 217.2,228 217.3,228.1 218.8,229.8 
		220,230.8 222,228.5 223.6,226.4 221.8,224.8 221.7,224.8 221.7,224.7 221.7,222.1 221.7,221.9 221.8,221.9 228.6,219 228.4,215.4 
		224.3,210.1 221.1,211.5 221,211.6 220.9,211.5 211.8,208 208.7,211.5 208.6,211.6 208.4,211.5 206.9,210.3 206.8,210.3 
		206.8,210.1 206.8,204.7 206.1,202.9 206,202.7 206.1,202.6 213.5,194.4 213.1,190.9 	"/>
	<polygon class="st2" points="375.3,137.4 377.1,137.6 377.4,136.4 376.2,135.1 374.7,135.5 	"/>
	<polygon class="st2" points="381.1,146.8 383.2,147.6 385.4,147.2 384.5,143.9 381.8,145.4 	"/>
	<polygon class="st2" points="286.5,309.2 287.3,307.1 287.4,307 287.4,307 291.7,302.9 292.3,299.9 292.4,299.8 292.4,299.8 
		295,296.9 295.1,296.8 295.2,296.9 298.4,297.5 299.3,296.2 299.8,293.9 298.9,291.4 296.2,290.4 296.1,290.3 296,290.2 
		295.6,288.7 295.6,288.6 295.7,288.5 297,286.9 297.4,282.9 297.4,282.9 297.4,282.8 302.1,278.3 302.2,278.1 302.4,278.3 
		305,280.9 305.1,281 305,281.2 303.6,283.2 305.4,283.5 305.4,283.6 305.5,283.6 310.2,286.9 313.7,286.4 313.8,286.4 313.9,286.4 
		317.2,288.3 320.5,288.4 324.9,285.4 317,279.5 317,279.5 316.9,279.4 313.1,271.9 313.1,271.9 310.3,265.7 308.1,265.1 
		308.1,265.1 308.1,265.1 303.5,263.2 303.5,263.2 303.4,263.2 301.1,261 300.4,262.8 300.4,263 300.2,263 296.5,262.9 295.6,263.9 
		295.6,263.9 295.6,263.9 293.2,265.1 293.2,265.2 293.1,265.1 291.3,264.8 290.2,265.6 290.1,265.7 290,265.7 287.7,265.7 
		287.7,265.7 287.6,265.7 284.7,264.4 283.4,266.8 283.4,266.9 283.3,266.9 279.1,267.7 276.5,272.3 276.4,272.4 276.3,272.4 
		268.9,272.2 266.9,276.4 267,280.6 267,280.8 266.8,280.8 264.9,281.4 264.2,284.6 265.9,288.5 265.9,288.5 265.9,288.6 
		266.6,291.1 269.7,292.1 269.7,292.1 269.8,292.1 272.6,294.7 272.7,294.8 272.7,294.9 272.8,297.6 277,301.3 277.1,301.3 
		277.1,301.4 277.4,303.8 277.4,303.9 277.4,303.9 281,303.8 284,308.9 286.5,309.3 	"/>
	<polygon class="st2" points="272.4,297.9 272.3,297.8 272.3,297.7 272.2,295 269.5,292.5 266.3,291.5 266.2,291.5 266.1,291.4 
		265.4,288.7 263.7,284.8 263.7,284.7 263.7,284.6 264.4,281.3 260.9,279.6 258.3,280.9 258.1,281 258,280.9 255.9,278.1 
		251.4,276.6 246.2,278.2 246.5,279.6 246.5,279.6 246.5,279.7 246.4,284.3 246.4,284.4 246.3,284.5 239.3,289.7 239.2,292.2 
		244.4,295.4 244.6,295.5 244.5,295.7 242.5,299.3 249.8,301 254,303.7 256.5,301.7 260.2,303.7 272.4,306 276.9,304 276.9,303.9 
		276.6,301.6 	"/>
	<polygon class="st2" points="238.8,292.6 238.7,292.5 238.7,292.4 238.9,289.6 238.9,289.5 239,289.4 245.9,284.2 246,279.7 
		245.4,276.4 243.6,274.7 242.5,275.3 242.5,275.3 242.4,275.3 240.6,274.9 240.5,274.8 240.5,274.8 233,268.4 231.7,268.8 
		231.4,271.3 231.4,271.3 231.4,271.3 229.8,274.2 230,275.7 231.6,277.8 231.7,277.9 231.6,278 230.7,279.9 230.6,279.9 230.6,280 
		229.2,280.7 229,280.8 228.9,280.7 226.3,278.2 225.3,277.5 223.9,277.3 222.1,278.2 222,278.2 221.9,278.1 220.3,276.9 
		220.2,276.8 220.2,276.7 220.2,273.5 218.8,271.8 217.2,271.6 214.1,273.5 213.3,275.8 215,279.8 216.6,281 223.4,283.2 
		224.9,282.4 224.9,282.4 226,281.9 226.2,281.8 226.3,282 228.3,284 228.5,284.2 228.2,284.4 226.8,285.5 226.8,285.5 226.7,285.6 
		224.6,286.2 223.8,289 223.8,289.2 223.6,289.2 222.3,289.2 222.2,289.2 222.2,289.2 220.1,288.1 215.9,290.5 213.4,294.8 
		213,297.4 213,297.6 212.8,297.6 209.7,298.3 209.4,300.4 209.4,300.4 209.1,302.6 214.2,304.2 214.3,304.2 214.4,304.3 
		215.5,306.6 215.5,306.7 215.5,306.8 214.9,308.4 214.9,308.5 214.9,308.5 212.9,310 213.6,312.1 215.1,310.2 220.1,309.8 
		220.5,306.3 222.8,305 225.3,305.1 228.3,307.4 230.1,305.8 227.9,302.1 226.9,298.4 229.3,295.8 231.6,295.2 235,298.8 242,299.3 
		242,299.3 242,299.2 242,299.2 244,295.7 	"/>
	<polygon class="st2" points="268.5,271.8 268.6,271.7 268.7,271.7 276.1,271.9 278.7,267.5 276.8,264.7 276.8,264.6 276.8,264.5 
		277,261.8 277,261.8 277.7,256.9 272.7,253.6 272.6,253.6 272.6,253.5 271.7,251.3 271.7,251.2 271.8,251.1 274.6,247.6 274,244.6 
		274,244.6 273.1,239.3 273,239.2 273.1,239.1 275.5,235.7 275.4,231.8 272.6,225.1 267.9,222.3 267.8,222.3 267.8,222.2 267,218.9 
		265.7,217.6 264.4,219.7 263.5,221.8 263.5,221.9 263.5,221.9 259.3,227.4 259.3,227.5 259.3,227.5 253,233.6 253,233.7 
		252.9,233.7 247.6,236.1 247.5,238.5 249.2,241.7 249.3,241.9 249.2,242 246.9,244.7 246.5,248.2 246.5,248.2 246.5,248.3 
		245,250.1 244.9,250.2 244.8,250.2 239.8,250.5 239.1,253.6 239.1,253.7 239,253.8 236.9,255.1 236.7,255.2 236.6,255.1 
		234.6,252.9 231.8,257.3 231.8,257.4 231.6,257.4 227,257.9 223.1,262.5 223.8,264.7 225.6,266.1 230.1,268.1 231.5,268.3 
		233,267.9 233.2,267.9 233.3,268 240.7,274.4 242.4,274.8 243.5,274.1 243.6,274.1 243.8,274.2 245.8,276.2 245.9,276.2 
		245.9,276.3 246.2,277.7 251.3,276.1 251.4,276.1 251.5,276.1 256.1,277.7 256.2,277.7 256.2,277.8 258.3,280.4 260.8,279.2 
		260.9,279.1 261,279.2 264.7,280.9 266.5,280.4 266.4,276.4 266.4,276.3 266.4,276.3 	"/>
	<polygon class="st2" points="283.1,266.5 284.4,264 284.5,263.8 284.7,263.9 287.7,265.2 289.9,265.2 291.1,264.3 291.2,264.2 
		291.3,264.3 293.1,264.7 295.3,263.5 296.2,262.4 296.3,262.4 296.4,262.4 300,262.5 300.8,260.5 300.9,260.1 301.2,260.4 
		303.7,262.8 308.3,264.7 310.6,265.2 310.7,265.2 310.7,265.4 313.6,271.7 317.4,279.1 325.3,285.1 329.7,282.6 330.2,279.9 
		330.2,279.8 330.3,279.8 333,278 333.1,278 333.2,278 336.3,278.4 339,269.6 339,269.6 339.1,269.5 343,266.6 343.1,266.5 
		343.2,266.5 347.3,267.7 347.4,267.8 347.4,267.8 352.9,271.5 361.4,271.6 361.5,271.6 361.5,271.6 367.4,275.9 374.5,271.9 
		374.6,271.8 374.7,271.9 378.4,274.5 382.5,274 387.1,272.1 387.9,269.9 382.7,267 382.6,266.9 382.6,266.8 382.6,260.3 
		379.5,257.3 377.9,257.2 377.8,257.1 377.7,257 374.6,252.5 370.5,252.6 370.4,252.6 370.3,252.6 366.3,248.8 361.9,252 
		361.9,252.1 361.8,252.1 356.2,251.6 356.1,251.5 356.1,251.5 350.6,248.2 350.5,248.2 350.5,248.1 347.5,243.1 339.3,239.5 
		339.3,239.5 339.2,239.5 333.3,234.1 326.6,234.1 326.3,234.1 326.4,233.8 326.5,229.5 324.8,227.3 324.8,227.3 324.8,227.2 
		324.5,220.9 321.5,217.2 311.7,216.6 311.6,216.6 311.5,216.6 309.9,215.1 309.8,215 309.8,214.9 309.7,210.8 305.7,207.7 297,207 
		296.8,207 296.8,206.9 294.4,201.8 294.3,201.7 294.4,201.6 298,196.6 298.2,189 295.4,189.1 291.3,192.7 291.3,192.7 291.2,192.8 
		287.5,192.9 287.4,193 287.3,192.8 286.1,190.9 280.1,196.2 279.2,199.6 279.2,199.7 279.1,199.8 272.9,205.4 266,217.1 
		267.4,218.6 267.5,218.7 267.5,218.7 268.2,222 272.9,224.7 273,224.8 273,224.9 275.9,231.6 275.9,231.7 275.9,231.7 276,235.8 
		276,235.9 276,235.9 273.6,239.3 274.5,244.5 275.1,247.6 275.2,247.7 275.1,247.8 272.2,251.3 273,253.3 278.1,256.6 278.3,256.7 
		278.2,256.8 277.5,261.9 277.3,264.5 279.1,267.2 	"/>
	<polygon class="st2" points="121.6,144.3 121.3,146.4 121.3,146.6 121.1,146.6 119.6,146.7 119.2,148.2 119.2,148.3 119.2,148.4 
		118.5,149 120.1,150.6 123,152.7 128.6,154.1 128.6,154.1 128.7,154.2 130.6,155.9 136,156.3 136.4,154.3 136.4,154.2 136.5,154.2 
		137.6,153.4 137.7,153.2 137.8,153.3 140.4,155.2 140.5,155.2 140.5,155.3 141,157.6 144,160 146.6,159.9 146.7,159.9 146.8,159.9 
		150.9,163.6 151.1,161.7 150.4,159.4 148.5,157.4 148.4,157.3 148.5,157.1 150.3,154.4 149.9,151.4 148.3,148.2 148.3,148.1 
		148.3,148.1 148.7,145.9 147.2,145.6 147,145.6 147,145.5 146.6,144 143.8,143.9 143.7,143.9 143.6,143.8 142.8,142.3 142.8,142.2 
		142.8,142.1 143.5,140.7 143.4,139 141.2,138.3 140.6,139.1 140.5,139.2 140.4,139.2 138.9,139.1 138.8,139.1 138.8,139 
		137.3,137.7 134.9,138 134.8,138 134.7,137.9 133.3,135.5 131.8,134.7 129.1,136.1 128.9,136.2 128.8,135.9 128.1,133.7 
		126.9,134.6 126.2,136.5 126.3,142.6 126.3,142.8 126.1,142.8 	"/>
	<polygon class="st2" points="177.8,144.9 175.2,144.9 173.5,146.6 173.4,146.6 173.3,146.6 169.7,146.5 169.6,146.5 169.5,146.4 
		167.8,144.6 166.2,144.6 163.8,145.4 160,148.3 157.4,153.6 157.4,153.7 157.2,153.7 153,153.4 150.7,154.6 149,157.2 150.8,159.1 
		150.8,159.2 150.8,159.2 151.6,161.6 151.6,161.7 151.6,161.7 151.3,163.8 155.5,163.8 155.7,163.8 155.7,164 156.3,168.9 
		161.5,172.3 163.6,172.2 163.8,172.2 163.8,172.3 166.3,175.4 166.4,175.5 166.4,175.6 165.2,180 168.4,183 177,183.5 177.1,183.5 
		177.1,183.5 182.9,187 182.9,187 182.9,187.1 186.7,194 192.7,197.5 196.8,196.5 197,196.4 197.1,196.5 198.8,198.3 201.7,195.3 
		199.2,192.9 199,192.8 199.1,192.6 199.8,191 199.8,190.9 200,190.9 203.8,191 207.8,188.4 207.8,185.6 205,184.2 204.8,184.1 
		204.9,183.9 205.8,181.6 203.2,180.7 201.5,181.5 201.3,181.6 201.2,181.4 199.2,176.2 194.2,176 194.1,176 194,175.9 190.8,172.3 
		187.7,170.3 187.7,170.3 187.7,170.3 184.8,167.6 184.8,167.6 184.8,167.6 176.2,157.9 176.2,157.8 176.2,157.7 176.8,152.8 
		176.8,152.8 176.9,152.7 180,149.1 178,148.4 177.8,148.4 177.8,148.2 	"/>
	<polygon class="st2" points="103.4,151.7 106.5,152.5 107.2,155.8 106.2,157.5 106.4,157.6 108.5,157 108.6,157 108.6,157 
		109.7,157.6 113.7,156.9 115.3,154.4 116.2,150.7 116.2,150.6 116.3,150.6 118.8,148.1 119.2,146.5 119.3,146.3 119.4,146.3 
		120.9,146.1 121.2,144.1 121.2,143.9 121.3,143.9 125.8,142.4 125.7,136.4 125.7,136.4 125.7,136.3 126.5,134.4 126.5,134.3 
		126.5,134.3 128,133.1 129.4,128.6 127.5,125.6 127.5,125.5 127.5,125.4 127.3,121.7 124.8,122 120.7,125.1 118.4,128.4 
		113.8,128.1 111.1,132.7 107.8,133.1 107.7,136.6 102.9,139.7 103.1,144.3 105.1,146.8 102.9,149.5 	"/>
	<polygon class="st2" points="129.9,128.5 130,128.6 129.9,128.7 128.4,133.3 129.2,135.5 131.7,134.3 131.8,134.2 131.9,134.2 
		133.6,135.1 133.7,135.1 133.7,135.2 135,137.5 137.3,137.2 137.5,137.2 137.5,137.2 139,138.6 140.3,138.7 141,137.9 141.1,137.7 
		141.2,137.8 143.7,138.6 143.8,138.6 143.9,138.8 144,140.8 144,140.8 144,140.9 143.3,142.2 144,143.4 146.8,143.5 147,143.5 
		147,143.7 147.4,145.2 149.1,145.4 149.3,145.4 149.3,145.7 148.8,148.1 150.4,151.2 150.4,151.3 150.4,151.3 150.7,154.1 
		152.8,152.9 152.9,152.9 153,152.9 157.1,153.2 159.6,148 159.6,148 159.6,147.9 163.6,145 163.6,144.9 163.6,144.9 166.1,144.1 
		166.1,144.1 166.2,144.1 169.6,144.2 171.4,142.7 168.1,138.4 166,138 165.8,138 165.8,137.8 164.8,134.5 163.4,134.6 163.2,136.6 
		163.2,136.9 162.9,136.8 161.8,136.6 161.7,136.6 161.7,136.5 160.9,135.1 159.8,135.4 159.7,137.8 159.7,138.1 159.4,138 
		157.9,137.7 157.8,137.6 157.7,137.5 156.9,135.8 152.8,135.9 152.7,135.9 152.6,135.8 150.9,133.3 147.1,133.3 146.9,133.3 
		146.9,133.2 145.8,131.9 145.7,131.8 145.8,131.6 152.5,123.5 152.1,115.3 147.8,115.4 142.4,117.4 142.2,121.7 142.7,123.7 
		141.1,125 139.9,122 137.8,121.8 134.6,118.7 130.5,121.3 127.8,121.6 128,125.4 	"/>
	<polygon class="st2" points="205.6,91.8 205.5,91.9 204.8,95.7 208.8,97.8 208.9,97.8 208.9,97.8 209.6,99 210.7,92.3 212.3,94.5 
		211.6,99.2 213.6,103.4 214.1,110.3 216.8,114.5 217.5,118.8 227.7,125 233.9,123.8 238.6,117.4 239.9,110.6 237.8,102.5 
		238.1,90.8 236.8,86.5 233.5,81.2 233,77.2 234.4,76.3 236.4,79 238.4,77.7 236.5,74.2 229.6,69.5 219.7,68.6 217.7,70 212.8,72.9 
		212.9,76.8 209.5,82.3 202.8,82.4 200.6,85.2 205.5,91.7 	"/>
	<polygon class="st2" points="155.9,118.4 155.9,118.4 155.9,118.4 160,118.9 160.2,119 160.2,119 161.9,121.3 161.9,121.4 
		161.9,121.5 161.8,124.4 161.8,124.4 161.8,124.5 160.3,126.2 160.5,129.4 160.5,129.4 160.5,129.4 160.1,132.2 160.1,132.3 
		160,132.4 157.9,134 157.3,135.5 158.1,137.2 159.2,137.5 159.4,135.2 159.4,135 159.5,135 160.9,134.6 161.1,134.5 161.2,134.7 
		162.1,136.1 162.8,136.3 163,134.4 163,134.2 163.2,134.1 164.9,134 165.1,134 165.2,134.2 166.2,137.5 168.3,137.9 168.4,137.9 
		168.4,138 171.7,142.3 172.2,140.9 171.8,136.9 171.8,136.8 171.9,136.7 173.3,133.9 173.4,133.8 173.4,133.8 178.7,128.1 
		178.8,128 178.9,128 182.1,128.7 182.2,128.7 182.2,128.8 183.2,130.7 183.2,130.7 183.2,130.8 182.7,133.9 182.7,134 182.7,134.1 
		180.4,136.3 176.5,140.7 175.4,144.4 178,144.4 178.3,144.4 178.3,144.6 178.3,148 180.4,148.7 181.9,147 182,147 182.1,147 
		184,147 184.7,143.4 184.7,143.4 184.8,143.3 188.4,139.6 187.5,138.1 187.5,138.1 186.4,136.2 186.3,136.1 186.3,136 187.2,133.1 
		187.2,133 187.2,133 190.7,129.5 191,127.6 191.1,127.4 191.3,127.4 193.7,128.1 195.2,128.4 197.1,126.4 197.1,126.3 197.1,126.3 
		197.4,126.2 197.1,124 197.5,122.2 195.8,119.9 197.4,117 202.2,111 206.2,109.7 208.6,105.6 209.5,99.8 208.5,98.2 204.4,96.1 
		204.2,96 204.3,95.8 205,91.9 200.3,85.6 194.8,92.6 191.9,92.5 188.2,94.9 185.6,94.8 184.6,97.4 183.4,99.6 181.3,101.2 
		182.5,103.4 181.1,104.9 176.2,104.1 174.9,108.6 174,115.6 171.1,116.7 158.3,115 152.6,115.3 152.7,119 	"/>
	<polygon class="st2" points="223,188.3 222.8,191.8 222.8,191.9 222.7,192 220,194.1 219.9,194.1 219.7,194.1 216.3,192.7 
		213.9,194.7 206.6,202.8 207.3,204.5 207.3,204.6 207.3,204.6 207.3,210 208.5,211 211.6,207.6 211.7,207.4 211.8,207.5 221,211 
		224.2,209.6 226,205.1 226.1,204.9 226.3,205 232.4,205.5 232.5,205.5 232.5,205.6 237.1,210.7 242,213.3 249,214.1 251.7,212.5 
		251.9,212.5 252,212.6 259.5,218.7 264.1,219.4 272.5,205.1 272.5,205 272.5,205 278.7,199.4 279.7,196 279.7,196 279.8,195.9 
		286,190.4 286.2,190.2 286.3,190.4 287.6,192.5 291.1,192.3 295.1,188.7 295.2,188.6 295.3,188.6 301.6,188.5 306.1,184.7 
		306.2,184.7 306.3,184.7 315.2,184.3 317.6,181.5 317.6,181.5 317.7,181.5 321.2,180.3 323.3,177 322,172.5 321.9,172.4 322,172.3 
		323.6,169.4 321.9,169.1 320.8,170.7 320.7,170.9 320.6,170.9 318.5,170.9 315.7,173.4 315.6,173.5 315.5,173.5 312.2,172.7 
		309.7,175.6 309.6,175.7 309.5,175.7 302.1,176.3 302,176.3 301.9,176.2 269.6,153.2 266.5,154.1 266.4,154.1 266.4,154.1 
		252.4,152.6 247.6,158.8 249.3,161.4 249.3,161.6 249.3,161.7 248.2,163.7 249,167 249,167.2 248.9,167.3 245.8,169.1 245.7,169.1 
		245.5,169 241.6,166.5 237.8,166.7 237.6,166.7 237.5,166.5 236.9,163.7 227.3,156.3 226.3,157.9 228.9,162.3 229,162.3 229,162.4 
		228.1,166.2 228.1,166.2 228.1,166.3 225.8,168.6 226.8,170.3 226.9,170.4 226.9,170.4 227,172.4 227,172.6 226.8,172.6 223,172.8 
		220.1,176.7 219.9,179 223.5,180.5 225,178.7 225,178.6 225.1,178.6 228.5,177.5 228.7,177.4 228.8,177.6 230.9,181.8 231,182 
		230.8,182.1 	"/>
	<polygon class="st2" points="205.4,117.3 205,115.7 204,115 203.2,116.1 203,117.1 204,118.2 	"/>
	<polygon class="st2" points="301.8,119.6 301.8,116.8 299.8,116.4 300.1,120.8 	"/>
	<polygon class="st2" points="246.5,148.6 250.2,149.1 250.3,149.1 250.4,149.2 252.4,152.1 266.4,153.6 269.5,152.7 269.7,152.6 
		269.8,152.7 302.1,175.8 309.4,175.2 311.9,172.3 312,172.2 312.2,172.2 315.5,173 318.2,170.4 318.3,170.4 318.4,170.4 
		320.5,170.4 321.6,168.7 321.7,168.5 321.8,168.6 323.9,168.9 325.5,166 323.8,162.9 323.7,162.7 323.9,162.6 327,160 324.5,155.4 
		318,148.3 313,148.3 312.4,151.2 312.2,155.5 308.7,157.6 306.8,157.2 305.4,159.2 303,157.2 305.8,154.6 305.8,151.7 296.6,151.6 
		292,148.2 285,148.9 282.5,145.5 286.7,145.1 288.9,140.8 283.3,139.5 280.6,142.6 279.3,140.2 265,136.7 263.2,138.5 261.1,136.6 
		253.5,141 249.6,137.2 250.8,133.8 249.6,130.4 254.3,128.9 258.6,131.9 260.7,128.5 260.5,122.4 254.8,116.1 253.1,122.2 
		245.3,127.3 244.6,131.2 240.9,134.6 242.3,142.4 	"/>
	<polygon class="st2" points="310.3,142.9 312.6,146.7 315.5,146.4 315.7,142.5 314.6,138.5 310.9,139.4 	"/>
	<polygon class="st2" points="278.2,131.5 278.9,129.6 278.5,126.6 275.7,123.6 271.7,125 270.7,128.4 273,131.4 	"/>
	<polygon class="st2" points="303.5,120.9 300.7,123.7 302.9,128.4 305.3,128.7 305.4,130.9 308.2,131.5 310,132.4 311.2,120.8 
		312.2,116.4 316,112.2 320.6,110.7 322.4,108.1 321.3,104.9 324.7,107.1 327.7,106.7 328.5,104.5 330.5,104.6 330.6,102.3 
		333.1,103.2 333.5,100.9 335.4,102.9 336.7,101.1 337.2,98.4 339.8,100.2 341.5,98.7 345,99.4 347.9,96.1 370.2,95.6 375.5,92.7 
		376.1,88.7 373.8,86 368.5,87.4 367.6,89.3 358.4,88.6 354.4,85.2 350.9,87.2 347.4,85.7 343,88.6 339.3,88.6 337.5,90.1 
		335.1,87.5 333.8,92.9 331.1,93 330.8,95.1 323.9,97.3 321.5,96.2 319.9,98 321.9,100 319.2,102.6 314.8,100.8 314.1,104.2 
		310.9,104 310.8,106.6 306.4,108.9 303.6,108 300.6,110.3 300.4,113.6 303.3,116.5 	"/>
	<polygon class="st2" points="234.7,135.1 237.3,134.6 234,128.5 229.1,129.3 224.1,127.6 218,128.5 214.6,137 212.1,135.5 
		208.6,127.3 209.1,120.9 203.4,121.6 201.8,127.1 204.3,130.1 201.9,133.2 198.2,131.1 197.5,126.7 197.4,126.7 195.5,128.8 
		195.4,128.9 195.3,128.9 193.6,128.6 193.6,128.6 191.5,128 191.2,129.7 191.2,129.7 191.1,129.8 187.6,133.3 186.8,136 
		187.9,137.9 188.9,139.5 189,139.7 188.9,139.8 185.2,143.6 184.4,147.3 184.4,147.5 184.2,147.5 182.2,147.5 180.6,149.1 
		180.6,149.2 177.3,153 176.7,157.6 185.1,167.2 188,169.9 191.1,171.9 191.1,171.9 191.1,171.9 194.3,175.5 199.3,175.7 
		199.5,175.7 199.6,175.9 201.6,180.9 203.1,180.2 203.2,180.2 203.3,180.2 206.2,181.2 206.4,181.3 206.3,181.5 205.5,183.9 
		208.2,185.3 208.3,185.3 208.3,185.5 208.3,188.3 211.1,187.8 211.2,187.8 211.3,187.9 213.6,190.6 213.6,190.7 213.6,190.8 
		213.9,194 216.1,192.2 216.2,192.1 216.4,192.2 219.8,193.6 222.3,191.6 222.5,188.2 222.5,188.1 222.6,188 230.4,181.9 228.4,178 
		225.3,179.1 223.7,180.9 223.6,181.1 223.5,181 219.6,179.4 219.4,179.3 219.4,179.2 219.6,176.6 219.6,176.5 219.6,176.4 
		222.7,172.4 222.8,172.3 222.9,172.3 226.5,172.2 226.4,170.5 225.3,168.6 225.2,168.5 225.3,168.3 227.7,166 228.5,162.4 
		225.8,158 225.7,157.9 225.8,157.7 227.1,155.8 227.2,155.6 227.4,155.7 237.3,163.3 237.3,163.4 237.3,163.5 238,166.2 241.6,166 
		241.7,166 241.8,166.1 245.7,168.6 248.5,166.9 247.7,163.7 247.7,163.6 247.7,163.6 248.8,161.6 247.1,159 247,158.8 247.1,158.7 
		252,152.4 250,149.5 246.3,149.1 246.2,149.1 246.1,149 241.9,142.7 241.9,142.6 241.9,142.6 240.5,135 236.5,138.5 	"/>
	<polygon class="st2" points="372.1,44.3 371,45.9 372.6,47.4 374.9,45.5 373.7,43.9 	"/>
	<polygon class="st2" points="377.9,47.1 378.5,44.6 376.9,44.2 374.5,47.2 375.8,48.2 	"/>
	<polygon class="st2" points="385.9,44.3 383,43.1 380.4,45.2 380.3,46.9 382.4,48.8 386.7,46.7 	"/>
	<polygon class="st2" points="395.3,38.5 394.6,36.2 392.9,37.3 393.5,39.2 	"/>
	<polygon class="st2" points="387.8,33.4 389.1,32.4 387.2,30.6 386.2,31.4 386.8,32.5 	"/>
	<polygon class="st2" points="383.7,36.6 384.9,34.8 383.8,32.5 381.3,33.8 381.6,35.3 	"/>
	<polygon class="st2" points="388.1,46.4 388.6,48.6 392.9,48.5 394.6,45.7 393.2,43.4 391.4,46 388.6,45.3 	"/>
	<polygon class="st2" points="376.5,51.5 377.6,53.1 378.6,51.8 377.6,50.1 	"/>
	<polygon class="st2" points="365.9,40.3 367.7,43.3 369.7,41.3 368.7,38.9 	"/>
	<polygon class="st2" points="370.9,39.4 371.3,41.1 372.4,40.3 371.5,38.4 	"/>
	<polygon class="st2" points="371.6,30.4 369.6,28.6 369.1,29.8 370.4,31.6 	"/>
	<polygon class="st2" points="359.6,30 362.2,29.8 363.8,31.1 364.8,29.9 362.8,28.1 361,28.6 357.1,26.2 357.7,28.6 	"/>
	<polygon class="st2" points="363,32.4 363.1,32.3 361.1,30.5 360.6,31.7 361.4,32.8 360.5,33.1 357.6,32.3 357.6,32.8 357.5,32.8 
		355.8,34.1 353.4,34.4 352,35 349.2,34.2 349,36.3 350.9,38.3 352.8,40.7 353.4,39.6 352.9,37.2 355.6,36.6 358.9,37.8 359.7,36.9 
		361.3,38.8 361.9,37.7 361.4,35.4 364,34.8 367.4,35.9 369.5,33.8 367.6,31.5 365.9,30.9 364.2,32.2 	"/>
	<polygon class="st2" points="361.4,41.8 362.9,42.7 363,40.7 361.8,40.3 	"/>
	<polygon class="st2" points="75.8,119.9 76.2,109.4 73.6,105.4 72.4,110.1 69.8,108.5 67.7,102.2 65,103.9 61.4,103.7 70.3,122.8 	
		"/>
	<polygon class="st2" points="68,248.4 64.7,251.8 71.8,256 69.7,257.5 66.1,255.2 64,256.9 65.2,259.4 67.8,259.4 67.9,259.4 
		68,259.4 71.1,263.2 71.2,263.4 71.1,263.5 68.8,267.9 71.8,271.6 71.9,271.7 71.8,271.9 71.1,273.3 70.9,276.2 72.7,278.3 
		74.3,276.5 74.4,276.4 74.6,276.4 77.3,277.4 78.3,275.8 78.4,275.6 78.6,275.7 80.7,276.6 80.9,276.7 80.9,276.8 80.9,280.1 
		83.5,281.3 83.6,281.4 83.6,281.5 83.6,284.7 85,286.9 88.1,286.6 89.1,284.7 89.2,284.6 89.4,284.6 94.5,284.6 97.6,281.1 
		97.5,279.4 94.6,279.1 94.4,279 94.4,278.8 94.2,276.4 91.5,272.6 91.4,272.5 91.5,272.4 92.9,267.3 91.1,264.6 91,264.4 
		91.2,264.3 95,262.1 95.2,262 95.3,262.1 96.7,263.5 99.4,263.4 100.9,260.3 100.4,255.1 100.3,254.9 100.5,254.9 104.5,252.2 
		103.8,245.9 100.7,245.7 98.4,247.3 98.2,247.4 98.1,247.3 95.6,245.7 92.5,244 92.4,245.3 88.4,245.2 86.8,247.5 84.7,247.8 
		82.2,252.2 78.1,253.8 75.1,249.4 	"/>
	<polygon class="st2" points="131.5,268.2 131.4,268.2 131.3,268.1 130.1,266.4 130.1,266.3 130.1,266.2 130,263 128.4,263.6 
		128.4,263.7 128.3,263.7 126.4,263.5 126.2,263.5 126.2,263.3 126.3,260.9 126.3,260.8 126.4,260.7 128.3,258.5 128.3,255.5 
		124.1,251.3 121.6,250.8 121.5,250.8 121.4,250.7 119.7,248.5 119.7,248.4 119.7,248.3 119.4,245.2 115.8,243.9 115.7,243.8 
		115.7,243.8 114.2,240.7 112.2,241.3 112.2,241.4 112.1,241.3 108.3,240.8 108,243.4 108,243.5 107.9,243.6 104.3,245.8 105,252.3 
		105,252.5 104.9,252.5 100.9,255.2 101.4,260.3 101.4,260.4 101.4,260.4 99.7,263.7 99.7,263.8 99.5,263.8 96.6,264 96.5,264 
		96.4,263.9 95.1,262.6 91.7,264.6 93.4,267.1 93.4,267.2 93.4,267.3 92,272.4 94.6,276 101,276.7 101.6,274.9 101.7,274.7 
		101.9,274.8 104.1,274.9 104.2,275 104.3,275.1 105,278.4 107.4,278.7 109.6,277.4 109.7,277.3 109.8,277.3 117.5,278.9 117.6,279 
		117.7,279.1 119.7,282.7 124.1,281.2 124.8,277.8 128.6,275.7 132.6,274.7 134.1,274.2 134,268.7 	"/>
	<polygon class="st2" points="115.1,294 115.5,291.8 118.9,288.6 115.9,284.4 117.4,283.7 119.3,282.8 117.3,279.4 109.8,277.8 
		107.8,279.1 109.2,282.7 109.2,282.8 109.2,282.9 107.7,289.7 109.5,292.8 109.6,292.9 109.5,293 107.7,298.2 108.4,301.4 
		108.5,301.8 108.2,301.7 105,301.4 103.3,302.1 103.1,302.2 103,302 101.8,300.3 100.8,301.5 102.5,305.5 102.6,305.7 102.4,305.8 
		100.1,307.7 100.1,307.7 100.1,307.7 98.1,308.8 100.7,312.5 104.8,314 115.8,313.7 114.9,309.4 117.6,308.9 119.7,297.1 
		117.9,294.7 	"/>
	<polygon class="st2" points="97.4,308.6 97.6,308.5 99.9,307.3 102,305.5 100.3,301.6 100.2,301.4 100.3,301.3 101.7,299.7 
		101.9,299.5 102.1,299.7 103.3,301.6 104.9,300.9 104.9,300.9 105,300.9 107.9,301.2 107.2,298.3 107.2,298.2 107.3,298.1 109,293 
		107.3,289.8 107.2,289.7 107.2,289.6 108.7,282.8 107.3,279.2 104.7,278.9 104.6,278.9 104.5,278.7 103.8,275.4 102,275.3 
		101.4,277.1 101.3,277.3 101.1,277.2 94.7,276.6 94.8,278.6 97.7,278.9 97.9,279 97.9,279.2 98.1,281.1 98.1,281.3 98.1,281.3 
		94.8,285 94.7,285 94.6,285 89.5,285 88.5,286.9 88.4,287 88.3,287 84.8,287.4 84.7,287.4 84.6,287.3 83.2,284.9 83.1,284.9 
		83.1,284.8 83.1,281.7 80.6,280.5 80.4,280.4 80.4,280.3 80.4,277 78.6,276.2 77.6,277.9 77.5,278 77.3,278 74.6,276.9 73,278.7 
		74.8,280.9 76.6,280.6 76.8,280.5 76.9,280.7 78.1,282.4 80.5,283.1 80.7,283.1 80.7,283.3 81.8,286.1 84.3,290.5 84.4,290.6 
		84.3,290.6 83.6,294.9 86.3,299.7 86.3,299.8 86.3,299.8 87.2,303.6 87.2,303.6 87.2,303.7 87.1,307.5 91.2,311.6 91.2,311.7 
		91.2,311.7 92.1,314.1 96.2,314.2 100.1,312.4 97.5,308.8 	"/>
	<polygon class="st2" points="90.8,311.9 86.8,308 85.3,309.1 85.3,309.2 85.2,309.2 80.9,309 78.6,310.8 79.4,312.4 79.5,312.6 
		79.3,312.7 77.3,314 79.9,317.8 82.7,318.3 82.8,318.3 82.9,318.5 83.8,321.9 83.8,322.1 83.6,322.2 81.5,323.1 81.4,323.1 
		81.4,323.1 79.2,322.9 76.3,328.4 76.2,328.7 76,328.5 73.8,326.7 72.5,328.1 72.4,328.2 72.3,328.2 66.9,327.7 65.5,329.1 
		65.8,333 69.4,338.3 69.2,343.7 68.5,346.3 71.8,350.4 73.4,349.7 74.3,348.2 76.2,349.2 78.3,349.9 80.8,348.3 80.8,341.4 
		82.5,331.6 88.8,325.6 89.3,319.3 88.6,316.6 91.7,314.3 	"/>
	<polygon class="st2" points="65.8,322.8 66.7,325.3 67.1,327.2 72.2,327.7 73.6,326.2 73.7,326 73.9,326.1 76,327.9 78.8,322.6 
		78.9,322.4 79,322.4 81.3,322.6 83.3,321.8 82.5,318.7 79.7,318.2 79.6,318.2 79.5,318.1 75.8,312.8 72.9,312.6 71.5,313.2 
		73.1,319.2 73.1,319.4 73,319.5 	"/>
	<polygon class="st2" points="71.1,313.4 69.8,314 68.6,317.9 68.5,317.9 68.5,318 66.7,319.4 66.6,319.5 66.6,319.5 64,320.3 
		64.1,321.4 65.5,322.4 72.6,319.1 	"/>
	<polygon class="st2" points="68.1,317.7 69.4,313.7 69.4,313.6 69.5,313.6 72.4,312.3 70.1,310.5 69.3,311.9 69.2,312.1 69,312 
		63.1,310.6 58.6,312 58.5,312.1 58.7,316.6 64,319.1 64,319.8 66.4,319 	"/>
	<polygon class="st2" points="63.1,310.1 63.1,310.1 68.9,311.5 70.8,308.3 70,305.7 67.2,305.7 67.1,305.7 67.1,305.6 61.7,300.8 
		57.9,300.6 54.7,303.1 57.4,306.1 57.6,310.3 58.4,311.6 58.4,311.6 58.5,311.6 63,310.1 	"/>
	<polygon class="st2" points="57.7,300.1 57.8,300.1 61.5,300.3 61.4,296.4 61.4,296.3 61.5,296.2 63.5,294.9 60.6,289.5 
		59.7,291.4 59.6,291.6 59.4,291.6 56,291.2 55.9,291.2 55.8,291.1 53.9,288.5 48,290.6 51.2,296 51.2,299.2 54.4,302.7 57.7,300.2 
			"/>
	<path class="st2" d="M54.1,288l0.1,0.1l1.9,2.6l3.2,0.3l2.3-4.6l0-0.1l0.1,0l2.4-1l-0.9-1.4l-0.1-0.1l0.1-0.1l1.4-2.5l-1.5-1.3
		l-0.2-0.2l0.2-0.2l1.8-1.8l0.2-1.5l0-0.1l0.1-0.1l2-0.9l0.2-0.1l0.1,0.2l1.3,2.3l1.7-1.4l0.2-3l0,0l0,0l0.7-1.3l-3-3.7l-0.1-0.1
		l0.1-0.1l2.3-4.4l-2.9-3.6h-2.6h-0.2l-0.1-0.1l-1.6-3.1l-4.8-4.3l-0.7,6.3l-2.6-1.3l-5,0.3l-1.8,2.4l-3.7-6.1l-2.9,2.6l0.3,4.6
		l-1.4,1.7l0.7,2l2.1,1.6l-0.1,3.3l1.2,5.2l-0.4,4.8l-0.9,8l1,1.4l2.1-0.9l1.4,2.3l6.2-2.2L54.1,288z M51,287.1l-0.1,0.1l-0.2-0.1
		l-0.2-0.1l-3.4-1.6l-0.1-0.1l-0.1-0.1l0-0.1l0-0.1l-0.2-3.1l0-0.2l0-0.2l0.2,0l0.2,0l3.2-0.3v-1.9h0v-0.1v-0.1l0.1-0.1l0.1-0.1
		l3.6-2.7l-2.3-1.4h0l0,0l0,0l0,0l0,0v0l-2.9-3.4l-0.1-0.1l-0.1-0.1l0-0.1l0-0.1l0.4-2.7l0-0.3l0-0.3l0.3,0.1l0.3,0.1l2.5,0.9l0.1,0
		l0.1,0l0,0.1l0,0.1l2,3.2h2.8h0.2h0.2l0,0.2l0,0.2l0.2,2.9l2,1.7l0.1,0.1l0.1,0.1l0,0.1l0,0.1l-0.2,4l0,0.1l0,0.1l0,0.1l0,0.1
		l-2.9,3.8l-0.4,0.5l-0.4,0.5l-0.1-0.6l-0.1-0.6l-0.4-3.3l-4.5,5L51,287.1z"/>
	<polygon class="st2" points="83.8,290.6 81.3,286.4 81.3,286.4 81.3,286.3 80.3,283.5 77.9,282.9 77.8,282.8 77.7,282.8 
		76.6,281.1 74.7,281.4 74.6,281.4 74.5,281.3 70.6,276.6 68.8,278.1 68.6,278.3 68.5,278 67.1,275.7 65.5,276.4 65.3,277.9 
		65.3,278 65.2,278.1 63.6,279.7 65,281 65.2,281.1 65.1,281.3 63.7,283.9 64.7,285.4 64.9,285.6 64.6,285.7 62,286.8 60.9,289 
		64,294.8 64.1,295 63.9,295.2 61.9,296.5 62,300.5 67.3,305.2 70.1,305.2 70.3,305.2 70.4,305.4 71.3,308.3 71.3,308.4 71.3,308.5 
		70.4,310 72.9,312.1 76,312.3 76.1,312.3 76.1,312.4 77,313.6 78.9,312.4 78.1,310.8 78,310.7 78.1,310.5 80.7,308.5 80.8,308.5 
		80.8,308.5 85.1,308.7 86.6,307.5 86.8,303.7 85.9,299.9 83.2,295.1 83.1,295 83.1,294.9 	"/>
	<polygon class="st2" points="56.1,281.3 56.5,285.2 59.4,281.4 59.6,277.4 57.5,275.6 57.4,275.6 57.4,275.4 57.3,272.5 
		54.3,272.5 54.2,272.5 54.1,272.4 52,269 49.5,268.1 49.1,270.8 52,274.3 52,274.3 52,274.3 54.6,275.9 54.9,276.1 54.6,276.3 
		50.7,279.2 50.7,279.2 50.7,281.3 50.7,281.5 50.5,281.6 47.1,281.9 47.3,285 50.7,286.6 55.6,281.2 56,280.8 	"/>
	<polygon class="st2" points="516,391.7 516.1,391.6 519.4,389.9 515.9,386 515.7,385.8 515.9,385.7 519.4,382.9 518.1,378.9 
		518,378.6 518.3,378.6 524.9,378.6 528.9,375.2 529,375.2 529.1,375.2 532.7,375.7 539.5,366.7 539.6,366.6 539.7,366.6 544,366.3 
		545.3,364.2 545.3,364.1 545.4,364.1 549.1,362.6 551.9,359.1 552.3,355.3 549.3,353.4 549.2,353.3 549.2,353.2 549.2,349.6 
		549.2,349.5 549.3,349.4 555.7,344.5 557.9,339.4 558,339.3 558.1,339.3 563.7,337.3 563.4,332.8 559.9,329.6 556.1,328.9 
		555.9,328.9 555.9,328.8 552.7,319.1 550.6,317.2 550.5,317.1 550.6,316.9 552.6,314.1 552.3,311.3 550,314 549.9,314.1 
		549.7,314.1 547.7,313.7 546.6,318.2 546.6,318.3 546.4,318.3 535.6,321.2 535.5,321.3 535.4,321.1 533.6,318.7 531.1,318.7 
		531.1,318.7 531,318.6 528.7,317.4 527.4,320.4 527.4,320.5 527.3,320.5 522.1,322.3 522.1,322.3 522,322.3 519.3,321.3 
		518.7,324.3 518.7,324.5 518.5,324.5 513.3,325.1 513.7,327.7 516.9,330.4 517.1,330.6 516.9,330.7 514.3,333.9 513.8,338.8 
		515.5,342.8 515.8,342 516.8,335.4 516.8,335.3 516.9,335.3 518.6,332.2 518.7,332.1 518.8,332.1 521.1,332.4 521.3,332.4 
		521.3,332.6 521.7,335.1 521.7,335.2 521.7,335.2 520.6,341.2 521,347 522,350.1 522,350.2 522,350.3 520.8,353.4 520.7,353.4 
		520.7,353.5 518.9,355.2 518.3,356.2 518.9,358.3 518.9,358.4 518.9,358.4 518.1,360.4 518,360.6 517.9,360.6 516,361.1 
		515.8,363.3 515.8,363.4 515.8,363.4 513.3,367.5 513.2,367.6 513.1,367.6 509.4,368.8 506.9,372.2 506.8,372.3 506.6,372.3 
		503.8,372.1 503,376.4 503,376.4 503,376.5 500.9,378.9 500.8,378.9 500.8,379 493.9,382 493,385.1 493,385.2 492.9,385.2 
		488.5,386.7 488.2,386.8 488.2,386.5 487.5,384 482.9,383.1 482.7,383.1 482.7,382.9 482.3,379.5 479.1,375.4 474.8,375.4 
		474.7,375.4 474.7,375.3 465.7,368.3 465.7,368.2 465.7,368.2 462.9,364.4 458.4,367.6 458.4,367.7 458.3,367.6 455.7,367.6 
		455.9,368.2 455.9,368.3 455.8,368.4 454.4,369.8 454.9,371.7 455,371.9 454.9,372 453,374.1 454.7,377.4 465.7,381.8 475.9,384.2 
		478,392.3 485.4,396.2 490.7,396.1 498.1,391.6 503.9,393.5 509.9,393.1 511.4,395.8 514.9,396 516,391.8 	"/>
	<polygon class="st2" points="452.4,374 452.5,373.9 454.4,371.7 453.9,369.7 453.9,369.6 454,369.5 455.4,368.1 455,366.7 
		451.1,367 451,367 451,366.9 441.1,360.1 440.5,362.8 440.5,363 440.3,363 428.4,364 427.6,367.2 427.6,367.3 427.4,367.4 
		425.1,368 425.3,370.2 425.4,370.3 425.2,370.4 422,372.5 421.9,374.6 421.9,374.8 421.7,374.8 419.5,375.4 415.5,378.7 
		415.4,378.7 415.3,378.7 406.1,377.5 406.1,377.5 406,377.5 400.4,373.5 397.8,373.3 396.1,377.7 396,377.9 395.9,377.9 
		389.4,378.3 389.8,382.8 393.7,389.8 393.8,390 393.6,390.1 390.9,392 391.5,396.3 408.3,389.9 414.3,389.6 415.4,391.1 
		424.4,393.1 425,397.1 428.4,398.8 437.9,399.9 441.7,400.4 443.7,402.2 446.7,401.2 449.4,398.8 451.4,394 448.1,390.1 
		448.5,384.1 450.6,383.4 450.7,380.7 453.5,380.5 454.2,377.6 452.5,374.2 	"/>
	<polygon class="st2" points="378.8,363.9 378.8,364 378.7,364.1 376.4,365.5 376.2,369.6 381.5,369.8 381.6,369.8 381.7,369.9 
		383.5,371.9 386.4,370.8 388.5,369.8 392.1,366.2 391.3,363.9 391.2,363.9 391.3,363.8 391.9,361.2 391,357.8 391,357.7 
		391.1,357.6 393.5,354.5 394.7,350.9 391.2,349.6 391.1,349.6 391,349.5 390.4,347.3 390.4,347.2 390.4,347.1 393.2,343.5 
		391.7,339.9 391.7,339.8 391.7,339.7 392.4,336.9 392.4,336.8 392.5,336.7 396.2,335 398,333.2 394.1,325.7 394.1,325.6 
		394.1,325.5 394.7,322.9 390.5,324.7 390.4,324.7 390.3,324.7 384.9,322.3 378.7,323.2 376.4,325.9 376.3,326 376.2,326 369.8,326 
		369.7,343.1 372,342.8 372.2,342.8 372.3,343 372.7,346.5 375.9,349.9 376,349.9 376,350 377,353 380,355.1 380.3,355.3 
		380.1,355.5 377.8,358.2 379.6,360.2 379.7,360.3 379.7,360.4 	"/>
	<polygon class="st2" points="390.4,391.7 390.5,391.7 393.1,389.8 389.3,383 389.3,383 389.3,382.9 388.9,378.5 385.5,381.1 
		385.3,381.3 385.2,381.1 382.1,377.1 382,377 382.1,376.9 383.1,372.2 381.4,370.3 376.2,370.1 376.2,370.2 376,370.2 372.7,370.9 
		372.6,370.9 372.5,370.8 369.8,368.7 369.6,370.9 369.6,370.9 369.6,371 367,374.9 366.9,375 366.7,375 362,374.6 358.2,375.9 
		356.6,378 359,379.2 359.1,379.2 359.1,379.3 359.8,382.2 359.8,382.4 359.6,382.5 355.2,383 355.7,387.5 359.9,389.8 360,394.3 
		364.2,395.2 365.9,397.3 370.6,394.8 371.5,398 374.5,402.5 379.2,403 380.6,399.9 386.9,399.6 391.1,396.5 390.4,391.9 	"/>
	<polygon class="st2" points="358.7,379.6 356.2,378.3 355.9,378.2 356.1,377.9 357.8,375.5 357.9,375.5 357.9,375.4 361.9,374.1 
		361.9,374.1 362,374.1 366.6,374.5 369.2,370.8 369.4,368.2 369.4,367.8 369.8,368 372.7,370.4 375.7,369.8 375.9,365.4 
		375.9,365.2 376,365.2 378.4,363.7 379.2,360.4 377.3,358.3 377.2,358.2 377.3,358 379.5,355.4 376.7,353.3 376.6,353.3 
		376.6,353.2 375.5,350.2 372.3,346.7 372.2,346.7 372.2,346.6 371.8,343.3 369.5,343.6 366.6,346.3 366.5,346.4 366.4,346.3 
		360.8,345.8 359.1,347.1 359,347.2 358.8,347.1 357.1,345.7 352.2,350.5 352.1,350.7 351.9,350.5 348.1,346.8 348,346.8 348,346.7 
		347.3,343.9 344.2,339.7 331.4,344.2 331.3,344.2 331.2,344.2 328.5,343 327.2,343.9 327.1,344 326.9,343.9 324.9,342.6 
		322.2,344.1 328.6,374.4 331.9,373.9 334.3,370.5 336.5,371.4 337.2,374.9 344.3,378.8 350,376.8 353,378.1 355.1,382.5 359.2,382 
			"/>
	<polygon class="st2" points="324.9,342 325,342.1 327.1,343.4 328.3,342.5 328.4,342.4 328.5,342.5 331.3,343.7 344.2,339.2 
		344.4,339.2 344.5,339.3 347.8,343.7 347.8,343.7 347.8,343.7 348.5,346.5 352.1,350 356.9,345.3 357.1,345.1 357.2,345.2 
		359,346.6 360.6,345.4 360.7,345.3 360.8,345.3 366.4,345.9 369.2,343.3 369.3,326 367.1,326 363.9,328.6 363.7,328.8 363.5,328.6 
		362.2,326.8 362.1,326.8 362.1,326.7 362.5,320.1 353.1,319.9 353,319.9 352.9,319.7 351.2,316.6 346.4,316.7 346.2,316.8 
		346.1,316.6 345.2,313.1 342.1,309.1 325.7,301.3 325.7,306.6 325.7,306.7 325.6,306.8 322.5,308.6 323.4,312.1 323.5,312.4 
		323.1,312.4 319.1,312.1 316,313.4 314.1,316.7 314.6,326.1 314.6,326.2 314.5,326.2 312.4,331.3 319.2,331.5 316.4,334.3 
		322.1,343.7 324.8,342.1 	"/>
	<polygon class="st2" points="313.7,316.6 313.7,316.6 313.7,316.5 315.6,313.1 315.6,313.1 315.7,313 319,311.7 319,311.6 
		319.1,311.6 322.8,311.9 322,308.6 321.9,308.4 322.1,308.3 325.2,306.5 325.2,293.2 323,290.9 322.8,290.7 322.9,290.6 
		325.3,287.6 325.1,285.8 320.7,288.9 320.6,288.9 320.5,288.9 317.2,288.8 317.1,288.8 317,288.7 313.7,286.9 310.1,287.4 
		310,287.4 310,287.4 305.3,284 303.1,283.6 302.8,283.5 303,283.2 304.5,281.1 302.2,278.8 297.8,283.1 297.4,287.1 297.4,287.1 
		297.4,287.2 296.1,288.7 296.5,290 299.2,291 299.3,291.1 299.3,291.2 300.3,293.7 300.3,293.8 300.3,293.9 299.7,296.3 
		299.7,296.4 299.7,296.4 298.8,297.9 298.7,298 298.5,298 295.3,297.4 292.8,300.1 292.1,303.1 292.1,303.2 292.1,303.2 
		287.8,307.3 287,309.4 288.9,309.9 289,313.3 287.8,314.6 288.6,317 286,320 286.5,322.2 292.1,323.5 292.4,326.5 295.1,326.6 
		297.2,327.2 299.3,329.5 296.3,332 296.3,334.1 299.3,333.2 301.9,334.6 304.3,334.1 306.2,332.4 311.9,331.4 314.1,326.1 	"/>
	<polygon class="st2" points="362.6,326.6 363.8,328.1 366.8,325.6 366.9,325.5 367,325.5 369.6,325.5 369.8,325.5 369.8,325.5 
		376.1,325.5 378.4,322.8 378.5,322.7 378.5,322.7 384.9,321.8 385,321.8 385,321.8 390.4,324.2 394.8,322.3 395,317.9 395,317.8 
		395.1,317.7 399.6,314.2 400.2,312.1 396.2,310.9 396.2,310.9 396.1,310.8 393.3,308 393.2,307.9 393.2,307.9 392.8,304.1 
		392.8,304 392.9,303.9 397.8,299.6 398,297.1 394.7,296.7 394.6,296.7 394.6,296.6 390.9,289 378.3,287.1 378.1,287 378.1,286.8 
		378.1,283.3 378.1,283.2 378.2,283.2 379.8,281.1 378.1,274.9 374.6,272.4 367.5,276.4 367.4,276.5 367.2,276.4 361.3,272.1 
		352.9,271.9 352.8,271.9 352.7,271.9 347.1,268.2 343.2,267 339.5,269.9 336.7,278.7 336.6,278.9 336.4,278.9 333.2,278.5 
		330.7,280.1 330.2,282.8 330.1,282.9 330,283 325.6,285.5 325.8,287.7 325.8,287.8 325.8,287.9 323.5,290.7 325.6,293 325.7,293.1 
		325.7,293.2 325.7,300.7 342.4,308.7 342.4,308.7 342.5,308.8 345.6,312.8 345.6,312.9 345.6,312.9 346.5,316.3 351.4,316.1 
		351.5,316.1 351.6,316.3 353.3,319.4 362.8,319.7 363,319.7 363,319.9 	"/>
	<polygon class="st2" points="385.4,380.6 388.9,377.9 389.3,377.6 389.3,377.8 395.7,377.4 397.4,373 397.5,372.8 397.6,372.8 
		400.3,373 402.2,369 402.3,368.9 402.4,368.9 405.8,367.6 406.8,365.3 406.8,362.8 406.8,362.6 406.9,362.5 410.1,360.9 
		409.9,358.2 408.6,354.3 408.5,354.3 408.5,354.3 407.9,350.6 405.1,346.3 405,346.1 405.1,346 406.3,343.4 404.1,342 400.5,342.4 
		400.5,342.4 400.5,342.4 396.5,342.4 396.4,342.4 396.3,342.3 394.3,336.4 392.8,337.1 392.2,339.8 393.7,343.4 393.7,343.5 
		393.7,343.6 390.9,347.3 391.5,349.2 395.1,350.5 395.3,350.6 395.2,350.8 393.9,354.7 393.9,354.8 393.9,354.8 391.5,357.8 
		392.4,361.2 392.4,361.2 392.4,361.3 391.7,363.8 392.6,366.2 392.7,366.3 392.5,366.4 388.8,370.1 388.8,370.2 388.8,370.2 
		386.6,371.3 386.6,371.3 386.5,371.3 383.6,372.3 382.6,376.9 	"/>
	<polygon class="st2" points="392.1,144.9 391.6,140.9 390.1,140.1 388.3,142.7 390.6,145.6 	"/>
	<polygon class="st2" points="394.5,124.3 395.7,125.8 396.9,124.5 396.3,122.5 394.8,123 	"/>
	<polygon class="st2" points="440.8,50.2 437.4,50.3 437.1,52.9 442,53.8 	"/>
	<polygon class="st2" points="441.2,62.1 441.2,64.3 444.6,67.3 451.3,64.3 451.3,61.8 453.9,60.3 453,58.3 451.3,53.7 448.4,51.1 
		445.8,53.7 443.2,55.4 443.8,58.6 	"/>
	<polygon class="st2" points="440.8,71.8 443.1,70.5 443.8,68.1 438.7,66.1 436.8,67.2 437.3,69.5 	"/>
	<polygon class="st2" points="451.8,65.6 445.6,68.7 443.3,74.3 443.2,76.1 445.6,77.1 449.7,80.7 454.3,83.9 456.6,82.7 
		457.1,79.5 455.3,77.4 457.4,73.9 457.7,70.3 454.8,67.5 454.6,69.4 453,69.9 	"/>
	<polygon class="st2" points="457.4,93.6 461.9,90 466.7,89.7 469.2,87.1 469.6,81.3 466.9,77.9 464.6,80.1 463.4,78.8 463.5,75.3 
		459.6,77.4 459.1,84.8 456.3,89.8 	"/>
	<polygon class="st2" points="477.1,90.8 476.9,89.4 473.3,87.2 473.1,88 473.5,90 	"/>
	<polygon class="st2" points="449.1,103.3 448.2,101.2 445.9,102.7 447.8,104.1 	"/>
	<polygon class="st2" points="431.7,101.3 431.9,99.4 430.3,97.6 429.2,98.6 429.4,100 	"/>
	<polygon class="st2" points="443.9,107.8 444.8,108.8 446,107.7 444.7,106.3 	"/>
	<polygon class="st2" points="404.2,132.4 406,134.1 407.2,132.9 406.7,131 405.2,130.6 	"/>
	<polygon class="st2" points="408.5,134.5 409.5,135.3 410.2,134 409.1,132.7 	"/>
	<polygon class="st2" points="412.8,129.2 411.2,128.1 411.2,129.6 412.2,130.3 	"/>
	<polygon class="st2" points="414.1,127.8 415.2,126.3 413.4,125 412.5,125.6 413,126.9 	"/>
	<polygon class="st2" points="406.1,118.5 408,117.4 406.9,115.5 405.3,115 403.8,116.4 404.8,117.6 	"/>
	<polygon class="st2" points="410.5,111.2 408.9,111 408.4,112.2 409.4,113.6 410.5,112.5 	"/>
	<polygon class="st2" points="409.3,67.9 409.2,65.9 407.7,63.9 405.8,64.7 405.5,66.2 407.1,67.8 	"/>
	<polygon class="st2" points="417.8,53.4 420,52.8 418.7,49.9 417,48.5 415.8,49.7 415.6,51.6 415.7,52.8 	"/>
	<polygon class="st2" points="494.4,361.4 492.3,362.1 492.2,362.2 492,362.2 491.9,362.1 491.8,362 490.2,360.6 490.2,360.6 
		490.2,360.6 490.2,360.5 490.2,360.5 490.1,360.5 488.4,358.1 483.2,361.2 483,361.3 482.7,361.4 482.6,361.2 482.5,361 
		480.4,356.8 478.1,357.7 479,361 479.1,361.2 479.1,361.5 478.9,361.5 478.7,361.6 476.6,362.3 477,364.3 479.8,364.5 479.9,364.5 
		479.9,364.5 480,364.6 480,364.6 483,366.7 485.3,368.2 489.4,367.9 489.5,367.9 489.6,367.8 489.7,367.9 489.8,367.9 493,370.2 
		498.3,363.4 497.1,361.4 	"/>
	<path class="st2" d="M598.8,339.2l-5.6-8.4l-0.1-0.1l0.1-0.1l1.9-2.7l-3.4-1.9l-0.1-0.1l0-0.1l-0.5-6.6l-3.3,0.8l-0.2,0l-0.1-0.2
		l-2.1-3.7l-4.4,2.5l-0.2,0.1l-0.1-0.1l-2.7-2.7l-0.1-0.1l0.1-0.2l1.6-2.2l-5.4-3.6l-0.1,0l0-0.1l-6.9-12.9l-5.6,0.2l-2.1,1.6
		l0.3,5.9l4,2.8l0.1,0.1l0,0.1l-0.2,5.1l0,0.1l-0.1,0.1l-3.9,2.7l-0.1,0.1l-0.1,0l-6.5-1l-1.8,2.6l1.9,1.7l0,0l0,0.1l3.2,9.6
		l3.8,0.7l0.1,0l0.1,0l3.6,3.2l0.1,0.1l0,0.1l0.3,4.8l0,0.2l-0.2,0.1l-5.7,2l-2.2,5l0,0.1l0,0l-6.4,4.9v3.3l3,2l0.1,0.1l0,0.1
		l-0.3,3.9l0,0.1l0,0.1l-2.9,3.6l0,0l-0.1,0l-3.7,1.5l-1.3,2.2l-0.1,0.1l-0.1,0l-4.3,0.3l-6.8,9l-0.1,0.1l-0.1,0l-3.7-0.5l-4,3.4
		l-0.1,0.1H525h-6.3l1.3,3.8l0.1,0.2l-0.1,0.1l-3.4,2.7l3.6,3.9l0.2,0.2l-0.3,0.2l-3.5,1.8l-1.1,4l2.2,0.1l2.2,4.2l17.1,1.6
		l11.5-6.9l3.7-0.1l1.2-3.8l5.6-5.2l7.8-0.4l2.3,2.2l3.3-3l13.8,2.2l2-5.4l4.7-3.3l-2-4.8l2.1-13.1l3.5-3.5l-2.4-6.3l-5-0.5l3.5-6.5
		L598.8,339.2z M568.3,379.5l-0.3,0.2l-14.2,6.8l-0.1,0.1l-0.1,0.1l-0.1-0.1l-0.1-0.1l-8.2-5.1l-0.2-0.1l-0.2-0.1l0.1-0.2l0.1-0.2
		l1.2-3.1l0.1-0.1l0.1-0.1l0.1,0l0.1,0l6.8-0.8l1.9-4l0.1-0.3l0.1-0.3l0.2,0.2l0.2,0.2l1.5,1.4l1.6-3.8l0.1-0.1l0.1-0.1l0.1,0l0.1,0
		l3.4-0.7v0l0.1,0l0.1,0l0.1,0.1l0.1,0.1v0l4.1,2.6l0.1,0.1l0.1,0.1l0,0.2l0,0.2l-0.5,2.7l0,0.2l0,0.2l-0.2,0l-0.2,0l-2,0.5l3.4,3.1
		h0l0.3,0.2l0.3,0.2L568.3,379.5z"/>
	<polygon class="st2" points="563.6,375.4 564.1,375.3 566.5,374.7 567.1,372 563,369.4 559.5,370.1 557.8,374.2 557.7,374.6 
		557.4,374.3 555.6,372.7 553.6,376.8 553.5,377 553.4,377 546.5,377.8 545.3,380.9 553.5,386 567.7,379.2 564,375.7 	"/>
	<polygon class="st2" points="367,126.4 362.8,126.1 362.5,129.8 363.4,132 367.6,131.5 	"/>
	<polygon class="st2" points="322.5,172.5 323.8,177 323.9,177.1 323.8,177.2 321.6,180.6 321.5,180.7 321.5,180.7 317.9,181.9 
		315.5,184.7 315.5,184.8 315.4,184.8 306.4,185.2 301.8,188.9 301.7,189 301.7,189 298.7,189 298.4,196.7 298.4,196.7 298.4,196.8 
		294.9,201.8 297.2,206.6 305.8,207.2 305.9,207.2 306,207.3 310.1,210.5 310.2,210.5 310.2,210.7 310.3,214.8 311.8,216.2 
		321.7,216.7 321.8,216.7 321.9,216.8 324.9,220.6 325,220.7 325,220.8 325.2,227.1 326.9,229.3 327,229.4 327,229.5 326.8,233.6 
		333.4,233.6 333.5,233.6 333.6,233.7 339.5,239.1 347.8,242.7 347.8,242.7 347.9,242.8 350.9,247.8 356.3,251.1 361.7,251.6 
		366.2,248.3 366.3,248.2 366.5,248.3 370.5,252.1 374.7,252 374.8,252 374.9,252.1 378,256.7 379.7,256.8 379.8,256.8 379.8,256.9 
		382.8,259.9 389,252 389.4,246.9 389.4,246.8 389.5,246.8 393.6,241.1 392.8,236.5 388.1,233 388,232.9 388,232.8 389.2,226.1 
		386.1,221.8 386,221.7 386.1,221.6 387,212.4 383.1,207.3 383,207.2 383.1,207.1 384.6,202.4 383.1,198.7 383,198.5 383.3,198.4 
		388.3,197 390.4,191.6 389.3,185.2 384,183.9 384,183.9 383.9,183.8 379.1,177.4 379,177.3 379,177.2 380,173.3 380,173.2 
		380.1,173.1 387.4,169.9 388.1,167 385,160.5 385,160.4 385,160.3 385.8,156.1 385.8,155.9 386,155.9 389.2,155.3 386.2,149 
		386.2,149 386.2,148.9 386.1,148.4 383.5,148.6 382.2,153.3 377.9,149.4 376.7,153.4 381.3,158.4 381.5,162.7 373.2,155.2 
		372.9,150.5 376.5,146.2 377,139.3 375.5,140 373.8,144.7 371.2,147 368.5,147.8 365.9,151.7 366,162 359.6,172.1 360,178.2 
		366.5,178.2 371.9,184.6 371.9,190.8 368.1,195.3 369.1,197.4 372.1,199.1 366.5,200.4 365,194.5 369.1,187.2 367.3,181.7 
		360.9,180.8 357.4,184.2 357,191.9 351.1,197.9 345.8,199.9 342.1,203.8 329.9,196.2 329.9,192.6 338.1,196.4 342.4,194.7 
		349.3,190.2 354,180.8 353.2,175.7 361.2,156.8 362.1,153.5 361.2,149.2 366.4,144.3 367.5,137.4 363.4,132 360.8,131 356.9,134 
		352.2,140 348.5,143.5 343,144.8 340.2,147.5 343,151.3 339.9,156.9 335.6,158.2 335.5,160.2 339.3,164.1 337.9,167.8 338.6,170.1 
		340,172.2 335.2,176.7 333.6,174.2 332.3,168.6 327.2,160.4 324.3,162.8 326,165.9 326.1,166 326,166.1 	"/>
	<path class="st2" d="M561.3,296.3L561.3,296.3l0.1-0.1l5.5-0.2l-5.1-11.6l-2.8-1.9l-4.8,2.2l-0.2,0.1l-0.1-0.3l-1.8-5.3l-7.7-3.1
		l-3.9,0.6l-6,12.9l0,0l0,0l-4,4.7l-0.2,0.2l-0.2-0.2l-2.9-2.9l-1.9,3.3l-0.1,0.1l-0.1,0l-5.5,0.2l-3.8,2.9l-0.2,0.1l-0.2-0.2
		l-3.6-3.8l-0.1-0.1l0-0.1l0.7-9.9l0,0l0,0l3.3-7.6l-4.2-1.3l-0.1,0l0-0.1l-2-4.5l0-0.1l0-0.1l1.5-6.3l-3.4-1.9l-0.1-0.1l0-0.1
		l0.2-6.2l-2.5-4.9l-2,1.4l-0.1,0.1l-0.1,0l-2.9-0.2l-0.2,0V252v-3.1v-0.1l0.1-0.1l2.3-1.4l-1.9-2.8l-1.6,1.8l-0.1,0.1l-0.1,0
		l-3.8,0.8l-3.4,1.5l0.2,3.8l1,2.5l0,0.1l0,0.1l-1.9,4.3l1.9,3.1l0,0.1l0,0.1l0.4,4.6l0,0.1l0,0.1l-3,5.8l0,0.1l-0.1,0l-5,3.1
		l1.9,3.2l0.1,0.1l-0.1,0.1l-2.1,2.9l1.1,3.7l4.2,1.4l0.1,0l0,0.1l0.6,2.8l0,0.1l-0.1,0.1l-3.1,3.3l-0.2,2.3l2,0.5l0.1,0l0,0.1l1,3
		l0,0.1l-0.1,0.1l-2.3,2.3l-1,3.5l-0.1,0.3l-0.3-0.2l-4.4-2.6l-0.1,0l0-0.1l-2.1-4.5l-4,1.8l-0.6,3.8l0,0.1l-0.1,0.1l-8.9,9.7
		l0.4,4.5l0,0.2l-0.2,0.1l-2.4,1l-0.2,0.1l-0.1-0.2l-3.4-7.4l-2.3,3.1l-0.1,0.1l-0.1,0l-9.2,0.4l-3.6,6.7l4.1,6.4l0.1,0.1l0,0.1
		l-0.8,3.6l0,0.2l-0.2,0l-4,0.6l-2.3,4.4l-0.8,11.9l0,0.3l-0.3,0l-3.9-0.4l-2.8,1.3v2.3l6.7,6l10,7l4-0.3l0.2,0l0,0.2l0.2,0.7
		l2.6,0.1l4.6-3.3l0.2-0.1l0.1,0.2l2.9,4l8.8,7h4.3h0.1l0.1,0.1l3.3,4.3l0,0.1l0,0.1l0.4,3.3l4.6,0.9l0.2,0l0,0.1l0.6,2.4l4-1.3
		l0.8-2.8h-4.2h-0.2l-0.1-0.1l-0.9-2l-0.1-0.2l0.2-0.1l2-1.2l0,0l0,0l2.7-0.4l5.5-3.8l2-3l0,0l0,0l4.1-3.7l0.9-2.7l0,0l0,0l2.4-4.1
		l0,0l2.9-4.5l2.5-6.9l1.9-5.5l-2-4.6l0-0.1l0-0.1l0.5-5l0-0.1l0-0.1l2.6-3.1l-3.1-2.6l-0.1-0.1l0-0.1l-0.5-2.9l0-0.3l0.3,0l5.3-0.7
		l0.6-3.1l0.1-0.3l0.3,0.1l2.8,1l4.9-1.6l1.3-3.2l0.1-0.2l0.2,0.1l2.5,1.3h2.5h0.1l0.1,0.1l1.8,2.4l10.5-2.8l1.2-4.5l0.1-0.2l0.2,0
		l2.1,0.3l2.6-3l0.4-0.4l0.1,0.6l0.3,3.2l6.4,1l3.8-2.6l0.2-4.9l-4-2.8l-0.1-0.1l0-0.1l-0.3-6.2l0-0.1l0.1-0.1L561.3,296.3z
		 M498.8,363.5l-5.6,7.1l-0.1,0.2l-0.2-0.1l-3.4-2.4l-4.2,0.4l-0.1,0l-0.1,0l-2.5-1.5l0,0l-2.9-2.1l-3-0.3l-0.2,0l0-0.2l-0.5-2.4
		l0-0.2l0.2-0.1l2.3-0.7l-1-3.5l-0.1-0.2l0.2-0.1l2.8-1l0.2-0.1l0.1,0.2l2.2,4.3l5.4-3.2l0.2-0.1l0.1,0.2l1.9,2.6l0,0l1.6,1.5
		l2.1-0.8l0,0h0h2.9h0.1l0.1,0.1l1.4,2.3l0.1,0.1L498.8,363.5z"/>
	<polygon class="st2" points="496.8,139.3 493.2,141.1 493,143.6 494.7,145.9 494.7,145.9 494.7,146 495.5,150 501.1,157.9 
		501.1,158 501.1,158 501.1,163.2 504,166.6 504.1,166.8 503.9,167 497.4,172.1 497.1,175.1 497,175.2 497,175.3 495.5,177.5 
		494.3,183.1 494.3,183.3 494.1,183.3 490.9,182.9 485.7,187.1 485.7,187.2 485.7,187.2 483.9,188.1 488,194.3 488.1,194.4 
		488.1,194.4 489.5,211.9 489.5,212 489.4,212.1 485.8,216.1 488.2,217.9 488.3,218 488.3,218.1 487.3,222.8 489.4,225.1 
		489.5,225.2 489.5,225.2 489.5,228.5 491.9,230.2 492.1,230.3 492,230.5 490.8,233.7 490.8,233.7 490.8,233.8 487.1,238.3 
		486.7,241.5 492.8,241.5 492.9,241.5 492.9,241.6 495.6,243.6 498.4,241.7 498.6,241.6 498.7,241.8 500.3,243.8 500.5,243.9 
		500.5,243.9 502.5,247.1 502.7,247.3 502.5,247.4 500.1,248.9 500.1,251.7 502.7,251.9 504.9,250.4 505.1,250.3 505.2,250.5 
		507.9,255.7 508,255.7 508,255.8 507.8,261.9 511.2,263.9 511.4,264 511.3,264.2 509.8,270.6 511.7,274.9 516.1,276.2 516.4,276.3 
		516.3,276.6 512.9,284.4 512.3,294.2 515.6,297.7 519.3,294.9 519.3,294.9 519.4,294.9 524.9,294.7 526.9,291.2 527,290.9 
		527.2,291.1 530.2,294.1 534.1,289.6 540.1,276.6 540.2,276.5 540.3,276.5 544.3,275.8 544.4,275.8 544.5,275.8 552.3,278.9 
		552.5,279 552.5,279.1 554.2,284.2 558.9,282.1 559,282 559.1,282.1 562.1,284.1 562.1,284.2 562.2,284.2 567.5,296.3 574.3,309 
		578.7,306.2 578.7,306.2 578.7,306.2 583.2,304.4 583.3,304.3 583.5,304.4 586.9,307.2 588.8,305.5 588.9,305.4 589.1,305.5 
		591.8,308.1 594.4,305.5 594.4,305.5 594.6,305.5 600.8,305.7 600.9,305.7 601,305.7 604.9,308.8 612.7,305.9 612.8,305.9 
		612.9,306 615.5,308.1 626.2,303.2 626.2,303.2 626.3,303.2 629.4,303.9 632.7,302.6 632.3,300.1 632.3,300 632.4,299.9 
		640.7,295.6 638.6,289.8 638.6,289.6 638.7,289.5 641.4,286.6 640.3,283.7 635,280.2 634.8,280.1 634.9,279.9 637.7,274.6 
		632.6,271 632.3,270.8 632.5,270.6 634.9,267.8 634.9,256 634.9,255.9 635.1,255.8 645.2,251.9 645.6,247.4 645.6,247.2 
		645.8,247.2 651.8,246.8 653.2,243 653,239.2 653,239 653.1,239 656,237.6 653.8,229.9 649.8,227.1 649.7,227 649.7,226.8 
		652.4,217.4 648.7,207.6 648.6,207.5 648.7,207.4 650.8,204.7 650.9,204.6 651,204.7 658.2,207.1 662.7,206.1 664.3,203.3 
		664.4,203.2 664.5,203.2 669.9,202.4 670.8,199 661.9,180.4 661.8,180.3 661.8,180.2 662.8,175.7 662.8,175.6 662.9,175.5 
		668.9,171.3 666.6,166.9 666.5,166.8 666.6,166.6 672.5,161.2 672.5,161.1 672.6,161.1 677.8,160.6 680.8,157.2 681.3,151.4 
		677.9,148.4 677.9,148.4 677.8,148.3 677.7,144.5 675.5,141.3 675.4,141.1 675.6,141 678.1,138.6 675.4,135.3 675.2,135.1 
		675.4,135 682.1,128.8 682.1,128.8 682.2,128.8 685.2,127.5 687.5,124.2 683.2,115.4 677.9,115.4 677.9,115.4 677.8,115.4 
		673.6,113.6 673.5,113.5 673.5,113.4 671.3,107.8 671.3,107.7 671.4,107.5 679.8,97.6 679.8,92.7 668.7,84.4 667.4,87 660.2,91 
		655,86.1 649.8,85.5 642.3,90.4 637.3,96.6 635.4,103 632,104.1 627.9,102 623.8,102.4 621.7,105.1 619.9,103.6 618.2,105.4 
		616.1,103.4 619.1,100.4 612.1,99.9 608,103.4 610.2,111 606.2,114.9 606.2,109 603.4,109 600.7,111.5 600.1,108.5 604.1,104.9 
		599.8,105.1 587,111.6 589.5,114.7 585.8,118.2 587.3,120.8 589.9,119.5 590.1,123.3 593.3,126.9 588.4,128.1 587,130.1 
		588.3,133.2 584.4,133.8 579.2,132.3 577.6,138.1 568.7,136.6 568.7,149.6 562.5,148.6 552.8,139.8 556.3,137.4 550.5,128.6 
		546.7,126.8 540.9,128.7 534.5,126.3 533.6,136.2 522,141.1 517.6,138.1 518.2,135.8 506.3,135.7 503.2,139.8 502.4,142.6 
		501.6,138.5 499.4,136.6 	"/>
	<polygon class="st2" points="394.9,139.6 394.6,148.7 398.6,152.6 400.6,157.2 395,157.2 390.2,148.2 386.6,148.4 386.7,148.9 
		389.7,155.4 389.9,155.7 389.6,155.8 386.2,156.3 385.5,160.3 388.6,166.9 388.6,166.9 388.6,167 387.8,170.1 387.8,170.2 
		387.7,170.3 380.4,173.5 379.5,177.2 384.2,183.4 389.6,184.8 389.7,184.8 389.8,185 390.9,191.7 390.6,192.5 390.6,192.5 
		388.7,197.3 388.7,197.4 388.5,197.5 383.6,198.8 385.1,202.3 385.2,202.4 385.1,202.5 383.6,207.1 387.5,212.2 387.5,212.3 
		387.5,212.4 386.5,221.6 389.7,225.9 389.7,226 389.7,226.1 388.5,232.7 393.2,236.2 393.3,236.2 393.3,236.3 394.1,241.1 
		394.1,241.2 394,241.3 389.9,247 389.5,252.1 389.5,252.2 389.5,252.2 383.1,260.3 383.1,266.6 388.3,269.6 388.5,269.7 
		388.4,269.9 387.5,272.3 387.4,272.4 387.3,272.5 382.7,274.5 382.6,274.5 382.6,274.5 378.6,275 380.3,281.1 380.4,281.2 
		380.3,281.3 378.6,283.4 378.6,286.6 391.1,288.5 391.2,288.6 391.3,288.7 394.9,296.2 398.3,296.6 398.5,296.7 398.5,296.9 
		398.3,299.7 398.3,299.8 398.2,299.9 393.3,304.2 393.7,307.7 396.4,310.5 400.5,311.8 400.8,311.8 400.7,312 400,314.5 400,314.5 
		400,314.6 395.5,318 395.2,322.5 395.2,322.7 395.2,322.7 394.6,325.5 398.5,333.1 398.6,333.3 398.5,333.4 396.5,335.4 
		396.5,335.4 396.4,335.4 394.8,336.2 396.7,341.9 400.5,341.9 404.2,341.5 404.2,341.5 404.3,341.5 406.7,343.1 406.9,343.2 
		406.8,343.4 405.6,346.1 408.3,350.4 408.4,350.4 408.4,350.5 409,354.2 410.3,358.1 410.3,358.1 410.3,358.1 410.6,361 
		410.6,361.1 410.4,361.2 407.3,362.9 407.3,365.4 407.3,365.5 406.2,367.9 406.1,368 406,368 402.6,369.3 400.8,373.2 406.3,377 
		415.3,378.2 419.2,375 419.3,374.9 419.3,374.9 421.4,374.4 421.5,372.3 421.5,372.2 421.6,372.1 424.8,370.1 424.6,367.8 
		424.6,367.6 424.8,367.6 427.2,366.9 427.9,363.8 428,363.6 428.1,363.6 440.1,362.5 440.7,359.8 434,353.8 433.9,353.7 
		433.9,350.9 434.1,350.8 437.1,349.4 437.1,349.4 437.2,349.4 440.9,349.8 441.7,338.1 441.7,338 441.7,338 444.1,333.4 
		444.2,333.3 444.3,333.3 448.3,332.7 449,329.4 444.9,322.9 444.8,322.8 444.9,322.7 448.7,315.7 448.7,315.6 448.9,315.6 
		458.1,315.2 460.6,311.9 460.9,311.6 461,312 464.5,319.5 466.5,318.7 466.1,314.3 466.1,314.2 466.2,314.1 475.1,304.4 
		475.7,300.6 475.6,300.4 480.4,298.2 480.5,298.5 482.7,303.2 486.7,305.5 487.6,302.3 487.6,302.2 487.7,302.2 489.9,299.9 
		489,297.2 487,296.6 486.8,296.6 486.8,296.4 487,293.8 487,293.7 487.1,293.6 490.1,290.3 489.6,287.8 485.4,286.5 485.2,286.4 
		485.2,286.3 484,282.3 484,282.2 484.1,282.1 486.1,279.3 484.2,276 484.1,275.8 484.3,275.7 489.4,272.6 492.3,266.9 492,262.5 
		490,259.4 489.9,259.2 490,259.1 491.9,254.8 491,252.4 491,252.3 491,252.3 490.8,248.3 490.8,248.1 490.9,248.1 494.5,246.5 
		494.5,246.5 494.5,246.5 498.2,245.7 499.8,243.9 498.5,242.3 495.7,244.1 495.6,244.2 495.4,244.1 492.7,242 486.2,242 
		486.2,241.7 486.6,238.1 486.6,238.1 486.6,238 490.4,233.5 491.5,230.5 489.1,228.8 489,228.8 489,225.3 486.9,223 486.8,222.9 
		486.8,222.8 487.8,218.2 485.3,216.3 485.1,216.1 485.3,215.9 489,211.9 487.6,194.5 483.3,187.9 485.4,186.7 490.6,182.5 
		490.7,182.4 490.8,182.4 493.9,182.8 495,177.4 495,177.3 495.1,177.3 496.6,175 497,172 497,171.9 497,171.8 503.5,166.7 
		500.7,163.4 500.6,163.4 500.6,158.1 495.1,150.2 495,150.2 495,150.1 494.3,146.1 492.5,143.8 492.5,143.8 492.5,143.7 
		492.7,141.4 489.2,143.1 485.3,146.1 480,147.7 477.9,151.3 478,146.1 488.8,134.9 494.8,124 497.6,114.4 489.2,104.9 481.4,104.6 
		478.7,108.5 475.5,109 477.9,102.4 471.5,101.6 473.6,98.6 469.7,95.3 466.1,96.6 460.5,105 461.8,110 455.8,110.3 456,111.9 
		458.2,115.2 453.9,114.3 451.6,116.3 446.7,115.4 446,113.2 439,113.3 439.1,117.4 430.6,118.6 424.9,123.1 420.4,123.3 
		417.2,126.1 415.7,132 418.5,137 414.3,138 403.2,136.2 396.8,136.1 	"/>
	<polygon class="st2" points="800.6,225.1 799.1,219.1 794.8,214.8 795.2,208.4 797.4,206.5 790,197.9 790.1,191.9 793.2,188.5 
		792.5,185.1 786.2,183.3 779.8,172 781.4,170.9 783.3,173.7 786.5,171.7 781.6,167.1 779,168.6 774.8,165.9 774.8,165.9 
		772.6,160.9 768.3,160.9 767.8,163.9 765,163.6 756.2,145.8 756.7,140.2 760.2,139.5 757.6,129 763.2,133.4 763.3,120.9 
		767.8,116.3 774.4,116.2 770.7,106.9 768.9,87 764.5,88.3 764.4,88.3 764.4,88.3 761.2,86.6 755.6,102.5 755.5,102.7 755.4,102.7 
		748.3,102.5 741.8,104.5 741.6,104.5 741.5,104.3 739.4,98.5 730.6,99 729,101.8 729,101.9 728.9,101.9 722.8,103.4 721.8,106.5 
		721.7,106.7 721.6,106.7 718.3,107 717.2,110.7 717.2,110.8 717.1,110.8 713.3,112 714,115.8 719.4,123.7 722.8,124.4 722.9,124.5 
		723,124.6 725.3,130.6 729.2,130.3 729.3,130.3 729.3,130.4 731.9,132.7 732,132.8 732,132.9 732.7,136.6 736.2,138.6 738.7,136.3 
		732,128.4 733.6,123.1 740,120.9 736.6,126 737.4,129.9 742.5,133.4 744.8,133.6 744.7,137.2 746.9,137.8 744.8,148.2 747.2,152.1 
		747.9,164.3 749.8,172.1 752.3,179.9 749.4,183 750.3,186.1 748.7,188.1 752.8,192.8 753.4,200.3 759,206.6 759,206.5 765.6,214 
		801.6,238.1 	"/>
	<polygon class="st2" points="247.2,235.9 247.2,235.8 247.3,235.7 252.7,233.3 258.9,227.1 263.1,221.6 263.9,219.8 259.4,219.2 
		259.3,219.2 259.2,219.1 251.8,213 249.1,214.5 249.1,214.6 249,214.5 241.7,213.7 241.7,213.7 236.8,211.1 236.8,211.1 
		236.7,211.1 232.2,206 226.4,205.5 224.7,209.7 228.8,215.2 228.9,215.2 228.9,215.3 229.1,219.2 229.1,219.3 229,219.4 
		222.2,222.3 222.2,224.5 224,226.2 224.2,226.3 222.1,229.2 222.1,229.1 220.2,231.2 217.7,237.7 217.7,237.7 217.7,237.7 
		215.6,240 214.2,243.5 214.2,243.6 214.2,243.6 211.9,246.1 211.8,246.2 211.7,246.2 209.7,246.1 209.7,250.9 211.9,250.8 
		212.1,250.8 212.1,254.6 216.9,254.8 217.1,254.9 217.1,255.1 217.4,257.8 219.4,258.3 219.5,258.3 219.6,258.5 219.9,259.8 
		219.9,259.8 220.2,261.8 220.9,262.7 222.7,262.3 226.7,257.5 226.8,257.4 226.9,257.4 231.5,256.9 234.4,252.3 234.5,252.1 
		234.8,252.3 236.8,254.6 238.7,253.4 239.4,250.2 239.4,250 239.6,250 244.7,249.8 246.1,248 246.4,244.5 246.4,244.5 246.5,244.4 
		248.7,241.8 247.1,238.6 247,238.6 247,238.5 	"/>
	<polygon class="st2" points="36.4,240.7 40.1,230.1 37.4,227.9 35.1,229.5 25.9,223.2 24.7,225.1 25,232.5 21.5,236.3 22.5,241.4 
		28.6,241.1 35.3,249.6 39.9,252.3 42.7,249 	"/>
</g>
</svg>
