<?xml version="1.0" encoding="utf-8"?>
<!-- Generator: Adobe Illustrator 19.2.1, SVG Export Plug-In . SVG Version: 6.00 Build 0)  -->
<svg version="1.1" id="Layer_1" xmlns="http://www.w3.org/2000/svg" xmlns:xlink="http://www.w3.org/1999/xlink" x="0px" y="0px"
	 viewBox="0 0 802.7 416" style="enable-background:new 0 0 802.7 416;" xml:space="preserve">
<style type="text/css">
	.st0{fill:none;}
	.st1{fill:#1D1D1B;}
	.st2{fill:#0FB5BF;fill-opacity:0.2;}
	.st3{fill:#0FB5BF;}
	.st4{opacity:0.35;}
	.st5{fill:url(#SVGID_1_);}
	.st6{fill:url(#SVGID_2_);}
	.st7{fill:url(#SVGID_3_);}
	.st8{fill:url(#SVGID_4_);}
	.st9{fill:url(#SVGID_5_);}
	.st10{fill:url(#SVGID_6_);}
	.st11{fill:url(#SVGID_7_);}
	.st12{fill:url(#SVGID_8_);}
	.st13{fill:url(#SVGID_9_);}
	.st14{fill:url(#SVGID_10_);}
	.st15{fill:url(#SVGID_11_);}
	.st16{fill:url(#SVGID_12_);}
	.st17{fill:url(#SVGID_13_);}
	.st18{fill:url(#SVGID_14_);}
	.st19{fill:url(#SVGID_15_);}
	.st20{fill:url(#SVGID_16_);}
	.st21{fill:url(#SVGID_17_);}
	.st22{fill:url(#SVGID_18_);}
	.st23{fill:url(#SVGID_19_);}
	.st24{fill:url(#SVGID_20_);}
	.st25{fill:url(#SVGID_21_);}
	.st26{fill:url(#SVGID_22_);}
	.st27{fill:url(#SVGID_23_);}
	.st28{fill:url(#SVGID_24_);}
	.st29{fill:url(#SVGID_25_);}
	.st30{fill:url(#SVGID_26_);}
	.st31{fill:url(#SVGID_27_);}
	.st32{fill:url(#SVGID_28_);}
	.st33{fill:url(#SVGID_29_);}
	.st34{fill:url(#SVGID_30_);}
	.st35{fill:url(#SVGID_31_);}
	.st36{fill:url(#SVGID_32_);}
	.st37{fill:url(#SVGID_33_);}
	.st38{fill:url(#SVGID_34_);}
	.st39{fill:url(#SVGID_35_);}
	.st40{fill:url(#SVGID_36_);}
	.st41{fill:url(#SVGID_37_);}
	.st42{fill:url(#SVGID_38_);}
	.st43{fill:url(#SVGID_39_);}
	.st44{fill:url(#SVGID_40_);}
	.st45{fill:url(#SVGID_41_);}
	.st46{fill:url(#SVGID_42_);}
	.st47{fill:url(#SVGID_43_);}
	.st48{fill:url(#SVGID_44_);}
	.st49{fill:url(#SVGID_45_);}
	.st50{fill:url(#SVGID_46_);}
	.st51{fill:url(#SVGID_47_);}
	.st52{fill:url(#SVGID_48_);}
	.st53{fill:url(#SVGID_49_);}
	.st54{fill:url(#SVGID_50_);}
	.st55{fill:url(#SVGID_51_);}
	.st56{fill:url(#SVGID_52_);}
	.st57{fill:url(#SVGID_53_);}
	.st58{fill:url(#SVGID_54_);}
	.st59{fill:url(#SVGID_55_);}
	.st60{fill:url(#SVGID_56_);}
	.st61{fill:url(#SVGID_57_);}
	.st62{fill:url(#SVGID_58_);}
	.st63{fill:url(#SVGID_59_);}
	.st64{fill:url(#SVGID_60_);}
	.st65{fill:url(#SVGID_61_);}
</style>
<pattern  y="416" width="48" height="48" patternUnits="userSpaceOnUse" id="_x36__dpi_20_x25_" viewBox="2.4 -50.4 48 48" style="overflow:visible;">
	<g>
		<rect x="2.4" y="-50.4" class="st0" width="48" height="48"/>
		<g>
			<circle class="st1" cx="26.4" cy="-2.4" r="2.4"/>
			<circle class="st1" cx="50.4" cy="-2.4" r="2.4"/>
			<circle class="st1" cx="26.4" cy="-26.4" r="2.4"/>
			<circle class="st1" cx="50.4" cy="-26.4" r="2.4"/>
			<circle class="st1" cx="38.4" cy="-14.4" r="2.4"/>
			<circle class="st1" cx="14.4" cy="-14.4" r="2.4"/>
			<circle class="st1" cx="38.4" cy="-38.4" r="2.4"/>
			<circle class="st1" cx="14.4" cy="-38.4" r="2.4"/>
		</g>
		<g>
			<circle class="st1" cx="2.4" cy="-2.4" r="2.4"/>
			<circle class="st1" cx="2.4" cy="-26.4" r="2.4"/>
		</g>
		<g>
			<circle class="st1" cx="26.4" cy="-50.4" r="2.4"/>
			<circle class="st1" cx="50.4" cy="-50.4" r="2.4"/>
		</g>
		<g>
			<circle class="st1" cx="2.4" cy="-50.4" r="2.4"/>
		</g>
	</g>
</pattern>
<g id="yaroslavl">
	<g>
		<path d="M215.9,185.7l-1.7,2.9h-1.7l2.1-3.3c-0.4-0.2-0.7-0.4-1-0.8c-0.2-0.4-0.3-0.8-0.3-1.3c0-0.7,0.2-1.2,0.7-1.6
			c0.5-0.4,1.2-0.6,2.1-0.6h2.4v7.4h-1.6v-2.9h-1V185.7z M216.9,182.4h-0.8c-0.4,0-0.7,0.1-0.9,0.2c-0.2,0.1-0.3,0.4-0.3,0.7
			s0.1,0.6,0.3,0.8s0.5,0.3,1,0.3h0.7V182.4z"/>
		<path d="M225.4,183.4c0,0.8-0.3,1.4-0.8,1.8s-1.2,0.6-2.1,0.6h-0.7v2.6h-1.6V181h2.4c0.9,0,1.6,0.2,2.1,0.6
			S225.4,182.7,225.4,183.4z M221.9,184.6h0.5c0.5,0,0.8-0.1,1.1-0.3s0.4-0.5,0.4-0.8c0-0.4-0.1-0.6-0.3-0.8s-0.5-0.3-0.9-0.3H222
			v2.2L221.9,184.6L221.9,184.6z"/>
		<path d="M233.6,184.8c0,1.2-0.3,2.2-0.9,2.8c-0.6,0.7-1.5,1-2.6,1s-2-0.3-2.6-1s-0.9-1.6-0.9-2.8s0.3-2.2,0.9-2.8
			c0.6-0.7,1.5-1,2.6-1s2,0.3,2.6,1S233.6,183.6,233.6,184.8z M228.2,184.8c0,0.8,0.2,1.5,0.5,1.9s0.8,0.6,1.4,0.6
			c1.3,0,1.9-0.8,1.9-2.5s-0.6-2.5-1.9-2.5c-0.6,0-1.1,0.2-1.4,0.6C228.3,183.4,228.2,184,228.2,184.8z"/>
		<path d="M238.3,182.3c-0.6,0-1.1,0.2-1.4,0.7c-0.3,0.4-0.5,1.1-0.5,1.9c0,1.7,0.6,2.5,1.9,2.5c0.5,0,1.2-0.1,1.9-0.4v1.3
			c-0.6,0.3-1.3,0.4-2,0.4c-1.1,0-1.9-0.3-2.5-1s-0.9-1.6-0.9-2.8c0-0.8,0.1-1.5,0.4-2c0.3-0.6,0.7-1,1.2-1.3s1.1-0.5,1.9-0.5
			c0.7,0,1.4,0.2,2.2,0.5l-0.5,1.3c-0.3-0.1-0.6-0.2-0.8-0.3C238.8,182.4,238.6,182.3,238.3,182.3z"/>
		<path d="M247.7,188.6h-1.6v-6.1h-1.8l-0.1,0.7c-0.2,1.7-0.4,2.9-0.6,3.6s-0.4,1.2-0.7,1.5s-0.7,0.4-1.3,0.4c-0.3,0-0.5,0-0.8-0.1
			v-1.3c0.2,0.1,0.4,0.1,0.6,0.1c0.2,0,0.3-0.1,0.4-0.2c0.1-0.2,0.2-0.5,0.3-0.9s0.2-1.2,0.4-2.2s0.3-2,0.4-2.9h4.7v7.4H247.7z"/>
		<path d="M254.1,188.6l-0.5-1.8h-2.7l-0.5,1.8h-1.7l2.6-7.5h1.9l2.6,7.5H254.1z M253.2,185.5c-0.5-1.6-0.8-2.5-0.8-2.7
			c-0.1-0.2-0.1-0.4-0.1-0.5c-0.1,0.4-0.4,1.5-1,3.2H253.2z"/>
		<path d="M256.7,181.1h2.3c1.1,0,1.8,0.2,2.3,0.5s0.7,0.8,0.7,1.4c0,0.4-0.1,0.8-0.3,1.1c-0.2,0.3-0.5,0.5-0.8,0.5v0.1
			c0.5,0.1,0.8,0.3,1,0.6s0.3,0.7,0.3,1.1c0,0.7-0.2,1.2-0.7,1.6c-0.5,0.4-1.2,0.6-2,0.6h-2.8V181.1z M258.3,184.1h0.9
			c0.4,0,0.7-0.1,0.9-0.2c0.2-0.1,0.3-0.4,0.3-0.7s-0.1-0.5-0.3-0.6c-0.2-0.1-0.5-0.2-1-0.2h-0.8V184.1z M258.3,185.3v1.9h1
			c0.4,0,0.8-0.1,1-0.2c0.2-0.2,0.3-0.4,0.3-0.8c0-0.6-0.4-0.9-1.3-0.9H258.3z"/>
		<path d="M269.6,188.6H268v-6.1h-1.8l-0.1,0.7c-0.2,1.7-0.4,2.9-0.6,3.6s-0.4,1.2-0.7,1.5c-0.3,0.3-0.7,0.4-1.3,0.4
			c-0.3,0-0.5,0-0.8-0.1v-1.3c0.2,0.1,0.4,0.1,0.6,0.1s0.3-0.1,0.4-0.2c0.1-0.2,0.2-0.5,0.3-0.9c0.1-0.4,0.2-1.2,0.4-2.2
			c0.2-1,0.3-2,0.4-2.9h4.7v7.4H269.6z"/>
		<path d="M276.7,186.2c0,1.5-1,2.3-3.1,2.3h-2.2v-7.4h1.6v2.9h0.6c1,0,1.7,0.2,2.2,0.6C276.5,185,276.7,185.5,276.7,186.2z
			 M273.1,187.3h0.5c0.5,0,0.9-0.1,1.2-0.3c0.2-0.2,0.4-0.4,0.4-0.8c0-0.3-0.1-0.6-0.4-0.7s-0.7-0.2-1.3-0.2h-0.4L273.1,187.3
			L273.1,187.3z"/>
	</g>
	<circle class="st2" cx="197.9" cy="184.4" r="8.9"/>
	<circle class="st3" cx="197.9" cy="184.4" r="3"/>
</g>
<g class="st4">
	
		<pattern  id="SVGID_1_" xlink:href="#_x36__dpi_20_x25_" patternTransform="matrix(0.4483 0 0 0.4483 -4231.6763 -4597.0391)"  class="st4">
	</pattern>
	<path class="st5" d="M8.2,235.1c0.8-0.6,1.6-1.2,2.3-1.7c0.1-3.3,0.3-6.4,0.5-10.2c3.8,2.4,6.8,4.4,9.7,6.3
		c0.9-0.4,1.6-0.8,2.4-1.2c0.8,0.6,1.6,1.1,2.6,1.9c-1.2,3.5-2.4,7-3.6,10.6c2.1,2.8,4.1,5.5,6.3,8.4c-1.1,0.9-2,1.6-3,2.5
		c-5.5-1.4-7.2-7-10.9-10.3c-2.2,0-4.2,0-6.2,0C8.2,239.3,8.2,237.2,8.2,235.1z"/>
	
		<pattern  id="SVGID_2_" xlink:href="#_x36__dpi_20_x25_" patternTransform="matrix(0.4483 0 0 0.4483 -4231.6763 -4597.0391)"  class="st4">
	</pattern>
	<path class="st6" d="M329.4,97.8c-1.1,1.3-2,2.3-3,3.4c-1.1-0.2-2.2-0.4-3.3-0.6c-0.5,0.3-1,0.7-1.6,1.2c-0.8-0.4-1.7-0.8-2.6-1.2
		c-0.5,1.3-1,2.4-1.5,3.8c-0.8-0.4-1.4-0.7-1.5-0.8c-1.3,0.5-2.3,0.8-3.8,1.3c0-0.1-0.2,0.5-0.1,0.4c-1.3,1.3-2.2,2.1-3.1,3
		c0,0.2,0,0.5,0,0.7c-1.9-0.5-3.7-1.1-5.7-1.7c0.2,0.8,0.4,1.7,0.9,3.3c-1.2,0.8-2.6,2-4.1,2.7c-3.9,1.7-6.3,4.4-6.7,8.8
		c-0.3,3.7-0.9,7.4-1.4,12c-2.1-1.4-3.6-2.3-5.2-3.3c0.1-0.2,0.2-0.3,0.3-0.5c-0.6-0.1-1.2-0.2-1.9-0.3c-0.7-1.4-1.3-2.9-2-4.4
		c0.8-0.9,1.6-1.7,2.4-2.6c0-1.4,0-2.9,0-4.6c-0.8-0.8-1.6-1.8-2.5-2.8c0-1,0-2.2,0-3.4c0.8-0.6,1.7-1.3,2.7-2.1
		c3.8,1.5,6.4-0.1,8-3.7c0.8-0.1,1.5-0.2,2.3-0.2c0.4-0.9,0.7-1.9,1.1-2.9c1.4,0.5,2.7,0.9,4.3,1.4c0.6-0.8,1.2-1.7,2-2.8
		c-0.2-0.4-0.7-1-1.5-2.2c0.5-0.4,1-0.8,1.5-1.2c1.1,0.4,1.8,0.7,2.8,1.1c2.2-1.4,5.9-0.6,7.3-4.3c0.6-0.1,1.2-0.2,2.1-0.4
		c0.4-1.3,0.8-2.7,1.3-4.5c0.8,0.6,1.5,1.2,2.4,1.8c0.5-0.4,1.1-0.8,1.7-1.2c0,0.1,0.1,0.2,0.1,0.3c1.5-0.4,3.2-0.6,4.6-1.2
		c1.9-0.9,3.4-2.6,6-1.1c0.9,0.5,2.7-0.6,4.4-1.1c1,0.8,2.4,1.8,3.8,2.9c2.8,0.2,5.8,0.4,8.7,0.7c-0.1-0.2-0.1-0.5-0.2-0.7
		c2.1-0.9,4.2-1.8,6.3-2.7c0.9,1.1,1.5,1.9,2.1,2.7c0.7,4-1.5,5.6-5.7,6.5c-4,0.8-8.1,0.5-12.2,0.6
		C335.6,97.8,332.5,97.8,329.4,97.8z"/>
	
		<pattern  id="SVGID_3_" xlink:href="#_x36__dpi_20_x25_" patternTransform="matrix(0.4483 0 0 0.4483 -4231.6763 -4597.0391)"  class="st4">
	</pattern>
	<path class="st7" d="M538.3,86.2c1.6-0.3,3.1-0.5,4.4-0.8c1.5,1.2,2.7,2.1,4.1,3.2c0.4-0.5,0.8-1,1.2-1.6c-0.7-0.8-1.4-1.6-2.3-2.6
		c0.2-0.7,0.3-1.6,0.5-2.4c0.2,0.2,0.4,0.5,0.6,0.7c1.8-0.6,3.5-1.3,5.3-1.6c1.7-0.3,3.5-0.1,5.9-0.1c0.4,2.2,0.8,4.3,1.2,6.6
		c-3.8,0.9-5.5-1.1-6.9-3.7c-0.8,0.3-1.5,0.5-2,0.6c0.8,4.3,5.6,3.6,8,6.4c-0.6,0.7-1.1,1.3-1.7,1.9c-0.7-0.1-1.3-0.3-2.3-0.5
		c-0.8,1.1-1.8,2.3-2.7,3.6c-0.8-0.1-1.5-0.2-2.4-0.3c-0.1,1.3-0.2,2.4-0.2,3.6c-2.9,1.9-7,0.6-8.3-2.5c-0.7-1.6-2-3-2.4-4.7
		C537.9,90.3,538.3,88.4,538.3,86.2z"/>
	
		<pattern  id="SVGID_4_" xlink:href="#_x36__dpi_20_x25_" patternTransform="matrix(0.4483 0 0 0.4483 -4231.6763 -4597.0391)"  class="st4">
	</pattern>
	<path class="st8" d="M436.3,85.6c-1.4-0.3-2.9-0.2-3.8-0.9c-3-2-5.8-4.3-9.2-6.9c0.7-2.1,1.4-4.4,2.2-6.8c2-0.9,4-1.8,6.1-2.8
		c0.5,1.4,0.9,2.5,1.5,4.1c0.8-0.6,1.4-1.1,2.4-1.8c0.5,0.6,1.1,1.5,1.8,2.3c0.2,0,0.5,0.1,0.7,0.1c-0.7,2.2-1.5,4.4-2.4,7.1
		c0.2,0.3,0.8,1,1.4,1.7C436.8,82.8,436.6,83.7,436.3,85.6z"/>
	
		<pattern  id="SVGID_5_" xlink:href="#_x36__dpi_20_x25_" patternTransform="matrix(0.4483 0 0 0.4483 -4231.6763 -4597.0391)"  class="st4">
	</pattern>
	<path class="st9" d="M55,110.2c0.7,0.5,1.5,1.1,2.5,1.8c0.5-1.4,0.9-2.6,1.3-3.8c0.2-0.1,0.4-0.2,0.7-0.3c0.7,1.7,1.8,3.3,1.9,5
		c0.2,2.8-0.3,5.6-0.6,8.7c-1.6,0.8-3.3,1.7-5.3,2.7c-2.9-6.2-5.6-12.2-8.3-18.2c2-0.4,3.7-0.8,5.8-1.2
		C53.6,106.5,54.3,108.3,55,110.2z"/>
	
		<pattern  id="SVGID_6_" xlink:href="#_x36__dpi_20_x25_" patternTransform="matrix(0.4483 0 0 0.4483 -4231.6763 -4597.0391)"  class="st4">
	</pattern>
	<path class="st10" d="M439.6,79.6c1.2-0.5,2.3-1,3.4-1.4c0.3,1.5,0.6,2.6,0.9,4.1c1.2-0.8,1.9-1.3,2.5-1.8c3.6,2,2.7,5.3,2.7,8.6
		c-0.9,0.8-1.9,1.6-3.3,2.8c-3.2-1.1-5.7,1.4-8.4,3.3c-1.2-2.3-1.2-4,0.2-6c1-1.5,1.1-3.6,1.5-5.4C439.4,82.4,439.5,81,439.6,79.6z"
		/>
	
		<pattern  id="SVGID_7_" xlink:href="#_x36__dpi_20_x25_" patternTransform="matrix(0.4483 0 0 0.4483 -4231.6763 -4597.0391)"  class="st4">
	</pattern>
	<path class="st11" d="M433.6,62.7c-0.8,0.6-1.5,1-2.2,1.6c-0.1,0.6-0.2,1.3-0.4,2.4c-1.9,0.9-4,1.9-6.2,2.9c-1.2-1-2.4-1.9-3.7-2.9
		c1-2.8,2.1-5.6,3.1-8.4c-0.2-0.1-0.4-0.2-0.6-0.3c1.6-1.3,3.2-2.6,4.8-3.8C432.2,55.8,432.2,59.6,433.6,62.7z"/>
	
		<pattern  id="SVGID_8_" xlink:href="#_x36__dpi_20_x25_" patternTransform="matrix(0.4483 0 0 0.4483 -4231.6763 -4597.0391)"  class="st4">
	</pattern>
	<path class="st12" d="M664.8,29.3c-2.3-2.6-4.1-4.6-5.7-6.4c-1.1-3.6,0.7-6.1,2.8-8.5c1.6-0.2,3-0.4,4.7-0.6
		c0.6,0.8,1.3,1.7,1.9,2.4C667.2,20.6,666.1,24.7,664.8,29.3z"/>
	
		<pattern  id="SVGID_9_" xlink:href="#_x36__dpi_20_x25_" patternTransform="matrix(0.4483 0 0 0.4483 -4231.6763 -4597.0391)"  class="st4">
	</pattern>
	<path class="st13" d="M563.1,82.5c-0.5-1-0.9-1.9-1.3-3c1-0.2,1.6-0.3,2.2-0.4c0.2-0.6,0.3-1.1,0.4-1.4c1.3-0.8,2.4-1.5,4-2.5
		c0.6,0.1,1.7,0.2,3,0.4c0.6-0.5,1.3-1.1,2.2-1.8c0.6,1.1,1.1,2.1,1.7,3.2c-0.7,1.5-1.3,3-2.2,4.4c-0.4,0.6-1.3,1.1-2,1.1
		C568.6,82.6,566,82.5,563.1,82.5z"/>
	
		<pattern  id="SVGID_10_" xlink:href="#_x36__dpi_20_x25_" patternTransform="matrix(0.4483 0 0 0.4483 -4231.6763 -4597.0391)"  class="st4">
	</pattern>
	<path class="st14" d="M569.8,105.8c-3.4,1.2-6.3,2.3-9.4,3.4c-1.6-3.8,0.3-6,2.3-8.3c1.6,0.3,3.2,0.6,5.1,1
		C568.3,102.9,568.9,104,569.8,105.8z"/>
	
		<pattern  id="SVGID_11_" xlink:href="#_x36__dpi_20_x25_" patternTransform="matrix(0.4483 0 0 0.4483 -4231.6763 -4597.0391)"  class="st4">
	</pattern>
	<path class="st15" d="M257.7,124.9c1.4,1.6,2.2,2.4,3.2,3.5c0,1.3,0,2.9,0,4.8c-2-0.2-3.7-0.4-5.3-0.5c-1.7-1.2-3-2.8-1.9-4.6
		C254.5,126.7,256.3,125.9,257.7,124.9z"/>
	
		<pattern  id="SVGID_12_" xlink:href="#_x36__dpi_20_x25_" patternTransform="matrix(0.4483 0 0 0.4483 -4231.6763 -4597.0391)"  class="st4">
	</pattern>
	<path class="st16" d="M737.6,150.5c0.6-1.7,1.1-3,1.8-4.8c1.7,0.8,3.2,1.4,4.7,2.1c-0.3,2.9-0.6,5.5-1,8.7
		C741.1,154.3,739.3,152.4,737.6,150.5z"/>
	
		<pattern  id="SVGID_13_" xlink:href="#_x36__dpi_20_x25_" patternTransform="matrix(0.4483 0 0 0.4483 -4231.6763 -4597.0391)"  class="st4">
	</pattern>
	<path class="st17" d="M348.3,34.2c0.6,0.6,1.3,1.5,2.4,2.7c-0.9,0.7-1.5,1.2-1.9,1.5c-2.2-0.2-4-0.4-6-0.6c0,1.4,0,2.2,0,3
		c-2.5-0.8-4.1-2.9-3.8-4.5C342,35.5,344.9,34.9,348.3,34.2z"/>
	
		<pattern  id="SVGID_14_" xlink:href="#_x36__dpi_20_x25_" patternTransform="matrix(0.4483 0 0 0.4483 -4231.6763 -4597.0391)"  class="st4">
	</pattern>
	<path class="st18" d="M772.4,334.6c-0.3-4-0.5-7.3-0.8-10.4c1.7-2,3.1-3.6,5-5.8c0.2,1.1,0.9,2.3,0.6,2.8c-2.8,3.7-3.1,8-3.6,12.3
		C773.5,333.6,773.2,333.8,772.4,334.6z"/>
	
		<pattern  id="SVGID_15_" xlink:href="#_x36__dpi_20_x25_" patternTransform="matrix(0.4483 0 0 0.4483 -4231.6763 -4597.0391)"  class="st4">
	</pattern>
	<path class="st19" d="M297.5,147.9c-1.6,0-2.3,0-3.6,0c-0.6-2-1.2-4.2-1.9-6.7c1.8-0.5,2.9-0.7,4.8-1.2
		C297.1,142.8,297.3,145.2,297.5,147.9z"/>
	
		<pattern  id="SVGID_16_" xlink:href="#_x36__dpi_20_x25_" patternTransform="matrix(0.4483 0 0 0.4483 -4231.6763 -4597.0391)"  class="st4">
	</pattern>
	<path class="st20" d="M780.1,314.7c-2.1-1.6-1.8-9.1,0.4-10.3C783.1,307,782.9,312.4,780.1,314.7z"/>
	
		<pattern  id="SVGID_17_" xlink:href="#_x36__dpi_20_x25_" patternTransform="matrix(0.4483 0 0 0.4483 -4231.6763 -4597.0391)"  class="st4">
	</pattern>
	<path class="st21" d="M775.3,244c1.1,0.8,2,1.4,2.8,2c0.1,2.1,0.2,4,0.3,6.1c-0.6,0.2-1.3,0.4-1.9,0.6
		C773.7,250.3,773.4,248.1,775.3,244z"/>
	
		<pattern  id="SVGID_18_" xlink:href="#_x36__dpi_20_x25_" patternTransform="matrix(0.4483 0 0 0.4483 -4231.6763 -4597.0391)"  class="st4">
	</pattern>
	<path class="st22" d="M777.4,163.1c3.4-2.2,7.2-1.5,8.4,1.6C783.1,166.9,778.3,166,777.4,163.1z"/>
	
		<pattern  id="SVGID_19_" xlink:href="#_x36__dpi_20_x25_" patternTransform="matrix(0.4483 0 0 0.4483 -4231.6763 -4597.0391)"  class="st4">
	</pattern>
	<path class="st23" d="M768.7,348.9c-0.6-1.3-1.1-2.1-1.5-2.9c0.2,0,0.3-0.1,0.5-0.1c-0.1-2.1-0.2-4.2-0.4-6.8
		c1-0.2,2.2-0.5,3.7-0.9C770.2,342,769.5,345.2,768.7,348.9z"/>
	
		<pattern  id="SVGID_20_" xlink:href="#_x36__dpi_20_x25_" patternTransform="matrix(0.4483 0 0 0.4483 -4231.6763 -4597.0391)"  class="st4">
	</pattern>
	<path class="st24" d="M424,71.2c-0.9,1-1.8,2.1-2.7,3.2c-1.9-1.5-4.4-1.9-3.9-4.9c2.5-1.7,4.2,0.7,6.2,0.9
		C423.7,70.7,423.8,70.9,424,71.2z"/>
	
		<pattern  id="SVGID_21_" xlink:href="#_x36__dpi_20_x25_" patternTransform="matrix(0.4483 0 0 0.4483 -4231.6763 -4597.0391)"  class="st4">
	</pattern>
	<path class="st25" d="M367,49.7c-1.1,0.5-2.2,1.1-3.4,1.7c-0.8-0.7-1.6-1.3-2.8-2.4c1-1.1,2-2.1,2.9-3
		C365.7,46.5,367.7,46.8,367,49.7z"/>
	
		<pattern  id="SVGID_22_" xlink:href="#_x36__dpi_20_x25_" patternTransform="matrix(0.4483 0 0 0.4483 -4231.6763 -4597.0391)"  class="st4">
	</pattern>
	<path class="st26" d="M358.4,38.5c1.3,1.1,2.6,2.2,3.8,3.2c-0.3,0.9-0.5,1.5-0.7,2.3c-2.8,0-4.7-1.1-5.8-3.9
		C356.6,39.6,357.4,39.1,358.4,38.5z"/>
	
		<pattern  id="SVGID_23_" xlink:href="#_x36__dpi_20_x25_" patternTransform="matrix(0.4483 0 0 0.4483 -4231.6763 -4597.0391)"  class="st4">
	</pattern>
	<path class="st27" d="M369.2,48.3c1.2,0.1,2.1,0.2,3.1,0.2c0.4-0.5,0.9-1.1,1.4-1.8c0.5,0.5,1,0.9,1.7,1.5c-0.7,1-1.3,2-1.8,2.7
		c-1.5,0-2.8,0-4.2,0C369.3,50.1,369.3,49.3,369.2,48.3z"/>
	
		<pattern  id="SVGID_24_" xlink:href="#_x36__dpi_20_x25_" patternTransform="matrix(0.4483 0 0 0.4483 -4231.6763 -4597.0391)"  class="st4">
	</pattern>
	<path class="st28" d="M477.1,135.3c-0.8-0.8-1.5-1.6-2.2-2.3c0.3-0.9,0.6-1.6,1.1-2.7c1.1,0.3,2.1,0.5,3.1,0.8
		c0,0.9,0.1,1.6,0.1,2.6C478.8,134,478.2,134.5,477.1,135.3z"/>
	
		<pattern  id="SVGID_25_" xlink:href="#_x36__dpi_20_x25_" patternTransform="matrix(0.4483 0 0 0.4483 -4231.6763 -4597.0391)"  class="st4">
	</pattern>
	<path class="st29" d="M786.6,293.8c-1.7,0.5-2.7,0.8-4.3,1.2c-0.2-1.4-0.5-2.5-0.4-3.6c0-0.3,1.5-1,1.7-0.8
		C784.7,291.3,785.4,292.3,786.6,293.8z"/>
	
		<pattern  id="SVGID_26_" xlink:href="#_x36__dpi_20_x25_" patternTransform="matrix(0.4483 0 0 0.4483 -4231.6763 -4597.0391)"  class="st4">
	</pattern>
	<path class="st30" d="M400.5,55.6c-1.8,0-2.9,0-4.6,0c0.4-1.6,0.6-2.9,0.9-4.1c0.4,0,0.7-0.1,1.1-0.1
		C398.7,52.6,399.5,53.8,400.5,55.6z"/>
	
		<pattern  id="SVGID_27_" xlink:href="#_x36__dpi_20_x25_" patternTransform="matrix(0.4483 0 0 0.4483 -4231.6763 -4597.0391)"  class="st4">
	</pattern>
	<path class="st31" d="M338.8,30c1.8,0.6,3.4,1.1,5.7,1.8c0,0,0.5,0.5,1.2,1.2C341.8,33.6,339.2,32.5,338.8,30z"/>
	
		<pattern  id="SVGID_28_" xlink:href="#_x36__dpi_20_x25_" patternTransform="matrix(0.4483 0 0 0.4483 -4231.6763 -4597.0391)"  class="st4">
	</pattern>
	<path class="st32" d="M557.8,105c-0.8-0.2-1.3-0.3-1.9-0.5c0-1.6,0-3,0-5.1c1.3,1.1,2,1.6,2.8,2.3
		C558.4,102.8,558.1,103.7,557.8,105z"/>
	
		<pattern  id="SVGID_29_" xlink:href="#_x36__dpi_20_x25_" patternTransform="matrix(0.4483 0 0 0.4483 -4231.6763 -4597.0391)"  class="st4">
	</pattern>
	<path class="st33" d="M421.8,56.2c-1.7-0.3-3-0.5-4.4-0.8c0.2-0.9,0.3-1.6,0.5-2.5c0.9,0,1.8-0.1,2.9-0.1
		C421.1,53.8,421.4,54.8,421.8,56.2z"/>
	
		<pattern  id="SVGID_30_" xlink:href="#_x36__dpi_20_x25_" patternTransform="matrix(0.4483 0 0 0.4483 -4231.6763 -4597.0391)"  class="st4">
	</pattern>
	<path class="st34" d="M533.8,95.9c0-0.9,0-1.5,0-2.3c2.4,0.8,3.6,2.4,3.9,4.7c-0.2,0.2-0.5,0.4-0.7,0.7
		C536,97.9,534.9,96.9,533.8,95.9z"/>
	
		<pattern  id="SVGID_31_" xlink:href="#_x36__dpi_20_x25_" patternTransform="matrix(0.4483 0 0 0.4483 -4231.6763 -4597.0391)"  class="st4">
	</pattern>
	<path class="st35" d="M369.3,144.1c0.6-0.8,1-1.5,1.5-2.2c0.3-0.1,0.6-0.1,0.9-0.2c0.4,1.3,0.9,2.7,1.3,4.1c-0.6,0.4-1,0.6-1.6,1
		C370.7,145.9,370.1,145.1,369.3,144.1z"/>
	
		<pattern  id="SVGID_32_" xlink:href="#_x36__dpi_20_x25_" patternTransform="matrix(0.4483 0 0 0.4483 -4231.6763 -4597.0391)"  class="st4">
	</pattern>
	<path class="st36" d="M542.8,109.9c1.2,0,2.3,0,3.6,0c0.3,0.7,0.7,1.3,1.1,2.1c-0.8,0.4-1.4,0.7-2.2,1.2c-1-0.9-1.9-1.9-2.9-2.8
		C542.5,110.2,542.7,110,542.8,109.9z"/>
	
		<pattern  id="SVGID_33_" xlink:href="#_x36__dpi_20_x25_" patternTransform="matrix(0.4483 0 0 0.4483 -4231.6763 -4597.0391)"  class="st4">
	</pattern>
	<path class="st37" d="M390.3,70c-2.7,0.8-3.7-0.2-4.1-2.4c0.6-0.4,1.2-0.8,2.3-1.4C389.1,67.6,389.6,68.7,390.3,70z"/>
	
		<pattern  id="SVGID_34_" xlink:href="#_x36__dpi_20_x25_" patternTransform="matrix(0.4483 0 0 0.4483 -4231.6763 -4597.0391)"  class="st4">
	</pattern>
	<path class="st38" d="M470.1,141c-1.4-2.2-0.5-3.7,2.2-3.8c0.2,0.6,0.5,1.2,0.9,2C472,139.9,471.1,140.4,470.1,141z"/>
	
		<pattern  id="SVGID_35_" xlink:href="#_x36__dpi_20_x25_" patternTransform="matrix(0.4483 0 0 0.4483 -4231.6763 -4597.0391)"  class="st4">
	</pattern>
	<path class="st39" d="M782.2,259.8c-1.7,0.9-2.5,1.3-3.8,2c-0.3-1.6-0.5-2.7-0.7-3.9c0.3-0.1,0.5-0.3,0.8-0.4
		C779.5,258.2,780.6,258.8,782.2,259.8z"/>
	
		<pattern  id="SVGID_36_" xlink:href="#_x36__dpi_20_x25_" patternTransform="matrix(0.4483 0 0 0.4483 -4231.6763 -4597.0391)"  class="st4">
	</pattern>
	<path class="st40" d="M366.1,148.9c-1.5-0.2-2.5-0.3-3.5-0.4c-0.2-0.3-0.3-0.6-0.5-0.8c0.9-0.8,1.7-1.5,3-2.7
		C365.6,146.5,365.8,147.3,366.1,148.9z"/>
	
		<pattern  id="SVGID_37_" xlink:href="#_x36__dpi_20_x25_" patternTransform="matrix(0.4483 0 0 0.4483 -4231.6763 -4597.0391)"  class="st4">
	</pattern>
	<path class="st41" d="M787,159.1c1.8-0.6,3.1-1.1,4.3-1.5c0.2,0.2,0.3,0.5,0.5,0.7c-1,0.9-2,1.8-3.2,2.8
		C788.1,160.5,787.7,159.9,787,159.1z"/>
	
		<pattern  id="SVGID_38_" xlink:href="#_x36__dpi_20_x25_" patternTransform="matrix(0.4483 0 0 0.4483 -4231.6763 -4597.0391)"  class="st4">
	</pattern>
	<path class="st42" d="M386.4,120.2c-0.7-0.8-1.3-1.4-2.2-2.3c1.1-0.5,1.8-0.8,2.7-1.3c0.5,0.9,0.9,1.5,1.3,2.3
		C387.7,119.4,387.2,119.7,386.4,120.2z"/>
	
		<pattern  id="SVGID_39_" xlink:href="#_x36__dpi_20_x25_" patternTransform="matrix(0.4483 0 0 0.4483 -4231.6763 -4597.0391)"  class="st4">
	</pattern>
	<path class="st43" d="M782.3,274.7c0.5,0.8,0.9,1.6,1.4,2.5c-0.5,0.5-0.9,1-1.5,1.6c-0.5-0.5-1.2-0.9-1.3-1.3
		c-0.1-0.9,0.2-1.8,0.4-2.7C781.7,274.7,782,274.7,782.3,274.7z"/>
	
		<pattern  id="SVGID_40_" xlink:href="#_x36__dpi_20_x25_" patternTransform="matrix(0.4483 0 0 0.4483 -4231.6763 -4597.0391)"  class="st4">
	</pattern>
	<path class="st44" d="M350.6,44.2c-0.7,0.6-1.2,1-1.9,1.7c-0.5-0.9-0.9-1.6-1.3-2.5c0.7-0.5,1.4-1,2.2-1.6
		C350,42.7,350.3,43.3,350.6,44.2z"/>
	
		<pattern  id="SVGID_41_" xlink:href="#_x36__dpi_20_x25_" patternTransform="matrix(0.4483 0 0 0.4483 -4231.6763 -4597.0391)"  class="st4">
	</pattern>
	<path class="st45" d="M355.8,50.1c0.7-1,1.4-2,2.4-3.7c0.4,1.3,0.7,2.1,1,3c-1.1,0.5-2,1-2.8,1.4C356.3,50.5,356,50.3,355.8,50.1z"
		/>
	
		<pattern  id="SVGID_42_" xlink:href="#_x36__dpi_20_x25_" patternTransform="matrix(0.4483 0 0 0.4483 -4231.6763 -4597.0391)"  class="st4">
	</pattern>
	<path class="st46" d="M364.3,39.1c-0.6-0.3-1.1-0.6-2.1-1.2c0.7-0.9,1.2-1.6,1.7-2.4c0.3,0.1,0.6,0.2,0.9,0.2
		c0.1,1.1,0.2,2.1,0.3,3.2C364.9,39,364.6,39,364.3,39.1z"/>
	
		<pattern  id="SVGID_43_" xlink:href="#_x36__dpi_20_x25_" patternTransform="matrix(0.4483 0 0 0.4483 -4231.6763 -4597.0391)"  class="st4">
	</pattern>
	<path class="st47" d="M772.4,243c0,1,0,2,0,3.8c-1.2-0.9-1.9-1.4-3.3-2.4c0.9-0.9,1.5-1.5,2-2C771.5,242.5,771.9,242.7,772.4,243z"
		/>
	
		<pattern  id="SVGID_44_" xlink:href="#_x36__dpi_20_x25_" patternTransform="matrix(0.4483 0 0 0.4483 -4231.6763 -4597.0391)"  class="st4">
	</pattern>
	<path class="st48" d="M453,89.4c1.5,1.1,2.6,1.9,3.6,2.6C454.7,92.4,452.8,92.7,453,89.4z"/>
	
		<pattern  id="SVGID_45_" xlink:href="#_x36__dpi_20_x25_" patternTransform="matrix(0.4483 0 0 0.4483 -4231.6763 -4597.0391)"  class="st4">
	</pattern>
	<path class="st49" d="M630.1,87.1c-0.2-1.3-0.4-2.1-0.6-3c0.3-0.2,0.5-0.4,0.8-0.5c0.7,0.5,1.5,1,2.6,1.8
		C631.8,86,631.2,86.3,630.1,87.1z"/>
	
		<pattern  id="SVGID_46_" xlink:href="#_x36__dpi_20_x25_" patternTransform="matrix(0.4483 0 0 0.4483 -4231.6763 -4597.0391)"  class="st4">
	</pattern>
	<path class="st50" d="M355.7,48.3c-0.7,0.4-1.3,0.9-2.5,1.6c-0.3-0.8-0.5-1.6-1-3c1.5,0.2,2.3,0.3,3.2,0.4
		C355.5,47.7,355.6,48,355.7,48.3z"/>
	
		<pattern  id="SVGID_47_" xlink:href="#_x36__dpi_20_x25_" patternTransform="matrix(0.4483 0 0 0.4483 -4231.6763 -4597.0391)"  class="st4">
	</pattern>
	<path class="st51" d="M782.2,287c0-0.8,0-1.7,0-2.7c0.8,0,1.4,0,2.5,0c-0.6,1.2-1,2.1-1.5,3C782.9,287.2,782.5,287.1,782.2,287z"/>
	
		<pattern  id="SVGID_48_" xlink:href="#_x36__dpi_20_x25_" patternTransform="matrix(0.4483 0 0 0.4483 -4231.6763 -4597.0391)"  class="st4">
	</pattern>
	<path class="st52" d="M775.9,343.4c-0.1-1.1-0.2-2.1-0.3-3.2c0.3-0.1,0.7-0.2,1-0.3c0.4,0.7,1,1.3,1.1,2c0.1,0.5-0.6,1.1-0.9,1.6
		C776.5,343.5,776.2,343.5,775.9,343.4z"/>
	
		<pattern  id="SVGID_49_" xlink:href="#_x36__dpi_20_x25_" patternTransform="matrix(0.4483 0 0 0.4483 -4231.6763 -4597.0391)"  class="st4">
	</pattern>
	<path class="st53" d="M387.1,132.2c0.1,1,0.2,1.9,0.3,2.9c-0.3,0.1-0.6,0.1-0.9,0.2c-0.5-0.4-0.9-0.8-1.5-1.4
		c0.4-0.7,0.7-1.2,1.1-1.8C386.4,132.2,386.7,132.2,387.1,132.2z"/>
	
		<pattern  id="SVGID_50_" xlink:href="#_x36__dpi_20_x25_" patternTransform="matrix(0.4483 0 0 0.4483 -4231.6763 -4597.0391)"  class="st4">
	</pattern>
	<path class="st54" d="M282.4,121.7c-0.2-0.9-0.4-1.8-0.7-3.2c0.8,0.2,1.7,0.2,1.7,0.4c0.1,1-0.1,2-0.1,3
		C283,121.8,282.7,121.7,282.4,121.7z"/>
	
		<pattern  id="SVGID_51_" xlink:href="#_x36__dpi_20_x25_" patternTransform="matrix(0.4483 0 0 0.4483 -4231.6763 -4597.0391)"  class="st4">
	</pattern>
	<path class="st55" d="M411,99.9c0.3,0.8,0.7,1.7,1.3,3.2c-1.4-0.6-2-0.9-2.9-1.3c0.3-0.7,0.5-1.3,0.7-1.9
		C410.5,99.9,410.7,99.9,411,99.9z"/>
	
		<pattern  id="SVGID_52_" xlink:href="#_x36__dpi_20_x25_" patternTransform="matrix(0.4483 0 0 0.4483 -4231.6763 -4597.0391)"  class="st4">
	</pattern>
	<path class="st56" d="M775.2,242.5c0.9-1.2,1.1-1.5,1.6-2.1c0.6,0.6,1.2,1,1.7,1.5c0,0.2-0.1,0.4-0.1,0.6
		C777.5,242.5,776.7,242.5,775.2,242.5z"/>
	
		<pattern  id="SVGID_53_" xlink:href="#_x36__dpi_20_x25_" patternTransform="matrix(0.4483 0 0 0.4483 -4231.6763 -4597.0391)"  class="st4">
	</pattern>
	<path class="st57" d="M377.2,124.5c0,0.8-0.1,1.6-0.1,2.5c-0.4,0-0.8-0.1-1.2-0.1c0-0.8,0.1-1.6,0.1-2.5
		C376.3,124.4,376.7,124.5,377.2,124.5z"/>
	
		<pattern  id="SVGID_54_" xlink:href="#_x36__dpi_20_x25_" patternTransform="matrix(0.4483 0 0 0.4483 -4231.6763 -4597.0391)"  class="st4">
	</pattern>
	<path class="st58" d="M187.6,116.7c0.4,0.9,0.8,1.5,1.4,2.8c-1.4-0.3-2.1-0.5-3.3-0.8C186.6,117.8,187,117.4,187.6,116.7z"/>
	
		<pattern  id="SVGID_55_" xlink:href="#_x36__dpi_20_x25_" patternTransform="matrix(0.4483 0 0 0.4483 -4231.6763 -4597.0391)"  class="st4">
	</pattern>
	<path class="st59" d="M559.5,64.6c-0.7,0.3-1.4,0.6-2,0.9c-0.1-0.2-0.3-0.4-0.4-0.6c0.2-0.6,0.4-1.1,0.7-1.9
		c0.7,0.3,1.1,0.5,1.6,0.8C559.4,64.1,559.5,64.4,559.5,64.6z"/>
	
		<pattern  id="SVGID_56_" xlink:href="#_x36__dpi_20_x25_" patternTransform="matrix(0.4483 0 0 0.4483 -4231.6763 -4597.0391)"  class="st4">
	</pattern>
	<path class="st60" d="M356.4,139.2c-0.1-1.1-0.2-1.7-0.2-2.4c0.2-0.1,0.4-0.2,0.6-0.3c0.5,0.5,1.1,1,1.9,1.8
		C357.7,138.7,357.2,138.9,356.4,139.2z"/>
	
		<pattern  id="SVGID_57_" xlink:href="#_x36__dpi_20_x25_" patternTransform="matrix(0.4483 0 0 0.4483 -4231.6763 -4597.0391)"  class="st4">
	</pattern>
	<path class="st61" d="M425.9,104.6c1.1-0.6,1.6-0.8,2.3-1.2c0.2,0.7,0.3,1.3,0.6,2.5C427.7,105.4,427.1,105.1,425.9,104.6z"/>
	
		<pattern  id="SVGID_58_" xlink:href="#_x36__dpi_20_x25_" patternTransform="matrix(0.4483 0 0 0.4483 -4231.6763 -4597.0391)"  class="st4">
	</pattern>
	<path class="st62" d="M373.6,40.2c0.7-0.3,1.2-0.5,2.2-1c-0.3,1.2-0.4,1.9-0.8,3.3C374.3,41.3,374,40.8,373.6,40.2z"/>
	
		<pattern  id="SVGID_59_" xlink:href="#_x36__dpi_20_x25_" patternTransform="matrix(0.4483 0 0 0.4483 -4231.6763 -4597.0391)"  class="st4">
	</pattern>
	<path class="st63" d="M368.1,33.7c0.5,0.6,0.9,1.2,1.4,1.8c-0.2,0.2-0.3,0.4-0.5,0.6c-0.6-0.5-1.2-1-1.7-1.5
		C367.5,34.3,367.8,34,368.1,33.7z"/>
	
		<pattern  id="SVGID_60_" xlink:href="#_x36__dpi_20_x25_" patternTransform="matrix(0.4483 0 0 0.4483 -4231.6763 -4597.0391)"  class="st4">
	</pattern>
	<path class="st64" d="M394.2,129.1c-0.4-0.6-0.7-1.2-1.1-1.9c0.3-0.2,0.6-0.4,0.8-0.6c0.4,0.6,0.9,1.2,1.3,1.7
		C394.9,128.6,394.6,128.9,394.2,129.1z"/>
	
		<pattern  id="SVGID_61_" xlink:href="#_x36__dpi_20_x25_" patternTransform="matrix(0.4483 0 0 0.4483 -4231.6763 -4597.0391)"  class="st4">
	</pattern>
	<path class="st65" d="M776,230.6c-0.2-5.8-0.4-11.5-5.8-15.2c0-2.2,0-4.1,0-6c0.7-0.9,1.4-1.7,2.1-2.6c-2.5-2.9-4.8-5.6-7-8.2
		c0-2.1,0-4,0-5.9c1.1-1.2,2.1-2.4,3.1-3.4c-0.3-1.1-0.5-2-0.7-3c-0.4-0.2-0.8-0.6-1.2-0.6c-4.3-0.4-6.3-3.3-7.9-6.7
		c-0.8-1.8-2-3.5-2.9-5.2c-0.1-0.2-0.1-0.4-0.2-0.7c0.4-0.4,0.8-0.8,1.3-1.3c0.7,0.8,1.3,1.5,2.1,2.5c0.8-0.5,1.7-1,2.6-1.5
		c-1.5-1.6-2.8-3-4.1-4.3c-4,1.7-5.3,0.8-9.3-6.1c-1.1,0-2.3,0-3.5,0c-0.5,0.9-0.9,1.7-1.3,2.5c-0.9,0-1.6,0-2.4,0
		c-2.5-4.9-4.8-9.8-7.4-14.6c-1.6-2.9-1.8-5.7-0.7-8.6c1.1-0.4,2-0.8,3-1.1c-0.8-3.4-1.5-6.3-2.4-10.1c2.1,1.6,3.6,2.7,5.4,4
		c0-4.2,0-7.9,0-11.7c1.7-1.7,3.3-3.2,5.1-5c1.8,0,3.8,0,5.7,0c0.1-0.5,0.1-0.6,0.1-0.7c-4.2-7.5-3.9-16-4.8-24.2
		c-0.7-6-1-12-1.5-17.9c-1.3-0.8-2.4-1.6-3.9-2.5c3.2-2.3,6.1-4.2,9-6.3c-0.5-1.5-1-2.8-1.5-4.1c-5.8-0.4-11.3-0.8-16.2-1.2
		c-1.4,1.2-2.2,2-2.9,2.7c-1.6,0.1-2.9,0.3-4,0.4c-0.5,1.4-0.8,2.4-1.1,3.2c-1.4,0-2.4,0-3.5,0c0-1.8,0-3.4,0-5.1
		c1.5-0.6,2.9-1.1,4.1-1.6c3.1-4,0.7-8,1.2-11.9c-0.7-0.4-1.3-0.7-1.8-0.9c-0.7,0.3-1.3,0.6-2,0.9c-0.1-1-0.3-1.8-0.4-2.6
		c-4.8,0.3-4.8,0.3-6.6-2.3c0.3-1.5,0.7-3.1,1.2-5c1.2,1.1,2.2,2,3.3,2.9c0.7-0.5,1.3-1,1.9-1.4c1,0.9,1.9,1.6,2.7,2.4
		c0.3-0.1,0.6-0.1,0.9-0.2c0.3-2.5,0.6-4.9,0.9-7.8c2.1-2.5,2.1-2.3,5.8-2.2c5.1,0.2,7.2-4.5,11.1-6.5c-0.9-1.1-1.4-1.8-2.1-2.7
		c1.6,0.1,2.9,0.2,4.5,0.3c-0.1-1.4-0.2-2.5-0.3-3.7c-1.7,0.3-3,0.5-4.6,0.8c-0.5-4.6-4.8-3.2-7.7-4.6c0.7-1.1,1.3-2.1,1.9-3.1
		c-1-0.8-1.9-1.6-2.8-2.4c1.1-0.8,2-1.5,2.7-2.1c-1.4-2.2-2.5-3.8-3.5-5.4c-0.1,0-0.3,0-0.4,0c-1.3,1-2.6,1.9-4,2.9
		c-2.1,1.4-5,2.4-6.3,4.3c-1.6,2.5-1.9,5.8-2.8,8.9c1.7,0.7,3.8,1.5,6.2,2.5c-1.8,1.4-3.4,2.3-5.6,1.6c-2.7-0.8-5.4-1.6-8.1-2.1
		c-1.2-0.2-2.8,0-3.8,0.6c-9.2,5.3-18.2,10.7-27.3,16.1c-2,1.2-4.3,2.2-5.8,3.9c-2,2.3-3.3,5.2-4.9,7.9c0.1,0.8,0.2,1.6,0.3,1.8
		c-3.2,2.2-6,4.2-9,6.4c1.6,1.9,2.7,3.3,4,4.8c3.6-2,5.8,0.3,8.4,2.1c-0.3,1.7-0.5,3.4-0.7,4.5c-2.5,0.8-4.6,1.6-6.7,2.2
		c-0.7,0.2-1.7,0-2.4-0.3c-1.6-0.8-3.1-1.8-5.1-2.9c0,3,0,5.5,0,7.9c-3.1,2.8-7.1,4.3-8.4,8.6c-0.2,0.7-0.1,1.8-0.6,2.2
		c-2.8,2.4-5.8,4.6-8.9,7c-1.6-1.7-2.5-3.4-3.8-4c-2-1-4.8-2.3-6.5-1.6c-3,1.1-5.7,3.4-8.1,5.6c-3.3,3-5.4,6.8-5.8,11.7
		c-1.8,0-3.6,0.5-5-0.1c-2.3-1-4.4-1.6-6.9-0.5c-0.6,0.7-1.2,1.5-1.8,2.2c-0.7-0.4-1.3-0.7-1.8-1c-0.7,0.4-1.3,0.8-2,1.2
		c-0.7-0.6-1.2-1.1-1.8-1.6c0.9-1,1.5-1.8,2.7-3.1c-2.7-0.2-4.8-0.3-6.8-0.4c-1.3,1.2-2.3,2.2-3.6,3.4c0.7,2.4,1.3,4.8,1.9,6.8
		c-1.3,1.6-2.3,2.9-3.6,4.6c-0.2-2.4-0.3-4-0.4-5.7c-1.2,0-2.1,0-2.9,0c-0.8,0.7-1.6,1.3-2.5,2.2c-0.2-1.3-0.3-2.1-0.4-2.9
		c1-1.1,1.9-2.1,3-3.2c-3.1-0.3-10.5,2.8-15.5,6.3c0.6,0.9,1.2,1.9,1.8,2.9c-1.1,1.2-2.2,2.4-3.3,3.6c0.4,0.7,0.7,1.4,1.1,2.1
		c1-0.3,1.9-0.5,2.9-0.8c0.1,1.3,0.1,2.5,0.2,3.4c1,1.3,1.8,2.4,2.6,3.6c-2.1,0.9-3.9,1.7-5.8,2.6c0.4,1.6,0.8,2.7,1.3,4.6
		c-3.3-0.4-6.1-0.8-9.1-1.2c-0.5,1.7-0.9,3.5-1.4,5.2c-2.9-0.4-5.7-0.8-8.8-1.2c0,4.5,0,8.5,0,12.4c-7.8,0.7-10.8-6-16-9.4
		c1.3-1,2.3-1.8,3.5-2.6c-1.9-2.9-3.8-5.7-5.6-8.4c-1.4-0.6-2.6-1.2-4-1.7c-1.7,0.6-3.5,1.3-5.1,1.9c-2.2-0.7-4.2-1.4-6.6-2.1
		c-0.3,3.5-0.6,6.5-0.9,9.5c-3.9,1.6-7.7,3.3-11.8,5c-1.6-1.5-3.2-2.9-4.7-4.4c0.2-0.3,0.4-0.6,0.5-0.9c-3.5,0-7.1,0-11.2,0
		c-1.1,1.5-2.4,3.5-3.6,5.2c-0.7-1.3-1.7-2.9-2.7-4.6c-2.6,2-4.7,3.7-6.8,5.3c-1.4,0.2-2.6,0.7-3.8,1.4c-2.8,1.6-5.5,3.2-8.3,4.8
		c-0.1-0.2-0.2-0.4-0.3-0.6c-0.7,1-1.5,2.1-2.2,3.1c-0.3-0.9-0.2-1.6-0.1-2.3c0.1-0.8,0.2-1.6,0.4-2.8c9.1-8.4,16.8-17.9,18.7-31
		c-2.7-3.1-5.5-6.2-8.1-9.2c-2.6,0-4.9,0-7.3,0c-1,1.3-2,2.5-3,3.8c-0.9,0.2-1.8,0.3-3,0.5c0.6-2.3,1.2-4.3,1.9-6.6
		c-2.1-0.3-3.8-0.5-5.7-0.7c0.6-1.1,1-2.1,1.6-3.2c-1.3-1-2.5-2-3.7-3c-1.3,0.5-2.4,1-3.4,1.4c-1.8,2.8-3.6,5.5-5.3,8
		c0.4,1.9,0.8,3.4,1.2,4.9c-2,0.2-3.9,0.4-6.1,0.6c0.9,1.9,1.5,3.1,2.2,4.4c-1.6-0.2-2.8-0.3-3.9-0.5c-0.8,0.7-1.6,1.3-2.2,1.9
		c-1.7-0.4-3.3-0.7-4.7-1.1c-0.4-0.7-0.7-1.3-1.1-1.9c-2,0-4,0-6.1,0c-0.1,1.3-0.2,2.4-0.3,4c-5.3,0.3-10.5,1.1-13.9,5.8
		c-1.7,0-3.2,0-4.5,0c-5.1,3.8-5.4,8.3-1.6,13.9c-2.8,0.1-4.9,0.4-7,0.2c-4.3-0.4-8.6-1.1-13-1.5c-0.8-0.1-2.4,0.8-2.5,1.5
		c-0.8,3.6-1.3,7.2-1.8,10.3c2.8,3,5.7,5.1,6,9c-1.8,0-3.5,0-5.3,0c-1.6-2.9-3.2-5.9-5-9c-2.1,0.2-4.1,0.4-6.2,0.5
		c-0.6,1.6-1,3-1.5,4.5c-1.4-1.2-2.6-2.3-4.1-3.7c-0.4,1.8-0.7,2.9-1,3.9c5.1,5.7,5.2,5.8,4,8.6c-2.7-2.3-5.3-4.6-7.8-6.7
		c-0.1-1.8-0.2-3.4-0.2-5c1-1.3,2.1-2.6,3.3-4.1c0.1-1.8,0.3-3.9,0.4-5.9c-0.3-0.1-0.6-0.1-0.9-0.2c-0.2,0.6-0.5,1.1-0.7,1.7
		c-0.7,2.3-1.9,4.6-4.2,5.4c-3.8,1.2-4.8,3.8-4.6,7.3c0.3,4.6,0,8.9-3.3,12.5c-1,1.1-1.7,2.4-2.4,3.7c-1.1,2.3-1,4.5,0.3,6.8
		c1.9,0,3.7,0,5.3,0c3.6,3.6,7.4,6.8,5.4,13c-0.9,1.1-2,2.6-3.2,4.1c-0.4,0.5-0.8,0.9-1.2,1.4c1.4,0.7,2.9,1.4,4.9,2.4
		c-2.2,0.6-3.8,1-5.5,1.5c-0.6-2.1-1.1-4-1.7-5.9c0.7-1.3,1.4-2.5,2.1-3.7c0.7-1.2,1.4-2.4,2-3.5c-1.9-6-2.6-6.4-7.9-5.9
		c-1.2,1.1-2.4,2.2-3.3,3c-0.3,2.8-0.5,5.3-0.8,8.1c-1.9,1.7-3.9,3.9-6.2,5.5c-2.7,1.9-5.7,3.3-9.1,5.2c-3.3-2-7.3-4.5-11.1-6.8
		c0-1.4,0-2.5,0-4.3c5.9,4.8,11,3.9,16.4-0.3c4.2-3.3,7.6-10.2,6.2-15.7c0.8-1.9,1.8-3.9,2.5-6c2.1-6.7,7.4-12.5,5.6-20.4
		c6-4.9,8.6-10.3,1.8-16.9c1.6-0.2,2.7-0.4,4.1-0.6c-0.2-1.7-0.4-3.2-0.6-4.7c-1.5-0.1-2.5-0.1-3.4-0.2c-0.2,0.9-0.6,1.7-0.6,2.5
		c-0.1,0.8,0.2,1.5,0.3,2.3c-3.2,0.3-5.1,1.7-7.2,4.3c-2.9,3.7-5.2,8-10.6,8.8c-1.6,0.2-2.9,1.6-4.6,2.5c1.2,1.7,2.1,3,2.8,4.1
		c-2.4,5.2-2.4,5.2-7.1,7.1c-0.4,2.8,2.6,3.8,3.4,6.2c-1.8,2.4-1.1,4.9,0.8,7.5c-1.6,1.4-3.1,2.8-5.1,4.6
		c-3.4-11.2-9-20.4-16.6-28.1c-1.8,0-3.2,0-5,0c-0.3,2.4-0.5,4.6-0.8,7.2c-1.6,0.6-3.5,1.3-5.9,2.2c0,0-0.4,0.5-0.9,1
		c-0.8-0.6-1.5-1.2-2.4-1.9c1-1.1,1.9-2,2.9-3.1c-0.1-0.6-0.2-1.2-0.4-2.1c-3.2-0.2-6.2-0.5-9.6-0.7c-2.5-4.3-7-2.2-10.9-2.5
		c-0.7-1.1-1.3-2.1-2.1-3.2c1.6-0.4,2.8-0.6,4.2-1c0.5-1.2,1-2.3,1.6-3.7c-2.1-0.5-3.7-0.8-5.1-1.1c-1.1,1.1-1.8,1.9-2.6,2.8
		c-0.6-0.9-1.1-1.5-1.6-2.2c-4.6-1.1-9.2-2.3-13.6-3.4c-0.8,0.6-1.4,1-2,1.5c-0.7-0.5-1.4-1-2.2-1.6c-2.5,1.4-4.9,2.9-7.5,4.4
		c-1.4-1.4-2.6-2.6-3.4-3.4c0-2.7,0-4.9,0-7.4c1.2-0.4,2.9-0.9,4.3-1.4c1.5,1,2.7,1.8,3.8,2.5c3.1-2.7,1.7-6,2.1-9
		c-1.8-1.9-3.5-3.7-5.8-6.1c0.5,7-5.3,8.2-9,11.3c0.2,0.1,0.4,0.3,0.6,0.4c-1.7,2.7-3.4,5.4-5.1,8.2c-0.1-0.2-0.1-0.3-0.2-0.5
		c-1.3,0.8-2.6,1.6-4.1,2.5c-0.7-1.2-1.2-2.2-1.8-3.2c0.8-0.2,1.4-0.4,2.4-0.6c-1.1-2-2-3.8-2.8-5.3c-2.2,0-4.2,0.5-5.8-0.1
		c-3.3-1.4-6.5-1.2-10.1-0.3c-1,2.5-2.2,5.3-3.6,8.7c-4.8-4.6-6.5-9.7-5.3-16.2c-2,0.2-3.5,0.4-5.4,0.6c-0.5,1.7-1,3.5-1.6,5.3
		c0.8,1,1.6,1.9,2.5,2.9c-0.8,1-1.6,2-2.5,3.1c-1.4-0.7-2.6-1.2-3.9-1.9c-0.4-3-0.7-6.1-1.1-9.6c-0.2-0.3-0.7-1-1.2-1.8
		c3-4,4.7-9,11.1-10.1c0.7-2.6,1.5-5.4,2.1-8.2c0.6-2.8,1-5.7,1.4-8.5c0.2,0,0.5-0.1,0.7-0.1c0.3,1.1,0.7,2.3,0.8,3.4
		c0.1,2-0.3,4,0.8,6c0.7,1.3,0.6,3.1,1,4.7c0.5,2,1.1,3.9,1.8,5.8c0.4,1.3,0.9,2.6,1.4,3.9c0.4,1,0.7,2.3,1.5,2.8
		c3,2,6.2,3.8,8.9,5.4c3.7-0.4,6.5-1.1,8.6-4.2c3-4.4,3.9-8.8,2.5-14c-0.8-2.8-1.2-5.9-0.9-8.8c0.4-3.8,0.3-7.4-1.2-10.9
		c-0.7-1.5-1.8-2.9-2.6-4.4c-1.4-2.5-1.1-4.8,0.7-5.5c0.6,0.7,1.1,1.3,1.8,2.2c0.6-0.4,1.1-0.7,1.6-1.1c-1.4-3.3-6.2-7.4-9.6-8.1
		c-5.5-1.1-10.8-0.9-13.7,2.5c-1.9,4.5-3.2,7.5-4.4,10.4c-2.6,0-4.6,0-6.9,0c-2.7,3.3-5.3,6.6-7.9,9.8c-1.3,0.1-2.3,0.1-3.2,0.2
		c0.1,0.1,0.1,0.3,0.2,0.4c-1.8,0.8-3.7,1.7-6.3,2.9c-0.8,1.3-2.2,3.5-3.7,5.8c0.2,0.5,0.5,1.1,1.1,2.5c-2.3,0.2-4.1,0.3-6.7,0.5
		c-0.6,3.2-1.4,6.8-2.2,10.8c-0.7,0.3-1.9,1.1-2.9,1c-3.5-0.3-7-1-10.6-1.3c-5.9-0.4-11.7-0.5-17.3,2c-0.2,2.6-0.5,5-0.7,7.5
		c-0.3,0-0.5-0.1-0.8-0.1c-0.5-0.9-1-1.8-1.5-2.7c-0.1,0.1-0.2,0.3-0.4,0.4c-1.6-1.2-3.1-2.3-4.6-3.5c-2,1-4,2-6.4,3.2
		c-0.1,0.7-0.3,1.8-0.4,3c-0.1,0-0.2,0-0.3,0c-0.2-1-0.3-2-0.5-3.3c-4.3,0.4-6.1,3.7-8.5,6.5c-3.9-1.3-5.6,1.3-6.9,4.1
		c-1.1,0.2-2,0.3-3,0.5c-0.1,1.1-0.2,2-0.3,3.2c-1.5,1.1-3.1,2.2-5.2,3.8c0.6,2,1.2,4.2,1.9,6.3c0.2,0,0.5-0.1,0.7-0.1
		c-0.7,1-1.4,2-2.4,3.5c1,0.8,2,1.7,3.1,2.6c1.9,2.3,1.2,5.2-1.5,6.9c-5.8,3.5-8.6,9.7-7.4,16c-0.7,1.4-1.4,2.7-2.3,4.6
		c-1.8-0.7-3.9-1.5-5.9-2.3c0.1-0.2,0.2-0.5,0.3-0.7c-0.1-0.8-0.2-1.6-0.3-2.5c-0.8,0-1.5,0-2.2,0c0.1,0.2,0.3,0.4,0.4,0.5
		c-2.2,2.4-4.3,4.7-6.6,7.3c0,0.5,0.1,1.3,0.2,2.2c1.1,0,1.9,0,3.3,0c0.8,1.4,1.6,3,2.7,5c1.1,0.1,2.6,0.2,4.5,0.3
		c-0.3,6-6.1,7.2-8.9,11.3c0,0.2,0,0.8,0.1,1.4c0.8,0.5,1.4,1,2.7,1.8c-1.1,2.9-2.3,5.8-3.4,8.8c-0.3,0-0.5,0-0.8,0
		c0.7,1,1.3,2,2.2,3.2c0,0.5,0.1,1.4,0.2,2.2c1.7,1.2,3.3,2.4,5,3.7c-1.7,6.4,3.5,10.3,5,15.2c0,1.8,0,3.5,0,5.7
		c-1.1,0.2-2.6,0.5-3.9,0.8c-1.4,1.1-2.6,2-3.8,3c-1.8,2.3-3.1,5.1-6.9,5.2c-1-1.4-2.1-2.9-3-4.2c-2.5-0.3-4.8-0.5-7-0.7
		c-0.9,1-1.7,1.9-2.7,2.9c2.3,1.5,4.4,2.9,6.8,4.5c-1.1,0.6-1.7,1-2.3,1.3c-1.2-0.7-2.3-1.3-3.4-1.9c-0.9,0.5-1.8,1-2.6,1.5
		c-1.6-1.4-3.1-2.8-4.8-4.3c-0.4,2.2-0.6,3.8-0.9,5.2c-2.6-0.2-5-0.4-7.2-0.6c-0.9,1-1.4,1.6-2.1,2.4c-1.3-2-2.5-3.8-4-6.1
		c-1,1.1-1.6,1.9-2,2.3c-0.3,2.5-0.6,4.6-0.9,6.7c-0.2,0.1-0.5,0.1-0.7,0.2c0.8,1.1,1.6,2.2,2.5,3.2c0.4,2.9,1,5.8,1,8.8
		c0,3.2-0.6,6.5-0.8,9.7c-0.1,1.1,0.2,2.2,0.4,3.3c1.1-0.1,1.7-0.2,2.3-0.2c0.9,0.8,1.6,1.4,2.2,1.9c1.2,3.1,2.3,6,3.8,10
		c1.2,1.3,3.2,3.6,4.9,5.5c0.7,3.9,1.3,7.3,1.9,10.7c1.6,0.8,3.1,1.5,4.6,2.3c-0.1,0.1-0.3,0.3-0.4,0.4c0.8,1.1,1.5,2.2,2.6,3.8
		c0.4,1.1,1.1,2.8,1.8,4.5c-1.9,0.6-2.2,0.8-2,3c0.1,1.3,0.5,2.7,1.3,3.6c2.1,2.5,2.9,5.3,2.2,8.3c-0.8,3.1,0.3,5.1,2.8,7.2
		c0.8-0.6,1.6-1.2,2.5-1.9c1.2,0.4,2.5,0.9,3.7,1.4c0.9-0.6,1.7-1.1,2.5-1.6c0-2.2-0.3-4.4,0.1-6.5c0.7-4.4,0-9.4,4.4-12.5
		c3.4-2.4,4-5.7,3.6-9.4c-0.1-0.9-0.3-1.7-0.4-2.5c3-4.2,8.3-1.8,11.8-4.3c0.2-0.1,0.6,0.1,0.8,0.2c4.4,2.2,9,1.3,13.7,0.7
		c-0.1-1.4-0.2-2.6-0.3-3.9c0.9-0.3,1.6-0.6,2.5-0.9c0.7-3.9,1.4-7.8,2.1-11.9c-1.6-1-3-1.8-4.8-2.9c1.2-1.6,2.4-3.3,3.7-5
		c-0.8-1.3-1.6-2.5-2.6-4c1.8-0.8,3.3-1.6,4.8-2c2.3-0.6,4.2-1.3,3.6-4.6c3.2-1.3,6.3-2.5,9.3-3.7c0.2-1,0.3-1.8,0.4-2.7
		c0.1,0,0.3,0,0.4,0.1c0.1,1.2,0.2,2.3,0.2,3.3c0.8,0.8,1.5,1.4,1.9,1.7c1,2.7-1.6,5.1,1.3,7.6c1-1,2-2,3.1-3c1-1,1.9-2.4,3.1-2.8
		c2.1-0.6,4.4-0.5,7.6-0.8c2.6,1.5,6-0.7,9.5-1c0.5,2.2,1,4.4,1.5,7c1.5-0.6,2.5-1,3.7-1.6c0.6,0.3,1.4,0.8,2.4,1.3
		c-0.2,1.2-0.3,2.4-0.5,3.6c5.3,3,5.1,7.8,4.2,13.2c0.2,0.3,0.6,0.9,0.9,1.3c1.4-0.6,2.6-1,3.9-1.5c1.1,2.6,2,4.9,3.1,7.5
		c3.7-3.1,6.5-1.3,8.8,0.7c0.9,1.2,1.7,2.4,2.6,3.7c1.2-1,1.8-1.5,2.5-2.1c1.3,1.2,2.6,2.3,4,3.5c-1,3.9,0,6.9,4.1,8.2
		c1.3-0.3,3.2-0.5,3.4,0c1.2,2.9,3.9,2.7,6.3,3.6c1.3-1.4,2.5-2.9,3.8-4.4c-1.4-3.1-2.7-5.9-4.3-9.3c2.2-0.8,4.3-1.5,6.8-2.4
		c0.2-0.6,0.5-1.7,1-3.3c1.3-0.3,2.9-0.7,3.9-1c1.5,1,2.5,1.7,3.5,2.4c0.6-0.7,1-1.2,1.2-1.5c-1.1-2.5-2-4.7-3.1-7.3
		c1.5-1,3-2.8,4.2-2.7c1.7,0.3,3.3,2,4.7,3c3.2,0.4,6.4,0.6,9.5,1.3c3,0.7,5.9,2,9.3,3.2c0.3-0.3,1.1-0.8,1.8-1.4
		c0,0.2,0,0.4-0.1,0.6c4.5,1,9,2.1,13.5,3.1c3.1,0.7,5.7-0.4,6.8-2.3c1.5,0.4,2.9,0.8,4.5,1.3c0.8,1.2,1.7,2.8,2.6,4.2
		c1.6,0.3,3.1,0.7,4.8,1c-0.2,1.9-0.3,3.4-0.5,5c-0.1,0-0.2,0-0.3,0c0.1,0.9,0.2,1.9,0.3,2.7c-0.9,1-1.6,1.8-2.7,3.1
		c0.9,0.7,1.6,1.8,2.4,1.9c2.5,0.3,4.5,0.8,4.6,3.3c2.4,1,4.5,1.9,6.7,2.8c-1.4,1.8-2.3,3.1-3.2,4.3c0.2,0.2,0.4,0.4,0.6,0.5
		c0.8-0.2,1.6-0.3,2.3-0.5c1.6,0.6,3.6,1.4,4.7,0.7c4.5-3,9.3-2.5,14.7-2.5c-0.8,1.3-1.4,2.2-2.2,3.4c1.9,3,3.8,6.2,5.4,8.7
		c2.2,10.4,4.2,20.2,6.3,30.2c1.2-0.1,2.1-0.2,3-0.3c0.9-1.2,1.8-2.2,3.1-3.9c1.1,1.8,1.9,3.2,2.8,4.7c1.8,1.5,3.9,3.3,6.2,3.7
		c2,0.3,4.2-0.9,6.3-1.5c1,0.5,1.9,1,3.1,1.6c0.9,2.8,1.8,5.7,2.9,9.2c2.2,0.9,4.5,2.6,3.8,6c2.1,0.9,3.9,1.8,6.3,2.9
		c0.8-0.4,2.3-1,3.5-1.6c1.6,2.7,3,5.1,4.4,7.4c1.8,0,3.2,0,4.5,0c0.6-0.9,1.1-1.8,1.6-2.6c4.2-0.4,8.6,0,10.3-5.2
		c0.3,0.3,0.6,0.7,0.9,1.1c7.4-2.1,14-6.5,21.9-6.2c0.4,0.5,0.8,1.1,1.1,1.4c3.2,0.8,6.2,1.6,9.3,2.4c-0.8,3.6,1.5,4.7,3.8,5.4
		c1.8,0.5,3.8,0.3,5.7,0.6c3.1,0.5,6.6-0.2,9,2.6c4.3-1.1,6.6-3.8,7.2-8.1c-0.9-1.2-1.8-2.4-2.8-3.6c-0.4-5.3,1.1-8.5,5.2-10.3
		c0.3-0.9,0.6-1.8,0.7-2.3c7.2,2.4,14.3,4.7,21.7,7.2c0.6,2.2,1.3,4.8,2,7.5c3.4,1.1,6.1,4.8,10,3.7c3.5-0.9,6.7-2.7,9.5-3.9
		c4.2,0.5,7.9,0.9,12,1.4c0.3,0.4,0.9,1.3,1.7,2.3c1.2-0.3,2.4-0.6,3.7-0.9c0.5,0.3,1.2,0.7,2,1.2c0.8,1.3,1.7,2.7,2.5,3.9
		c4.5,0.4,8.8,1,13.1,1.1c1.9,0.1,4-0.2,5.7-1c4.2-1.9,7.4-5.7,12.4-5.6c3.8-8.6,7.5-9.5,14.9-9c0.7,0.6,1.3,1.1,2.1,1.7
		c1.3-1,2.5-1.9,3.6-2.7c4.4,0.7,8.7,1.4,13.2,2.2c1.2-3.5,2.6-6.8,6.7-8.2c-3.6-6.1-0.1-11.9,0-17.5c1.3-1.4,2.4-2.6,3.6-3.8
		c-0.8-2.1-1.5-4-2.2-5.9c-1.6-0.3-3.2-0.6-5.4-1c2.1-2.8,3.5-5.8,5.9-7.6c3.8-2.8,8.1-4.9,12.3-7.2c0.6-0.3,1.7-0.4,2.3-0.1
		c4.4,2,8.8,1.9,12.9,0.6c9,9,17.8,17.8,26.7,26.7c3.5-0.3,6.6-3.9,8.8-1.6c4.7,0.5,8.2,0.9,11.3,1.3c2.7,3.4,5.4,6.7,8,10
		c3.3-1.6,5.9-2.9,8.5-4.3c0.5-0.2,0.8-0.9,1-1.4c2.3-5.3,6.2-9.1,11.2-11.7c0.4,0.7,0.7,1.3,1.1,1.9c1.6,2.4,2.6,4.5,1.7,7.8
		c-0.6,2,1.2,4.7,2,7.4c-1.3,2.5-0.3,6-0.5,9.3c-0.2,3.4-0.6,7,2.8,10c-4.1,0.4-7.5,0.8-11,1.2c-1.1,2.4-2.1,4.8-3.2,7.1
		c-0.3,0.3-0.5,0.7-0.8,1c3.7,2.9,7.5,5.7,11.2,8.6c-0.3,0.3-0.6,0.6-0.9,0.9c0.1,0.8,0.1,1.7,0.2,3c2.2-1.9,4-3.4,6-5
		c2.8,0.2,5.7,0.4,8.4,0.6c0.8-0.6,1.4-1,2-1.4c4.6-3,7.6-7.4,8.9-12.6c1-3.9,0.8-8.1,1.2-12.1c0.4-4,0.6-8,1.5-11.9
		c1.1-5,2.6-9.8,1.3-15c-0.7-2.5-1-5.2-1.4-7.7c0.2-1.5,0.4-3.1,0.7-4.7c0.9-6.3,1.3-12.5-2.2-18.3c-2.9-4.8-5.9-9.6-8-14.8
		c-1.8-4.5-2.5-9.4-3.8-15c3.3,2.4,7,2.8,8.6,7c1.5,4,4.2,7.6,6.7,11.1c2.9,4.1,4.5,9.1,9,11.9c0.5,0.3,0.8,0.9,1,1.4
		c0.9,3.5,2.4,6.5,6.5,7.3c-0.1,4.4,2.1,7.3,5.3,10c0-3,0-5.7,0-8.2c1.8-0.3,3.4-0.7,5.2-1c0.5,0.2,1.3,0.5,2.6,1
		c-0.8-1.9-1.5-3.4-2.2-4.9c-1,0-1.7,0.1-2.4,0c-4.5-0.5-8.6-2.7-11-6c-2.6-3.7-3.6-8.6-5.4-13.4c1.9-0.9,3.4-2,5.1-2.3
		c1.6-0.4,3.4-0.1,5.2-0.1c-0.2-0.8-0.5-1-0.8-1.2c-6.3-4.6-12.8-9-19-13.9c-3.1-2.5-5.7-5.7-8.2-8.9c-1.7-2.2-2.4-5.3-4.3-7.2
		c-3.2-3.2-7-5.7-10.9-8.8c-0.2,0.1-1,0.5-1.7,0.9c0,0.9,0,1.5,0,2.1c6.1,4.6,6.8,5.8,4.9,8c-0.7,0-1.4,0.1-2.2,0.1
		c-0.1,1-0.2,1.8-0.2,2.4c3.8,2.9,7.3,8.6,7.4,12.2c-2.7-1.1-5.8-1.5-7.2-4.7c0.4-1,0.8-2,1.1-3c-6.4-3.1-12.3-4.9-19,0.3
		c-0.7,3.1-1.5,6.3-2.3,9.9c-1.1-1.2-2-2.2-3-3.2c-1.1,1.3-2,2.4-3.1,3.8c-1-2.7-1.9-5-2.9-7.5c-2.1,1.2-3.9,2.3-5.7,3.3
		c-1.6-0.4-3.1-0.7-4.4-1c-1-4.6,1.7-8,2.9-11.7c1.5-4.3,3.7-8.3,3.7-13.1c0-3.7,0.5-7.6,1.3-11.2c0.9-4.2,1.9-8.2,0.1-12.4
		c-0.1-0.2-0.1-0.6,0-0.8c1.8-3.5,2.2-7.2,1.2-10.3c4.7-4.8,9-9.2,13.2-13.5c1.3,0.1,2.6,0.2,4.2,0.4c-0.3-1.3-0.6-2.2-0.9-3.4
		c3.6-2.2,7.2-4.5,10.8-6.8c-0.3-1.9-0.6-3.7-0.8-5.2c3.6-2,6.8-3.8,10.1-5.7c-0.1-0.1-0.2-0.3-0.2-0.4c1.2,0,2.3,0,3.8,0
		c-0.9,1.5-1.6,2.7-2.5,4.1c1,0.7,1.8,1.3,2.5,1.8c3.6-3.2,3.6-3.2,5.1-10.6c2.5-2.1,4.6-3.9,7.1-5.9c-1.5-1.1-2.4-1.7-3.2-2.3
		c-1,1.1-1.9,2.1-2.8,3.2c-1-1-2-2-2.9-2.9c-0.3-5.7-0.3-11.5-2-16.8c-2.3-7,0.2-12,4.5-16.8c0.9-0.1,1.7-0.2,2.4-0.3
		c0.5-1.2,1-2.2,1.6-3.7c2.1,2.7,3.9,5.1,5.6,7.5c1.2-0.3,2.2-0.5,3.9-0.8c-0.3-2.2-0.5-4.3-0.8-6.4c-0.3-2.2-0.8-4.3-1.2-6.5
		c0.7-0.8,1.4-1.5,2.2-2.3c-0.4-0.6-0.7-1.2-1.1-1.7c-1.6-1.9-3.2-3.7-5.1-6c0.6-1.7,1.2-3.7,1.8-5.6c2.1-0.6,3.8-1.2,6.1-1.8
		c-1.6,2.9-4.5,5.3-2.4,8.1c1.6,2.1,4.3,3.5,6.5,5.2c0.2-0.2,0.3-0.4,0.5-0.6c0.1,1,0.2,1.9,0.3,2.9c0.7,0.4,1.4,0.8,2,1.2
		c-0.4,2.3-0.7,4.5-1.3,6.6c-0.7,2.3-0.3,4.3,1,6.3c0.6,0.9,0.7,2.2,0.8,3.4c0.4,3.9,0.4,7.9,1.1,11.7c0.9,4.5,2.4,9,3.6,13.5
		c-0.8,0.8-1.6,1.7-2.5,2.7c0.2,1,0.3,2,0.5,3.2c-0.3,0.6-0.7,1.4-1.1,2.2c1.3,1.6,2.6,3.2,3.7,4.6c0.3,2.6,0.5,4.8,0.7,7.1
		c1.8,2.1,3.5,4.3,5.4,6.4c2.9,3,5.5,6.4,8.8,8.8c10.1,7.1,20.4,13.7,30.6,20.5c0.6,0.4,1.2,0.6,2.3,1.2
		C776.4,234.8,776.1,232.7,776,230.6z"/>
</g>
<g id="spb">
	<g>
		<path d="M106.5,146.5c-0.6,0-1.1,0.2-1.4,0.7s-0.5,1.1-0.5,1.9c0,1.7,0.6,2.5,1.9,2.5c0.5,0,1.2-0.1,1.9-0.4v1.3
			c-0.6,0.3-1.3,0.4-2,0.4c-1.1,0-1.9-0.3-2.5-1s-0.9-1.6-0.9-2.8c0-0.8,0.1-1.5,0.4-2c0.3-0.6,0.7-1,1.2-1.3s1.1-0.5,1.9-0.5
			c0.7,0,1.4,0.2,2.2,0.5l-0.5,1.3c-0.3-0.1-0.6-0.2-0.8-0.3C107,146.5,106.7,146.5,106.5,146.5z"/>
		<path d="M114.5,152.7l-0.5-1.8h-2.7l-0.5,1.8H109l2.6-7.5h1.9l2.6,7.5H114.5z M113.6,149.6c-0.5-1.6-0.8-2.5-0.8-2.7
			c-0.1-0.2-0.1-0.4-0.1-0.5c-0.1,0.4-0.4,1.5-1,3.2H113.6z"/>
		<path d="M123.2,152.7h-1.6v-3.2h-2.9v3.2h-1.6v-7.4h1.6v2.9h2.9v-2.9h1.6V152.7z"/>
		<path d="M131.2,152.7h-1.8l-2.7-3.8v3.8h-1.6v-7.4h1.6v3.6l2.7-3.6h1.7l-2.7,3.6L131.2,152.7z"/>
		<path d="M135,152.7h-1.6v-6.1h-2v-1.3h5.6v1.3h-2V152.7z"/>
		<path d="M137.7,150.2V149h2.7v1.3h-2.7V150.2z"/>
		<path d="M147.8,152.7h-1.6v-6.1h-2.7v6.1h-1.6v-7.4h5.9L147.8,152.7L147.8,152.7z"/>
		<path d="M154,152.7h-4.3v-7.4h4.3v1.3h-2.7v1.6h2.5v1.3h-2.5v1.9h2.7V152.7z"/>
		<path d="M158.4,152.7h-1.6v-6.1h-2v-1.3h5.6v1.3h-2V152.7z"/>
		<path d="M165.8,152.7h-4.3v-7.4h4.3v1.3h-2.7v1.6h2.5v1.3h-2.5v1.9h2.7V152.7z"/>
		<path d="M172.5,147.6c0,0.8-0.3,1.4-0.8,1.8c-0.5,0.4-1.2,0.6-2.1,0.6H169v2.6h-1.6v-7.4h2.4c0.9,0,1.6,0.2,2.1,0.6
			S172.5,146.8,172.5,147.6z M169,148.8h0.5c0.5,0,0.8-0.1,1.1-0.3c0.2-0.2,0.4-0.5,0.4-0.8c0-0.4-0.1-0.6-0.3-0.8s-0.5-0.3-0.9-0.3
			H169V148.8z"/>
		<path d="M175.5,148.1h0.6c1,0,1.7,0.2,2.2,0.6c0.5,0.4,0.8,0.9,0.8,1.7c0,1.5-1,2.3-3.1,2.3h-2.2v-7.4h4.7v1.3h-3.1v1.5
			L175.5,148.1L175.5,148.1z M175.5,151.4h0.5c0.5,0,0.9-0.1,1.2-0.3c0.2-0.2,0.4-0.4,0.4-0.8c0-0.3-0.1-0.6-0.4-0.7
			c-0.3-0.2-0.7-0.2-1.3-0.2h-0.4V151.4z"/>
		<path d="M186.5,145.3l-2.3,5.3c-0.3,0.7-0.6,1.1-0.8,1.4s-0.5,0.5-0.9,0.6c-0.3,0.1-0.8,0.2-1.3,0.2c-0.4,0-0.8-0.1-1.2-0.2v-1.4
			c0.3,0.1,0.7,0.2,1.1,0.2c0.3,0,0.5-0.1,0.7-0.2c0.2-0.1,0.3-0.4,0.4-0.7l-2.6-5.3h1.7l1.8,4.1h0.1c0.1-0.2,0.2-0.5,0.3-0.9
			l1.3-3.2L186.5,145.3L186.5,145.3z"/>
		<path d="M192.6,147.6c0,0.8-0.3,1.4-0.8,1.8c-0.5,0.4-1.2,0.6-2.1,0.6H189v2.6h-1.6v-7.4h2.4c0.9,0,1.6,0.2,2.1,0.6
			S192.6,146.8,192.6,147.6z M189.1,148.8h0.5c0.5,0,0.8-0.1,1.1-0.3c0.2-0.2,0.4-0.5,0.4-0.8c0-0.4-0.1-0.6-0.3-0.8
			s-0.5-0.3-0.9-0.3h-0.7v2.2L189.1,148.8L189.1,148.8z"/>
		<path d="M198.7,145.3v1.3h-3.1v6.1H194v-7.4L198.7,145.3L198.7,145.3z"/>
	</g>
	<circle class="st2" cx="87.8" cy="148.5" r="8.9"/>
	<circle class="st3" cx="87.8" cy="148.5" r="3"/>
</g>
<g id="moscow">
	<g>
		<path d="M136.4,210.6l-1.8-5.8l0,0c0.1,1.2,0.1,2,0.1,2.4v3.5h-1.4v-7.4h2.1l1.8,5.7l0,0l1.9-5.7h2.1v7.4h-1.5V207
			c0-0.2,0-0.4,0-0.6s0-0.8,0.1-1.7l0,0l-1.9,5.8h-1.5L136.4,210.6L136.4,210.6z"/>
		<path d="M149.8,206.8c0,1.2-0.3,2.2-0.9,2.8c-0.6,0.7-1.5,1-2.6,1s-2-0.3-2.6-1s-0.9-1.6-0.9-2.8s0.3-2.2,0.9-2.8
			c0.6-0.7,1.5-1,2.6-1s2,0.3,2.6,1S149.8,205.6,149.8,206.8z M144.4,206.8c0,0.8,0.2,1.5,0.5,1.9s0.8,0.6,1.4,0.6
			c1.3,0,1.9-0.8,1.9-2.5s-0.6-2.5-1.9-2.5c-0.6,0-1.1,0.2-1.4,0.6C144.5,205.4,144.4,206,144.4,206.8z"/>
		<path d="M154.5,204.3c-0.6,0-1.1,0.2-1.4,0.7c-0.3,0.4-0.5,1.1-0.5,1.9c0,1.7,0.6,2.5,1.9,2.5c0.5,0,1.2-0.1,1.9-0.4v1.3
			c-0.6,0.3-1.3,0.4-2,0.4c-1.1,0-1.9-0.3-2.5-1s-0.9-1.6-0.9-2.8c0-0.8,0.1-1.5,0.4-2c0.3-0.6,0.7-1,1.2-1.3s1.1-0.5,1.9-0.5
			c0.7,0,1.4,0.2,2.2,0.5l-0.5,1.3c-0.3-0.1-0.6-0.2-0.8-0.3C155,204.4,154.8,204.3,154.5,204.3z"/>
		<path d="M164,210.6h-1.8l-2.7-3.8v3.8H158v-7.4h1.6v3.6l2.7-3.6h1.7l-2.7,3.6L164,210.6z"/>
		<path d="M165,203.1h2.3c1.1,0,1.8,0.2,2.3,0.5s0.7,0.8,0.7,1.4c0,0.4-0.1,0.8-0.3,1.1s-0.5,0.5-0.8,0.5v0.1c0.5,0.1,0.8,0.3,1,0.6
			s0.3,0.7,0.3,1.1c0,0.7-0.2,1.2-0.7,1.6s-1.2,0.6-2,0.6H165V203.1z M166.6,206.1h0.9c0.4,0,0.7-0.1,0.9-0.2s0.3-0.4,0.3-0.7
			s-0.1-0.5-0.3-0.6s-0.5-0.2-1-0.2h-0.8L166.6,206.1L166.6,206.1z M166.6,207.3v1.9h1c0.4,0,0.8-0.1,1-0.2c0.2-0.2,0.3-0.4,0.3-0.8
			c0-0.6-0.4-0.9-1.3-0.9H166.6z"/>
		<path d="M176.5,210.6l-0.5-1.8h-2.7l-0.5,1.8H171l2.6-7.5h1.9l2.6,7.5H176.5z M175.6,207.5c-0.5-1.6-0.8-2.5-0.8-2.7
			c-0.1-0.2-0.1-0.4-0.1-0.5c-0.1,0.4-0.4,1.5-1,3.2H175.6z"/>
	</g>
	<circle class="st2" cx="117.8" cy="205.9" r="8.9"/>
	<circle class="st3" cx="117.8" cy="205.9" r="3"/>
</g>
<g id="simferopol">
	<g>
		<path d="M46.5,245c-0.6,0-1.1,0.2-1.4,0.7c-0.3,0.4-0.5,1.1-0.5,1.9c0,1.7,0.6,2.5,1.9,2.5c0.5,0,1.2-0.1,1.9-0.4v1.3
			c-0.6,0.3-1.3,0.4-2,0.4c-1.1,0-1.9-0.3-2.5-1s-0.9-1.6-0.9-2.8c0-0.8,0.1-1.5,0.4-2c0.3-0.6,0.7-1,1.2-1.3s1.1-0.5,1.9-0.5
			c0.7,0,1.4,0.2,2.2,0.5l-0.5,1.3c-0.3-0.1-0.6-0.2-0.8-0.3C47,245,46.7,245,46.5,245z"/>
		<path d="M49.9,243.8h1.4v3.6v1l-0.1,1.1l0,0l3.4-5.6h1.9v7.4h-1.4v-3.6c0-0.5,0-1.2,0.1-2.1l0,0l-3.4,5.7h-1.9V243.8z"/>
		<path d="M61.7,251.2l-1.8-5.8l0,0c0.1,1.2,0.1,2,0.1,2.4v3.5h-1.4v-7.4h2.1l1.8,5.7l0,0l1.9-5.7h2.1v7.4H65v-3.5
			c0-0.2,0-0.4,0-0.6c0-0.2,0-0.8,0.1-1.7l0,0l-1.9,5.8L61.7,251.2L61.7,251.2z"/>
		<path d="M71.2,251.3v-1.1H71c-0.6,0-1.2-0.1-1.7-0.3s-0.8-0.6-1.1-1c-0.3-0.4-0.4-0.9-0.4-1.5c0-0.5,0.1-1,0.4-1.4
			c0.2-0.4,0.6-0.8,1.1-1s1-0.4,1.6-0.4h0.3v-0.9h1.4v0.9h0.3c0.6,0,1.2,0.1,1.6,0.4c0.5,0.2,0.8,0.6,1.1,1c0.2,0.4,0.4,0.9,0.4,1.4
			s-0.1,1-0.4,1.5c-0.3,0.4-0.6,0.8-1.1,1s-1,0.3-1.7,0.3h-0.1v1.1H71.2z M71.2,245.8H71c-0.5,0-0.9,0.1-1.2,0.4
			c-0.3,0.3-0.4,0.6-0.4,1.1s0.2,0.9,0.5,1.2s0.7,0.4,1.3,0.4h0.1v-3.1L71.2,245.8L71.2,245.8z M72.6,249L72.6,249
			c0.6,0,1-0.1,1.4-0.4s0.5-0.7,0.5-1.2s-0.1-0.8-0.4-1.1s-0.7-0.4-1.2-0.4h-0.2v3.1L72.6,249L72.6,249z"/>
		<path d="M81.6,251.2h-4.3v-7.4h4.3v1.3h-2.7v1.6h2.5v1.3h-2.5v1.9h2.7V251.2z"/>
		<path d="M88.3,246.1c0,0.8-0.3,1.4-0.8,1.8c-0.5,0.4-1.2,0.6-2.1,0.6h-0.7v2.6h-1.6v-7.4h2.4c0.9,0,1.6,0.2,2.1,0.6
			S88.3,245.3,88.3,246.1z M84.7,247.3h0.5c0.5,0,0.8-0.1,1.1-0.3c0.2-0.2,0.4-0.5,0.4-0.8c0-0.4-0.1-0.6-0.3-0.8
			c-0.2-0.2-0.5-0.3-0.9-0.3h-0.7L84.7,247.3L84.7,247.3z"/>
		<path d="M96.4,247.5c0,1.2-0.3,2.2-0.9,2.8c-0.6,0.7-1.5,1-2.6,1s-2-0.3-2.6-1s-0.9-1.6-0.9-2.8s0.3-2.2,0.9-2.8s1.5-1,2.6-1
			s2,0.3,2.6,1C96.1,245.3,96.4,246.3,96.4,247.5z M91,247.5c0,0.8,0.2,1.5,0.5,1.9s0.8,0.6,1.4,0.6c1.3,0,1.9-0.8,1.9-2.5
			s-0.6-2.5-1.9-2.5c-0.6,0-1.1,0.2-1.4,0.6C91.1,246,91,246.7,91,247.5z"/>
		<path d="M103.8,251.2h-1.6v-6.1h-2.7v6.1h-1.6v-7.4h5.9C103.8,243.8,103.8,251.2,103.8,251.2z"/>
		<path d="M112.5,247.5c0,1.2-0.3,2.2-0.9,2.8c-0.6,0.7-1.5,1-2.6,1s-2-0.3-2.6-1s-0.9-1.6-0.9-2.8s0.3-2.2,0.9-2.8s1.5-1,2.6-1
			s2,0.3,2.6,1S112.5,246.3,112.5,247.5z M107,247.5c0,0.8,0.2,1.5,0.5,1.9s0.8,0.6,1.4,0.6c1.3,0,1.9-0.8,1.9-2.5s-0.6-2.5-1.9-2.5
			c-0.6,0-1.1,0.2-1.4,0.6C107.2,246,107,246.7,107,247.5z"/>
		<path d="M119.8,251.2h-1.6v-6.1h-1.8l-0.1,0.7c-0.2,1.7-0.4,2.9-0.6,3.6c-0.2,0.7-0.4,1.2-0.7,1.5c-0.3,0.3-0.7,0.4-1.3,0.4
			c-0.3,0-0.5,0-0.8-0.1v-1.3c0.2,0.1,0.4,0.1,0.6,0.1s0.3-0.1,0.4-0.2c0.1-0.2,0.2-0.5,0.3-0.9c0.1-0.4,0.2-1.2,0.4-2.2
			c0.2-1,0.3-2,0.4-2.9h4.7L119.8,251.2L119.8,251.2z"/>
		<path d="M126.9,248.9c0,1.5-1,2.3-3.1,2.3h-2.2v-7.4h1.6v2.9h0.6c1,0,1.7,0.2,2.2,0.6C126.6,247.6,126.9,248.2,126.9,248.9z
			 M123.2,249.9h0.5c0.5,0,0.9-0.1,1.2-0.3c0.2-0.2,0.4-0.4,0.4-0.8c0-0.3-0.1-0.6-0.4-0.7c-0.3-0.2-0.7-0.2-1.3-0.2h-0.4
			C123.2,247.9,123.2,249.9,123.2,249.9z"/>
	</g>
	<circle class="st2" cx="27.8" cy="246.5" r="8.9"/>
	<circle class="st3" cx="27.8" cy="246.5" r="3"/>
</g>
<g id="yoshkarola">
	<g>
		<path d="M263.1,202.9h1.4v3.6v1l-0.1,1.1l0,0l3.4-5.6h1.9v7.4h-1.4v-3.6c0-0.5,0-1.2,0.1-2.1l0,0l-3.4,5.7h-1.9V202.9z
			 M268.9,200.5c-0.1,0.6-0.3,1.1-0.7,1.4c-0.4,0.3-1,0.4-1.8,0.4s-1.4-0.1-1.8-0.4c-0.4-0.3-0.6-0.7-0.6-1.4h1.4
			c0,0.3,0.1,0.6,0.3,0.7c0.2,0.1,0.4,0.2,0.8,0.2c0.3,0,0.6-0.1,0.8-0.2c0.2-0.2,0.3-0.4,0.3-0.7H268.9z"/>
		<path d="M278.4,206.6c0,1.2-0.3,2.2-0.9,2.8c-0.6,0.7-1.5,1-2.6,1s-2-0.3-2.6-1s-0.9-1.6-0.9-2.8s0.3-2.2,0.9-2.8
			c0.6-0.7,1.5-1,2.6-1s2,0.3,2.6,1C278.1,204.4,278.4,205.4,278.4,206.6z M273,206.6c0,0.8,0.2,1.5,0.5,1.9s0.8,0.6,1.4,0.6
			c1.3,0,1.9-0.8,1.9-2.5s-0.6-2.5-1.9-2.5c-0.6,0-1.1,0.2-1.4,0.6S273,205.8,273,206.6z"/>
		<path d="M285.4,209h2.3v-6.1h1.6v7.4H280v-7.4h1.6v6.1h2.3v-6.1h1.6v6.1H285.4z"/>
		<path d="M297.3,210.3h-1.8l-2.7-3.8v3.8h-1.6v-7.4h1.6v3.6l2.7-3.6h1.7l-2.7,3.6L297.3,210.3z"/>
		<path d="M302.7,210.3l-0.5-1.8h-2.7l-0.5,1.8h-1.7l2.6-7.5h1.9l2.6,7.5H302.7z M301.8,207.2c-0.5-1.6-0.8-2.5-0.8-2.7
			c-0.1-0.2-0.1-0.4-0.1-0.5c-0.1,0.4-0.4,1.5-1,3.2H301.8z"/>
		<path d="M310.5,205.2c0,0.8-0.3,1.4-0.8,1.8c-0.5,0.4-1.2,0.6-2.1,0.6H307v2.6h-1.6v-7.4h2.4c0.9,0,1.6,0.2,2.1,0.6
			S310.5,204.5,310.5,205.2z M307,206.4h0.5c0.5,0,0.8-0.1,1.1-0.3c0.2-0.2,0.4-0.5,0.4-0.8c0-0.4-0.1-0.6-0.3-0.8
			c-0.2-0.2-0.5-0.3-0.9-0.3H307V206.4z"/>
		<path d="M311.5,207.9v-1.3h2.7v1.3H311.5z"/>
		<path d="M322.5,206.6c0,1.2-0.3,2.2-0.9,2.8c-0.6,0.7-1.5,1-2.6,1s-2-0.3-2.6-1s-0.9-1.6-0.9-2.8s0.3-2.2,0.9-2.8
			c0.6-0.7,1.5-1,2.6-1s2,0.3,2.6,1C322.2,204.4,322.5,205.4,322.5,206.6z M317.1,206.6c0,0.8,0.2,1.5,0.5,1.9s0.8,0.6,1.4,0.6
			c1.3,0,1.9-0.8,1.9-2.5s-0.6-2.5-1.9-2.5c-0.6,0-1.1,0.2-1.4,0.6S317.1,205.8,317.1,206.6z"/>
		<path d="M329.8,210.3h-1.6v-6.1h-1.8l-0.1,0.7c-0.2,1.7-0.4,2.9-0.6,3.6c-0.2,0.7-0.4,1.2-0.7,1.5s-0.7,0.4-1.3,0.4
			c-0.3,0-0.5,0-0.8-0.1V209c0.2,0.1,0.4,0.1,0.6,0.1s0.3-0.1,0.4-0.2c0.1-0.2,0.2-0.5,0.3-0.9s0.2-1.2,0.4-2.2c0.2-1,0.3-2,0.4-2.9
			h4.7v7.4L329.8,210.3L329.8,210.3z"/>
		<path d="M336.2,210.3l-0.5-1.8H333l-0.5,1.8h-1.7l2.6-7.5h1.9l2.6,7.5H336.2z M335.3,207.2c-0.5-1.6-0.8-2.5-0.8-2.7
			c-0.1-0.2-0.1-0.4-0.1-0.5c-0.1,0.4-0.4,1.5-1,3.2H335.3z"/>
	</g>
	<circle class="st2" cx="248.6" cy="206.2" r="8.9"/>
	<circle class="st3" cx="248.6" cy="206.2" r="3"/>
</g>
<g id="novosibirsk">
	<g>
		<path d="M413,225h-1.6v-3.2h-2.9v3.2h-1.6v-7.4h1.6v2.9h2.9v-2.9h1.6V225z"/>
		<path d="M421.6,221.3c0,1.2-0.3,2.2-0.9,2.8c-0.6,0.7-1.5,1-2.6,1s-2-0.3-2.6-1s-0.9-1.6-0.9-2.8s0.3-2.2,0.9-2.8
			c0.6-0.7,1.5-1,2.6-1s2,0.3,2.6,1S421.6,220.1,421.6,221.3z M416.2,221.3c0,0.8,0.2,1.5,0.5,1.9s0.8,0.6,1.4,0.6
			c1.3,0,1.9-0.8,1.9-2.5s-0.6-2.5-1.9-2.5c-0.6,0-1.1,0.2-1.4,0.6S416.2,220.5,416.2,221.3z"/>
		<path d="M423.1,217.6h2.3c1.1,0,1.8,0.2,2.3,0.5s0.7,0.8,0.7,1.4c0,0.4-0.1,0.8-0.3,1.1c-0.2,0.3-0.5,0.5-0.8,0.5v0.1
			c0.5,0.1,0.8,0.3,1,0.6s0.3,0.7,0.3,1.1c0,0.7-0.2,1.2-0.7,1.6c-0.5,0.4-1.2,0.6-2,0.6h-2.8V217.6z M424.7,220.5h0.9
			c0.4,0,0.7-0.1,0.9-0.2c0.2-0.1,0.3-0.4,0.3-0.7s-0.1-0.5-0.3-0.6s-0.5-0.2-1-0.2h-0.8V220.5z M424.7,221.8v1.9h1
			c0.4,0,0.8-0.1,1-0.2s0.3-0.4,0.3-0.8c0-0.6-0.4-0.9-1.3-0.9H424.7z"/>
		<path d="M436.9,221.3c0,1.2-0.3,2.2-0.9,2.8c-0.6,0.7-1.5,1-2.6,1s-2-0.3-2.6-1s-0.9-1.6-0.9-2.8s0.3-2.2,0.9-2.8s1.5-1,2.6-1
			s2,0.3,2.6,1C436.6,219.1,436.9,220.1,436.9,221.3z M431.4,221.3c0,0.8,0.2,1.5,0.5,1.9s0.8,0.6,1.4,0.6c1.3,0,1.9-0.8,1.9-2.5
			s-0.6-2.5-1.9-2.5c-0.6,0-1.1,0.2-1.4,0.6S431.4,220.5,431.4,221.3z"/>
		<path d="M441.6,218.8c-0.6,0-1.1,0.2-1.4,0.7c-0.3,0.4-0.5,1.1-0.5,1.9c0,1.7,0.6,2.5,1.9,2.5c0.5,0,1.2-0.1,1.9-0.4v1.3
			c-0.6,0.3-1.3,0.4-2,0.4c-1.1,0-1.9-0.3-2.5-1s-0.9-1.6-0.9-2.8c0-0.8,0.1-1.5,0.4-2c0.3-0.6,0.7-1,1.2-1.3s1.1-0.5,1.9-0.5
			c0.7,0,1.4,0.2,2.2,0.5l-0.5,1.3c-0.3-0.1-0.6-0.2-0.8-0.3C442.1,218.9,441.8,218.8,441.6,218.8z"/>
		<path d="M445.1,217.6h1.4v3.6v1l-0.1,1.1l0,0l3.4-5.6h1.9v7.4h-1.4v-3.6c0-0.5,0-1.2,0.1-2.1l0,0l-3.4,5.7h-1.9V217.6z"/>
		<path d="M455.2,220.5h0.6c1,0,1.7,0.2,2.2,0.6s0.8,0.9,0.8,1.7c0,1.5-1,2.3-3.1,2.3h-2.2v-7.4h4.7v1.3h-3.1v1.5L455.2,220.5
			L455.2,220.5z M455.2,223.7h0.5c0.5,0,0.9-0.1,1.2-0.3c0.2-0.2,0.4-0.4,0.4-0.8c0-0.3-0.1-0.6-0.4-0.7s-0.7-0.2-1.3-0.2h-0.4
			L455.2,223.7L455.2,223.7z"/>
		<path d="M460.3,217.6h1.4v3.6v1l-0.1,1.1l0,0l3.4-5.6h1.9v7.4h-1.4v-3.6c0-0.5,0-1.2,0.1-2.1l0,0l-3.4,5.7h-1.9V217.6z"/>
		<path d="M474,219.9c0,0.8-0.3,1.4-0.8,1.8c-0.5,0.4-1.2,0.6-2.1,0.6h-0.7v2.6h-1.6v-7.4h2.4c0.9,0,1.6,0.2,2.1,0.6
			S474,219.2,474,219.9z M470.4,221.1h0.5c0.5,0,0.8-0.1,1.1-0.3c0.2-0.2,0.4-0.5,0.4-0.8c0-0.4-0.1-0.6-0.3-0.8
			c-0.2-0.2-0.5-0.3-0.9-0.3h-0.7v2.2L470.4,221.1L470.4,221.1z"/>
		<path d="M478.5,218.8c-0.6,0-1.1,0.2-1.4,0.7c-0.3,0.4-0.5,1.1-0.5,1.9c0,1.7,0.6,2.5,1.9,2.5c0.5,0,1.2-0.1,1.9-0.4v1.3
			c-0.6,0.3-1.3,0.4-2,0.4c-1.1,0-1.9-0.3-2.5-1s-0.9-1.6-0.9-2.8c0-0.8,0.1-1.5,0.4-2c0.3-0.6,0.7-1,1.2-1.3s1.1-0.5,1.9-0.5
			c0.7,0,1.4,0.2,2.2,0.5l-0.5,1.3c-0.3-0.1-0.6-0.2-0.8-0.3C479.1,218.9,478.8,218.8,478.5,218.8z"/>
		<path d="M488.1,225h-1.8l-2.7-3.8v3.8H482v-7.4h1.6v3.6l2.7-3.6h1.7l-2.7,3.6L488.1,225z"/>
	</g>
	<circle class="st2" cx="392.4" cy="220.9" r="8.9"/>
	<circle class="st3" cx="392.4" cy="220.9" r="3"/>
</g>
<g id="sevastopol">
	<g>
		<path d="M30.6,220.6c-0.6,0-1.1,0.2-1.4,0.7c-0.3,0.4-0.5,1.1-0.5,1.9c0,1.7,0.6,2.5,1.9,2.5c0.5,0,1.2-0.1,1.9-0.4v1.3
			c-0.6,0.3-1.3,0.4-2,0.4c-1.1,0-1.9-0.3-2.5-1s-0.9-1.6-0.9-2.8c0-0.8,0.1-1.5,0.4-2c0.3-0.6,0.7-1,1.2-1.3s1.1-0.5,1.9-0.5
			c0.7,0,1.4,0.2,2.2,0.5l-0.5,1.3c-0.3-0.1-0.6-0.2-0.8-0.3C31.1,220.7,30.8,220.6,30.6,220.6z"/>
		<path d="M38.3,226.9H34v-7.4h4.3v1.3h-2.7v1.6h2.5v1.3h-2.5v1.9h2.7V226.9z"/>
		<path d="M39.9,219.4h2.3c1.1,0,1.8,0.2,2.3,0.5s0.7,0.8,0.7,1.4c0,0.4-0.1,0.8-0.3,1.1s-0.5,0.5-0.8,0.5v0.1
			c0.5,0.1,0.8,0.3,1,0.6s0.3,0.7,0.3,1.1c0,0.7-0.2,1.2-0.7,1.6s-1.2,0.6-2,0.6h-2.8V219.4z M41.5,222.4h0.9c0.4,0,0.7-0.1,0.9-0.2
			c0.2-0.1,0.3-0.4,0.3-0.7s-0.1-0.5-0.3-0.6s-0.5-0.2-1-0.2h-0.8C41.5,220.7,41.5,222.4,41.5,222.4z M41.5,223.6v1.9h1
			c0.4,0,0.8-0.1,1-0.2s0.3-0.4,0.3-0.8c0-0.6-0.4-0.9-1.3-0.9H41.5z"/>
		<path d="M51.4,226.9l-0.5-1.8h-2.7l-0.5,1.8H46l2.6-7.5h1.9l2.6,7.5H51.4z M50.5,223.8c-0.5-1.6-0.8-2.5-0.8-2.7
			c-0.1-0.2-0.1-0.4-0.1-0.5c-0.1,0.4-0.4,1.5-1,3.2H50.5z"/>
		<path d="M57.2,220.6c-0.6,0-1.1,0.2-1.4,0.7c-0.3,0.4-0.5,1.1-0.5,1.9c0,1.7,0.6,2.5,1.9,2.5c0.5,0,1.2-0.1,1.9-0.4v1.3
			c-0.6,0.3-1.3,0.4-2,0.4c-1.1,0-1.9-0.3-2.5-1s-0.9-1.6-0.9-2.8c0-0.8,0.1-1.5,0.4-2c0.3-0.6,0.7-1,1.2-1.3s1.1-0.5,1.9-0.5
			c0.7,0,1.4,0.2,2.2,0.5l-0.5,1.3c-0.3-0.1-0.6-0.2-0.8-0.3C57.8,220.7,57.5,220.6,57.2,220.6z"/>
		<path d="M63.6,226.9H62v-6.1h-2v-1.3h5.6v1.3h-2V226.9z"/>
		<path d="M73.4,223.1c0,1.2-0.3,2.2-0.9,2.8c-0.6,0.7-1.5,1-2.6,1s-2-0.3-2.6-1s-0.9-1.6-0.9-2.8s0.3-2.2,0.9-2.8s1.5-1,2.6-1
			s2,0.3,2.6,1S73.4,221.9,73.4,223.1z M68,223.1c0,0.8,0.2,1.5,0.5,1.9s0.8,0.6,1.4,0.6c1.3,0,1.9-0.8,1.9-2.5s-0.6-2.5-1.9-2.5
			c-0.6,0-1.1,0.2-1.4,0.6C68.1,221.7,68,222.3,68,223.1z"/>
		<path d="M80.8,226.9h-1.6v-6.1h-2.7v6.1h-1.6v-7.4h5.9C80.8,219.5,80.8,226.9,80.8,226.9z"/>
		<path d="M89.4,223.1c0,1.2-0.3,2.2-0.9,2.8c-0.6,0.7-1.5,1-2.6,1s-2-0.3-2.6-1s-0.9-1.6-0.9-2.8s0.3-2.2,0.9-2.8
			c0.6-0.7,1.5-1,2.6-1s2,0.3,2.6,1S89.4,221.9,89.4,223.1z M84,223.1c0,0.8,0.2,1.5,0.5,1.9s0.8,0.6,1.4,0.6c1.3,0,1.9-0.8,1.9-2.5
			s-0.6-2.5-1.9-2.5c-0.6,0-1.1,0.2-1.4,0.6C84.2,221.7,84,222.3,84,223.1z"/>
		<path d="M96.8,226.9h-1.6v-6.1h-1.8l-0.1,0.7c-0.2,1.7-0.4,2.9-0.6,3.6c-0.2,0.7-0.4,1.2-0.7,1.5c-0.3,0.3-0.7,0.4-1.3,0.4
			c-0.3,0-0.5,0-0.8-0.1v-1.3c0.2,0.1,0.4,0.1,0.6,0.1s0.3-0.1,0.4-0.2c0.1-0.2,0.2-0.5,0.3-0.9s0.2-1.2,0.4-2.2
			c0.2-1,0.3-2,0.4-2.9h4.7L96.8,226.9L96.8,226.9z"/>
		<path d="M103.9,224.5c0,1.5-1,2.3-3.1,2.3h-2.2v-7.4h1.6v2.9h0.6c1,0,1.7,0.2,2.2,0.6C103.6,223.3,103.9,223.8,103.9,224.5z
			 M100.2,225.6h0.5c0.5,0,0.9-0.1,1.2-0.3c0.2-0.2,0.4-0.4,0.4-0.8c0-0.3-0.1-0.6-0.4-0.7s-0.7-0.2-1.3-0.2h-0.4
			C100.2,223.6,100.2,225.6,100.2,225.6z"/>
	</g>
	<circle class="st2" cx="12.6" cy="222.2" r="8.9"/>
	<circle class="st3" cx="12.6" cy="222.2" r="3"/>
</g>
<g id="ivanovo">
	<g>
		<path d="M226.9,224.6h1.4v3.6v1l-0.1,1.1l0,0l3.4-5.6h1.9v7.4h-1.4v-3.6c0-0.5,0-1.2,0.1-2.1l0,0l-3.4,5.7h-1.9V224.6z"/>
		<path d="M235.5,224.6h2.3c1.1,0,1.8,0.2,2.3,0.5s0.7,0.8,0.7,1.4c0,0.4-0.1,0.8-0.3,1.1s-0.5,0.5-0.8,0.5v0.1
			c0.5,0.1,0.8,0.3,1,0.6s0.3,0.7,0.3,1.1c0,0.7-0.2,1.2-0.7,1.6c-0.5,0.4-1.2,0.6-2,0.6h-2.8V224.6z M237.1,227.6h0.9
			c0.4,0,0.7-0.1,0.9-0.2c0.2-0.1,0.3-0.4,0.3-0.7s-0.1-0.5-0.3-0.6s-0.5-0.2-1-0.2h-0.8L237.1,227.6L237.1,227.6z M237.1,228.8v1.9
			h1c0.4,0,0.8-0.1,1-0.2c0.2-0.2,0.3-0.4,0.3-0.8c0-0.6-0.4-0.9-1.3-0.9H237.1z"/>
		<path d="M247.1,232.1l-0.5-1.8h-2.7l-0.5,1.8h-1.7l2.6-7.5h1.9l2.6,7.5H247.1z M246.1,229c-0.5-1.6-0.8-2.5-0.8-2.7
			c-0.1-0.2-0.1-0.4-0.1-0.5c-0.1,0.4-0.4,1.5-1,3.2H246.1z"/>
		<path d="M255.8,232.1h-1.6v-3.2h-2.9v3.2h-1.6v-7.4h1.6v2.9h2.9v-2.9h1.6V232.1z"/>
		<path d="M264.4,228.3c0,1.2-0.3,2.2-0.9,2.8c-0.6,0.7-1.5,1-2.6,1s-2-0.3-2.6-1s-0.9-1.6-0.9-2.8s0.3-2.2,0.9-2.8
			c0.6-0.7,1.5-1,2.6-1s2,0.3,2.6,1S264.4,227.1,264.4,228.3z M259,228.3c0,0.8,0.2,1.5,0.5,1.9s0.8,0.6,1.4,0.6
			c1.3,0,1.9-0.8,1.9-2.5s-0.6-2.5-1.9-2.5c-0.6,0-1.1,0.2-1.4,0.6C259.1,226.9,259,227.5,259,228.3z"/>
		<path d="M266,224.6h2.3c1.1,0,1.8,0.2,2.3,0.5s0.7,0.8,0.7,1.4c0,0.4-0.1,0.8-0.3,1.1s-0.5,0.5-0.8,0.5v0.1c0.5,0.1,0.8,0.3,1,0.6
			s0.3,0.7,0.3,1.1c0,0.7-0.2,1.2-0.7,1.6c-0.5,0.4-1.2,0.6-2,0.6H266V224.6z M267.5,227.6h0.9c0.4,0,0.7-0.1,0.9-0.2
			s0.3-0.4,0.3-0.7s-0.1-0.5-0.3-0.6c-0.2-0.1-0.5-0.2-1-0.2h-0.8V227.6z M267.5,228.8v1.9h1c0.4,0,0.8-0.1,1-0.2
			c0.2-0.2,0.3-0.4,0.3-0.8c0-0.6-0.4-0.9-1.3-0.9H267.5z"/>
		<path d="M279.7,228.3c0,1.2-0.3,2.2-0.9,2.8c-0.6,0.7-1.5,1-2.6,1s-2-0.3-2.6-1s-0.9-1.6-0.9-2.8s0.3-2.2,0.9-2.8
			c0.6-0.7,1.5-1,2.6-1s2,0.3,2.6,1C279.4,226.2,279.7,227.1,279.7,228.3z M274.3,228.3c0,0.8,0.2,1.5,0.5,1.9s0.8,0.6,1.4,0.6
			c1.3,0,1.9-0.8,1.9-2.5s-0.6-2.5-1.9-2.5c-0.6,0-1.1,0.2-1.4,0.6C274.4,226.9,274.3,227.5,274.3,228.3z"/>
	</g>
	<circle class="st2" cx="212.5" cy="227.4" r="8.9"/>
	<circle class="st3" cx="212.5" cy="227.4" r="3"/>
</g>
</svg>
